<?xml version="1.0" encoding="UTF-8"?>
<svg xmlns="http://www.w3.org/2000/svg" version="1.1" viewBox="0 0 1141.64 1173.19">
  <!-- Generator: Adobe Illustrator 29.8.4, SVG Export Plug-In . SVG Version: 2.1.1 Build 6)  -->
  <defs>
    <style>
      .st0 {
        fill: #fff;
      }

      .st1 {
        display: none;
      }

      .st2 {
        fill: #2aaf4a;
      }
    </style>
  </defs>
  <g id="Layer_1" class="st1">
    <g>
      <path d="M333.72,234.75c0,20.39.22,40.77-.05,61.16-.4,29.17-21.91,50.22-51.21,50.29-40.14.1-80.28.11-120.43,0-30.91-.08-52-21.25-52.1-52.37-.13-39.82-.13-79.63,0-119.45.1-30.14,21.66-51.75,51.84-51.88,40.46-.17,80.92-.18,121.38.01,28.53.14,50.09,21.56,50.5,50.12.3,20.7.06,41.41.07,62.11ZM142.08,233.99h-.03c0,18.47-.21,36.95.07,55.41.21,14.47,8.44,24.36,22.5,24.6,37.88.64,75.79.68,113.67.03,15-.26,23.24-9.57,23.38-24.69.33-36.62.33-73.25,0-109.87-.15-15.88-9.41-24.71-25.34-24.8-36.31-.19-72.63-.18-108.94.03-16.23.09-25.11,9.35-25.26,25.78-.16,17.83-.04,35.67-.04,53.5Z"/>
      <path d="M333.72,938.72c0,20.39.19,40.77-.05,61.15-.32,27.64-19.77,49.26-47.43,49.94-42.66,1.05-85.38,1.12-128.03.04-28.77-.73-48.14-22.46-48.25-51.19-.16-40.13-.16-80.27-.03-120.4.1-29.35,20.53-51.31,49.95-51.85,41.4-.76,82.84-.74,124.23.03,28.95.54,49.26,22.26,49.57,51.12.22,20.38.04,40.77.03,61.15ZM142.08,938.06h-.05c0,18.15-.19,36.31.06,54.46.22,16.09,9.36,25.77,25.51,25.94,35.99.37,72,.33,107.99,0,16.87-.16,25.99-9.45,26.11-26.22.25-35.99.28-71.98,0-107.97-.12-16.66-9.7-25.81-26.45-25.88-35.68-.14-71.36-.13-107.04,0-16.54.06-25.95,9.58-26.09,26.17-.15,17.83-.03,35.67-.03,53.51Z"/>
      <path d="M925.78,346.22c-20.39,0-40.78.14-61.17-.03-28.11-.23-50.13-20.87-50.61-49.08-.71-41.71-.78-83.46-.03-125.17.51-28.62,22.78-49.32,51.4-49.43,40.46-.16,80.92-.17,121.38,0,28.4.13,50.25,20.35,50.79,48.75.8,42.03.79,84.09-.02,126.12-.56,29.04-22.18,48.68-51.53,48.82-20.07.1-40.14.02-60.21.02ZM845.89,234.5c0,17.52-.1,35.03.03,52.55.13,17.74,9.23,27.26,27.06,27.39,35.35.27,70.71.3,106.07-.02,17.9-.16,26.91-9.53,27.01-27.43.19-35.03.18-70.06.02-105.09-.08-17.84-9.43-27.22-27.1-27.28-35.67-.13-71.35-.11-107.02.07-16.41.08-25.86,9.75-26.01,26.31-.16,17.83-.04,35.67-.04,53.5Z"/>
      <path d="M733.05,246.41c-7.64,1.46-11.64-1.55-11.38-11.28.22-8.24,1.19-13.35,11.33-12.94,8.01.32,13.58.83,13.09,11.14-.58,12.3-.57,12.91-13.03,13.08Z"/>
      <path d="M969.97,969.36c-.03,12.51-.72,12.51-12.78,13.27-10.26.65-11.13-4.66-11.45-12.8-.37-9.64,3.77-11.69,12.53-11.7,9.29-.02,13.22,3.08,11.7,11.23Z"/>
      <path d="M713.63,138.35c1.93,9.22-2.06,12.48-11.27,12.42-8.49-.06-13.14-1.77-12.53-11.7.73-11.92.81-12.23,12.22-12.79,9.07-.45,13.49,2.49,11.58,12.08Z"/>
      <path d="M1001.85,491.85c1.7,8.68-3.28,10.91-12.06,10.91-8.92,0-12.35-2.73-12.13-12.19.21-8.82,2.34-12.94,11.87-12.48,11.45.55,12.31.93,12.31,13.76Z"/>
      <path d="M127.27,630.31c-13-.02-12.89-.52-13.56-12.47-.55-9.77,3.8-11.53,12.44-11.75,9.54-.24,12.11,3.38,11.94,12.3-.16,8.64-2.06,13.87-10.82,11.92Z"/>
      <path d="M701.12,862.3c12.48.07,12.18.52,12.94,12.99.63,10.4-4.84,10.94-12.82,11.34-10.05.51-11.26-4.52-11.46-12.81-.23-9.46,3.31-13.06,11.33-11.53Z"/>
      <path d="M860.41,1014.13c-8.62,1.83-11.09-3.03-10.67-11.9.55-11.45.71-11.31,12.94-12.05,10.16-.61,11.72,4.41,11.39,12.7-.43,10.73-.76,11.29-13.66,11.25Z"/>
      <path d="M477.98,758.36c-11.44-.02-11.52-.72-12.26-12.67-.62-10.03,4.3-11.22,12.64-11.51,9.69-.34,12.16,3.59,11.7,12.44-.57,11.02-.86,11.76-12.09,11.74Z"/>
      <path d="M137.64,491.15c1.88,9.76-3.22,11.92-11.9,11.48-11.27-.57-11.93-.86-11.83-12.85.08-10.78,1.08-11.05,13.16-11.66,10.3-.52,11.76,4.83,10.58,13.03Z"/>
      <path d="M220.78,478.35c12.79.08,12.62.58,13.28,13.3.54,10.35-5.03,10.71-12.9,11.06-9.79.44-11.46-4.17-11.48-12.58-.03-8.89,2.61-13.39,11.11-11.78Z"/>
      <path d="M605.82,758.14c-9.32,1.79-12.55-2.29-12.09-11.52.58-11.54.82-11.67,12.64-12.39,9.65-.58,11.84,3.6,11.86,12.34.02,9.17-3.02,13.3-12.41,11.56Z"/>
      <path d="M735.02,734.39c8.01-1.46,11.24,2.42,11.16,11.71-.07,8.61-1.88,12.94-11.67,12.49-8.14-.37-13.43-1.18-12.82-11.4.72-12.04.8-12.79,13.33-12.8Z"/>
      <path d="M988.86,982.45c-8.28,1.54-11.51-2.58-11.08-11.79.54-11.6.81-11.75,12.54-12.48,9.75-.61,12.1,3.79,11.76,12.42-.42,10.84-1.03,11.8-13.21,11.84Z"/>
      <path d="M721.92,138.23c.03-11.33.61-11.26,12.89-12,10.31-.62,10.94,4.8,11.34,12.88.5,9.99-4.23,11.87-12.68,11.48-10.62-.48-11.58-1.17-11.55-12.36Z"/>
      <path d="M222.13,606.4c11.27.01,11.27.7,11.98,12.89.6,10.32-4.88,10.84-12.86,11.23-9.85.48-11.91-4.06-11.5-12.57.51-10.65,1.11-11.56,12.38-11.54Z"/>
      <path d="M860.82,502.49c-7.98,1.45-11.51-2.22-11.03-11.55.61-11.92.8-12.66,12.09-12.63,11.14.03,12.08,1.02,12.06,12.66-.01,10.95-.61,11.52-13.12,11.52Z"/>
      <path d="M477.67,990.38c11.58-.03,11.99.75,12.43,12.34.32,8.51-2.52,11.96-11.48,11.64-7.98-.28-13.51-.76-12.94-11.09.66-11.98.86-12.86,11.99-12.89Z"/>
      <path d="M1001.85,872.99c0,12.82-.69,13.02-12.46,13.65-9.73.52-11.51-3.95-11.7-12.61-.21-9.51,3.28-12,12.28-12,9.08,0,13.53,2.53,11.88,10.96Z"/>
      <path d="M862.96,630.3c-12.62,0-12.59-.53-13.18-12.78-.44-9.1,3.27-11.68,11.78-11.28,11.45.53,12.14,1.16,12.6,12.52.37,9.21-3.11,13.22-11.2,11.54Z"/>
      <path d="M223.15,734.39c8.07-1.54,11.05,2.49,11.02,11.71-.02,8.78-2.25,12.89-11.76,12.44-11.57-.54-12.55-1-12.53-12.41.02-10.92.8-11.69,13.27-11.75Z"/>
      <path d="M989.56,630.02c-9.76,1.93-11.82-2.96-11.88-11.75-.06-9.06,2.8-12.58,12.09-12.04,11.3.66,11.73,1.06,12.3,12.75.47,9.61-3.66,12.71-12.51,11.05Z"/>
      <path d="M734.48,862.5c9.78-1.9,11.57,3.27,11.68,11.85.11,8.82-2.34,12.78-11.77,12.24-11.85-.67-12.05-.97-12.63-13.2-.47-9.88,4.21-12.24,12.72-10.9Z"/>
      <path d="M593.87,360.89c-1.68-8.74,3.51-10.56,12.17-10.65,9.09-.09,12.2,2.97,12.19,12.15-.01,9.04-2.71,12.69-12.03,12.22-11.57-.59-12.36-.9-12.32-13.73Z"/>
      <path d="M745.74,969.88c1.32,8.72-1.27,13.31-11.18,12.74-11.9-.68-12.18-.88-12.84-12.26-.54-9.26,2.79-12.34,12.04-12.22,8.72.12,13.78,2,11.99,11.74Z"/>
      <path d="M829.99,990.61c9.61-1.94,12.11,2.57,12.2,11.55.09,8.93-2.39,12.67-11.83,12.16-11.84-.65-11.97-.65-12.47-12.33-.39-9.13,2.74-13.35,12.1-11.37Z"/>
      <path d="M252.5,606.34c12.56.02,12.99.93,13.54,12.57.42,8.76-2.77,11.92-11.52,11.51q-12.11-.57-12.72-12.1c-.47-9,2.21-13.59,10.7-11.99Z"/>
      <path d="M1001.92,748.22c1.66,9.32-4.45,10.04-12.59,10.36-9.72.38-12-3.88-11.52-12.54.6-11.04,1.03-11.78,13.17-11.65,10.18.11,11.09,1.16,10.94,13.83Z"/>
      <path d="M700.74,982.46c-8.49,1.75-10.94-3.01-10.89-11.87.05-8.5,1.89-13.06,11.71-12.43,11.64.75,12.42.91,12.35,12.53-.06,11.02-.83,11.77-13.18,11.76Z"/>
      <path d="M382.28,734.56c9.32-1.82,12.11,2.89,11.69,11.77-.54,11.47-.91,12.15-12.73,12.01-11.12-.13-10.95-.56-11.47-13.27-.39-9.54,4.13-11.73,12.51-10.51Z"/>
      <path d="M607,702.57c8.14-1.63,11.24,2.42,11.22,11.59-.02,8.68-2.11,12.77-11.79,12.42-8.24-.3-13.32-1.2-12.73-11.37.7-12.1.46-12.51,13.3-12.64Z"/>
      <path d="M605.73,446.7c8.85-1.5,12.95,1.61,12.38,11.28-.71,11.93-.65,11.79-12.41,12.52-9.47.59-12.04-3.08-12.05-12.07-.01-9.02,2.49-13.51,12.08-11.74Z"/>
      <path d="M713.93,747.51c1.61,8.11-2.37,11.39-11.63,10.95-11.57-.55-11.83-.68-12.38-12.49-.39-8.41,2.13-12.2,11.25-11.72,12.09.64,12.68.65,12.76,13.27Z"/>
      <path d="M956.47,470.34c-8.88,1.89-10.49-3.51-10.72-12.05-.25-9.26,3.05-12.23,12.16-12.08,8.73.14,12.87,2.29,12.24,11.96-.79,11.98-.42,12.22-13.68,12.18Z"/>
      <path d="M701.26,374.43c-10.83-.05-10.74-.64-11.35-13.36-.47-9.74,4.42-10.97,12.27-10.64,11.4.47,11.78.58,11.71,12.97-.06,10.63-.58,11.09-12.63,11.03Z"/>
      <path d="M606.54,382.78c10.03-2.17,11.43,3.46,11.68,11.89.29,9.42-3.3,12.32-12.35,11.74-11.66-.74-11.6-.74-12.16-12.76-.47-9.9,4.05-12.5,12.83-10.88Z"/>
      <path d="M381.79,630.07c-9.52,1.77-12.19-2.49-12.11-11.62.08-8.85,2.33-12.81,11.89-12.24,11.63.7,11.72.73,12.37,12.55.52,9.42-3.08,13.07-12.15,11.31Z"/>
      <path d="M956.68,406.23c-7.91,1.41-11.27-2.2-10.89-11.06.52-12.05.69-12.68,12.09-12.65,11.71.03,12.14.48,12.07,12.53-.06,10.7-.64,11.22-13.27,11.18Z"/>
      <path d="M605.23,918.16c-6.49.8-12.13-.24-11.48-10.23.47-7.21-.81-14.37,10.34-13.57,7.48.53,14.76-.99,14.03,10.8-.75,12.31-.43,12.81-12.9,13Z"/>
      <path d="M809.69,492.41c2.12,9.52-4.33,9.82-12.33,10.31-10.17.62-11.12-4.4-11.34-12.68-.25-9.29,2.96-12.44,12.11-11.86,11.4.73,11.63.48,11.56,14.23Z"/>
      <path d="M1033.64,491.83c1.93,8.48-2.77,10.83-11.66,10.93-9.02.1-12.39-2.59-12.06-12.02.3-8.37,1.41-13.2,11.47-12.58,11.95.75,12.25.41,12.26,13.67Z"/>
      <path d="M681.64,489.66c.07,12.6-.12,12.37-11.65,12.94-8.31.41-12.32-1.69-11.91-10.98.58-12.87.38-13.27,11.34-13.3,11.63-.04,12.15.44,12.21,11.34Z"/>
      <path d="M905.42,489.9c1.43,8.32-.52,13.29-10.71,12.82-7.99-.36-13.42-.81-12.77-11.24.79-12.72.52-12.77,12.55-13.33,8.86-.41,12.57,2.86,10.93,11.74Z"/>
      <path d="M553.65,747.76c1.76,8.19-2.5,10.82-11.6,10.84-8.95.02-12.44-2.42-12.09-11.88.31-8.24,1.17-13.19,11.35-12.48,12.07.83,12.33.38,12.34,13.52Z"/>
      <path d="M349.08,510.47c12.5.07,12.39.62,13.05,12.72.54,9.97-4.26,11.55-12.58,11.17-11.3-.52-11.3-.72-11.86-12.78-.45-9.74,3.94-12.44,11.39-11.1Z"/>
      <path d="M223.27,702.55c6.01-.68,11.37.28,10.79,9.83-.46,7.54,1.02,14.82-10.82,14.15-12.54-.71-13.24-.54-13.36-11.48-.13-11.78.38-12.31,13.39-12.49Z"/>
      <path d="M959.52,702.58c7.68-1.42,10.95,2.25,10.61,11.12-.47,12.13-.5,12.09-12.07,12.78-9.05.54-12.71-2.38-12.29-11.71.51-11.44.7-12.11,13.75-12.18Z"/>
      <path d="M125.27,598.39c-11.26-.06-10.84-.31-11.56-13.16-.55-9.85,4.52-10.55,12.21-10.91,9.17-.42,12.55,2.92,12.1,12.02-.58,11.49-.82,12.12-12.75,12.06Z"/>
      <path d="M681.43,746.77c2.01,9.8-2.93,11.52-11.65,11.9-10.67.47-11.48-4.62-11.81-13.2-.4-10.11,4.46-11.09,12.65-11.34,9.81-.3,12.53,3.95,10.82,12.63Z"/>
      <path d="M220.52,470.34c-8.59,1.81-11.13-3.05-10.76-11.88.47-11.33,1.1-11.88,13.86-12.22,8.81-.23,10.71,4.06,10.42,11.8-.45,12.05-.41,12.34-13.53,12.31Z"/>
      <path d="M700.24,470.36c-9.11,1.95-10.11-3.94-10.4-12.22-.33-9.36,3.15-12.06,12.2-11.93,8.95.13,12.65,2.68,12.01,12.16-.81,11.84-.41,12.05-13.81,12Z"/>
      <path d="M489.93,169.26c0,12.79-.35,12.52-12.7,13.19-9.83.54-11.39-3.98-11.62-12.5-.27-9.87,4.06-11.44,12.64-11.58,9.26-.15,13.37,2.63,11.68,10.88Z"/>
      <path d="M477.98,821.89c-9.27,1.93-12.73-1.78-12.23-11.2.63-11.8.27-11.31,12.65-12.09,9.59-.61,11.83,3.24,11.82,12.04-.01,9.13-2.85,13.33-12.24,11.26Z"/>
      <path d="M585.62,490.98c2.09,10.07-3.44,11.47-11.96,11.74-9.58.3-12.16-3.54-11.69-12.39.61-11.53.67-11.39,12.8-12.13,10.19-.62,12.24,4.27,10.85,12.77Z"/>
      <path d="M369.93,267.36c.07-12.49.63-12.34,12.79-13.07,10.02-.6,10.91,4.23,11.32,12.44.52,10.41-4.23,11.65-12.97,11.81-9.68.17-12.62-3.63-11.14-11.17Z"/>
      <path d="M732.5,894.51c13.06.06,12.84.48,13.6,12.33.64,9.95-3.98,11.41-12.47,11.55-9.23.15-12.05-3.06-11.97-12.13.08-8.97,2.46-13.5,10.84-11.75Z"/>
      <path d="M201.45,490.82c2.16,9.9-3.04,12.11-11.72,11.79-11.41-.42-11-.32-11.7-13.05-.55-9.98,4.09-11.27,12.52-11.48,9.9-.24,12.59,3.95,10.91,12.74Z"/>
      <path d="M956.42,534.24c-8.12,1.62-10.93-2.57-10.62-11.23.43-11.91.62-11.99,12.26-12.68,9.26-.55,12.58,2.67,12.05,11.98-.66,11.68-.33,11.88-13.69,11.93Z"/>
      <path d="M498.23,489.83c-2.05-9.91,3.1-12.09,11.84-11.64,10.97.56,11.11,1.05,11.81,13.27.59,10.29-4.73,10.95-12.83,11.26-10.05.37-12.31-4.32-10.83-12.89Z"/>
      <path d="M434.2,363.17c.07-12.36.55-12.1,12.81-12.84,10.52-.63,10.59,5.05,11.04,12.88.57,10.04-4.3,11.21-12.6,11.45-9.67.28-12.73-3.64-11.26-11.5Z"/>
      <path d="M530.45,361.67c-2.34-10.17,3.56-11.03,11.84-11.36,9.65-.38,11.98,3.56,11.49,12.34-.64,11.64-.43,11.21-12.76,11.97-10.44.65-11.91-4.57-10.57-12.95Z"/>
      <path d="M713.88,395.87c2.22,9.91-4.41,10.09-12.85,10.63-10.61.68-10.89-4.92-11.17-12.76-.31-8.76,2.86-11.82,11.63-11.38,12.01.6,12.38.44,12.39,13.51Z"/>
      <path d="M733.19,213.97c-10.29,2.22-11.12-3.64-11.51-11.96-.47-9.98,3.92-11.79,12.49-11.36,11.53.58,11.25.53,11.94,12.8.59,10.41-4.64,11.93-12.92,10.51Z"/>
      <path d="M477.9,693.84c-9.45,1.93-12.67-2-12.14-11.35.67-11.74.24-11.18,12.8-11.97,9.83-.61,11.54,3.67,11.67,12.27.14,9.47-3.22,13.06-12.33,11.05Z"/>
      <path d="M351.9,542.67c9.17-2.04,9.92,3.97,10.23,12.2.36,9.73-3.82,11.96-12.52,11.47-11.44-.65-11.78-.59-11.69-12.98.08-10.45.49-10.79,13.98-10.69Z"/>
      <path d="M457.81,235.97c1.9,8.84-3.31,10.91-11.97,10.53-11.23-.5-11.38-.8-11.88-12.98-.37-8.96,3.17-11.65,11.73-11.21,11.77.61,12.18.56,12.13,13.66Z"/>
      <path d="M478.79,190.93c10.24-2.22,11.61,3.66,11.24,12.02-.49,11.02-.63,10.65-13.37,11.47-10.8.7-10.49-5.25-10.95-12.95-.63-10.43,4.78-11.85,13.09-10.54Z"/>
      <path d="M809.67,619.72c1.96,8.54-2.73,10.54-11.6,10.89-10.23.4-12.12-3.81-12.1-12.85.02-8.65,2.55-11.98,11.47-11.53,11.92.6,12.22.37,12.24,13.49Z"/>
      <path d="M988.74,1014.02c-8.15,1.58-11.16-2.22-11.06-11.55.1-8.86,2.33-12.79,11.85-12.26,11.67.66,12.44.87,12.41,12.41-.03,10.94-.47,11.35-13.2,11.39Z"/>
      <path d="M476.34,310.08c-8.86,2.03-10.91-3.3-10.59-11.91.41-11.08.62-10.84,13.17-11.67,10.38-.69,11.5,4.46,11.14,12.66-.48,10.86-.29,10.97-13.72,10.92Z"/>
      <path d="M252.99,726.34c-7.4,1.28-11.77-1.4-11.23-11.25.67-12.2.45-12.02,13.04-12.7,9.25-.5,11.49,3.62,11.17,11.82-.44,11.23-.96,12.12-12.98,12.13Z"/>
      <path d="M553.62,876.16c2.06,9.24-3.96,10.04-12.18,10.45-9.88.5-11.79-3.89-11.36-12.47.58-11.7.38-11.93,12.69-11.83,10.61.08,10.89.42,10.84,13.84Z"/>
      <path d="M732.44,830.57c13.11.11,13,.59,13.65,12.42.53,9.76-3.78,12.01-12.5,11.54-11.21-.61-11.25-.81-11.84-13.15-.45-9.37,3.65-12.01,10.69-10.81Z"/>
      <path d="M604.06,214.2c-9.25,1.99-10.61-3.92-10.26-12.24.45-10.89.71-10.8,13.36-11.44,9.47-.48,11.23,3.85,10.87,11.97-.51,11.44-.46,11.74-13.97,11.71Z"/>
      <path d="M381.09,470.03c-11.5,2.83-11.41-4.69-11.18-12.8.29-10.27,1.03-10.44,13.91-10.97,10.4-.43,9.73,5.8,10.12,12.9.53,9.68-3.71,12.75-12.85,10.86Z"/>
      <path d="M745.95,1001.2c.01,12.34-.6,12.37-12.83,13.07-9.03.51-11.73-3.02-11.37-11.57.5-11.75.65-11.74,12.45-12.45,9.42-.57,13.11,2.89,11.75,10.96Z"/>
      <path d="M201.44,747.04c2.28,10.29-3.64,11.09-11.89,11.57-10.86.63-11.23-5.01-11.61-13.37-.48-10.41,4.91-10.77,12.88-11.03,9.99-.33,12.35,4.25,10.62,12.84Z"/>
      <path d="M732.66,726.31c-8.45,1.69-10.95-2.84-11.02-11.8-.06-8.99,2.65-12.42,11.97-12.16,8.43.23,13.1,1.84,12.54,11.64-.68,11.7-.78,12.35-13.49,12.32Z"/>
      <path d="M402.42,137.77c-2.16-10.38,3.61-11.27,12.01-11.6,10.06-.39,11.71,4.19,11.3,12.65-.55,11.42-.71,11.43-12.86,11.93-10.17.42-12.06-4.68-10.45-12.97Z"/>
      <path d="M553.62,491.55c1.67,8.1-2.27,11.17-11.53,11.2-8.87.02-12.6-2.29-12.12-11.82.4-7.95.64-13.52,11.14-12.82,11.94.79,12.5.63,12.51,13.45Z"/>
      <path d="M553.6,140.27c2.13,9.15-3.74,10.69-12.07,10.37-11.04-.42-10.9-.66-11.51-13.28-.45-9.24,3.34-11.51,11.79-11.06,11.72.62,11.85.3,11.79,13.98Z"/>
      <path d="M649.66,138.61c0,11.6-.49,11.66-12.6,12.12-8.94.34-11.64-3.22-11.17-11.86.64-11.95.66-12.52,12.31-12.47,11,.05,11.45.53,11.46,12.21Z"/>
      <path d="M681.4,139.05c2.26,9.85-3.02,11.45-11.62,11.81-10.4.43-11.68-4.31-11.85-13.18-.19-9.97,4.2-11.24,12.64-11.5,10.08-.31,12.39,4.17,10.83,12.88Z"/>
      <path d="M265.81,521.22c-.04,12.62-.67,12.59-12.73,13.26-10.02.56-11.13-4.29-11.42-12.63-.34-9.84,3.91-11.46,12.52-11.63,9.44-.19,13.14,3,11.62,11Z"/>
      <path d="M223.54,542.66c8.71-1.94,10.91,3.09,10.49,11.89-.55,11.48-.41,11.22-12.99,11.83-9.02.43-11.66-3.12-11.28-11.64.52-11.76.4-12.07,13.79-12.07Z"/>
      <path d="M830.76,566.19c-12.44-.05-12.21-.53-12.92-12.99-.61-10.76,5.56-10.21,13.14-10.75,10.33-.74,10.85,4.6,11.18,12.68.42,10.06-4.14,12.36-11.41,11.06Z"/>
      <path d="M969.7,554.73c2.25,10.19-3.41,11.5-11.84,11.73-9.06.24-12.62-2.6-12.05-11.95.7-11.56.52-11.34,12.78-12,9.57-.52,13.02,3.09,11.11,12.22Z"/>
      <path d="M978.2,553.55c-2.36-10.62,4.17-10.65,12.13-11.1,9.63-.54,11.57,3.31,11.82,12.14.29,10.49-4.46,11.65-13.23,11.89-10.21.28-12.14-4.43-10.72-12.93Z"/>
      <path d="M604.23,182.24c-8.86,1.87-10.37-3.49-10.59-12.05-.25-9.48,3.41-11.73,12.31-11.81,9.11-.08,12.62,2.53,12.11,11.86-.63,11.65-.47,12-13.83,12Z"/>
      <path d="M146.12,616.64c-1.83-8.99,3.69-10.24,12.13-10.53,9.72-.33,11.93,3.73,11.43,12.42-.66,11.58-.54,11.88-12.73,11.77-10.67-.1-10.93-.39-10.83-13.66Z"/>
      <path d="M937.72,490.44c0,11.84-.34,11.62-12.18,12.27-9.59.53-11.57-3.62-11.54-12.26.03-8.58,1.96-12.89,11.53-12.37,11.71.64,12.18.61,12.19,12.36Z"/>
      <path d="M124.43,662.02c-8.55,1.84-11.13-2.86-10.67-11.78.59-11.54.44-11.02,12.92-11.91,10.4-.74,11.54,4.57,11.3,12.61-.31,10.72-.55,11.12-13.55,11.09Z"/>
      <path d="M988.42,662.01c-8.72,1.94-10.53-3.15-10.73-11.83-.22-9.29,3.02-12.33,12.12-11.81,11.6.66,12.22.76,12.12,12.53-.09,10.77-.49,11.12-13.51,11.11Z"/>
      <path d="M733.03,693.89c-10.21,2.12-11.61-3.6-11.2-12.02.54-10.97.57-10.63,13.34-11.37,10.58-.61,10.57,5.15,10.97,12.91.54,10.42-4.94,11.73-13.12,10.48Z"/>
      <path d="M861.62,693.86c-9.79,1.99-11.78-2.76-11.92-11.6-.15-9.41,3.15-12.21,12.18-11.69,11.74.67,11.54.49,12.12,12.54.47,9.72-3.69,12.58-12.38,10.76Z"/>
      <path d="M393.77,713.14c-.15,13.02-.54,12.62-12.86,13.37-11.41.7-10.73-5.91-11.15-13.77-.55-10.19,5.22-10.05,12.62-10.27,9.16-.27,13.41,2.68,11.39,10.68Z"/>
      <path d="M509.37,726.07c-10.2,2.06-11.29-3.52-11.65-11.96-.4-9.71,3.47-12.11,12.25-11.7,11.52.54,11.14.37,11.83,12.84.55,9.94-3.78,12.5-12.43,10.82Z"/>
      <path d="M297.34,747.19c2.32,10.22-3.75,10.97-11.9,11.42-10.77.6-11.13-5.05-11.56-13.43-.56-10.67,5.19-10.51,12.93-11,10.42-.65,11.85,4.69,10.54,13Z"/>
      <path d="M402.16,746.03c.05-11.33.48-11.09,12.8-11.81,10.57-.62,10.39,5.24,10.87,12.99.63,10.08-4.17,11.68-12.52,11.26-10.85-.55-11.2-.59-11.14-12.44Z"/>
      <path d="M425.65,235.95c1.87,8.63-3.18,10.36-11.87,10.75-10.55.48-11.7-4.41-11.87-13.15-.18-9.07,3.04-11.64,11.63-11.22,12.01.59,12.12.22,12.11,13.62Z"/>
      <path d="M585.62,746.5c1.89,9.43-2.39,12.47-11.51,12.01-11.51-.58-11.56-.77-12.23-12.69-.54-9.65,3.67-11.63,12.38-11.63,9.23,0,13.23,2.99,11.35,12.32Z"/>
      <path d="M585.83,233.9c-.08,12.26-.54,12-13.19,12.71-10.87.61-10.23-5.74-10.74-13.26-.7-10.32,4.84-10.88,12.87-11.13,9.92-.31,12.46,4.16,11.06,11.68Z"/>
      <path d="M626.3,233.78c-2.31-10.33,3.7-11.69,11.95-11.42,10.95.36,10.94.78,11.59,13.15.54,10.27-4.83,10.82-12.86,11.09-10.01.35-12.3-4.25-10.67-12.83Z"/>
      <path d="M479.3,254.51c7.92-1.57,11.13,2.29,10.78,11.08-.47,11.97-.76,12.25-12.13,12.76-8.77.39-12.89-2.07-12.24-11.74.79-11.78.56-12.13,13.58-12.1Z"/>
      <path d="M639.78,734.38c9.59-1.95,9.69,4.86,10.15,12.59.57,9.61-3.79,11.54-12.42,11.64-9.4.11-12.15-3.38-11.61-12.33.68-11.44.71-11.96,13.89-11.91Z"/>
      <path d="M777.4,747.05c2.26,10.05-3.45,11.27-11.81,11.55-9.45.32-12.13-3.35-11.63-12.29.67-11.84.22-11.3,12.67-12.03,10.1-.59,12.14,4.26,10.76,12.77Z"/>
      <path d="M937.72,747.63c1.8,8.39-2.65,10.92-11.64,11-8.97.08-12.33-2.61-12.13-11.91.18-8.4,1.51-13.07,11.44-12.46,12.06.74,12.31.37,12.33,13.37Z"/>
      <path d="M125.67,789.83c-9.76,1.98-12.4-2.57-11.91-11.6.64-11.65.22-10.96,12.88-11.85,10.32-.72,11.19,4.43,11.47,12.54.33,9.58-3.57,12.82-12.44,10.91Z"/>
      <path d="M862.18,766.6c11.35.02,11.23.57,11.92,12.75.6,10.43-5.04,10.58-12.92,10.99-9.93.51-11.81-4.03-11.4-12.52.53-10.88.54-11.24,12.4-11.22Z"/>
      <path d="M956.17,822.18c-9.09,1.96-9.94-3.9-10.42-12.17-.64-10.94,5.1-11.16,13.41-11.47,9.44-.36,11.3,3.7,10.93,11.92-.53,11.61-.29,11.76-13.92,11.73Z"/>
      <path d="M606.63,309.84c-8.47,1.51-13.42-.33-12.98-10.55.35-7.97.6-13.37,11.1-12.84,8.35.42,14.05.66,13.45,11.53-.46,8.3-1.48,14.08-11.57,11.87Z"/>
      <path d="M425.6,874.73c-.01,11.11-.89,11.44-12.75,11.94-9.38.4-10.82-4.07-10.93-12.18-.12-8.79,1.99-12.92,11.66-12.36,11.83.69,12.04.34,12.02,12.59Z"/>
      <path d="M734.95,310.08c-12.62-.02-12.61-.68-13.29-12.66-.59-10.45,5.09-10.52,12.97-10.94,9.92-.52,11.37,4.03,11.57,12.44.24,9.65-3.61,12.76-11.25,11.15Z"/>
      <path d="M658.25,872.41c-2.1-9.37,4.09-9.97,12.23-10.36,9.91-.47,11.21,4.11,11.44,12.57.25,9.39-3,12.43-12.07,11.95-11.31-.59-11.67-.54-11.61-14.16Z"/>
      <path d="M754.38,874.08c-2.1-9.73,2.69-11.9,11.55-12.06,9.27-.17,12.41,2.97,11.88,12.16-.68,11.73-.78,11.86-12.46,12.42-9.66.46-12.8-3.59-10.98-12.52Z"/>
      <path d="M882.16,872.56c-2-9.21,3.9-10.12,12.19-10.52,9.92-.48,11.4,3.97,11.54,12.49.15,9.1-2.62,12.58-11.96,12-11.51-.71-11.83-.5-11.77-13.97Z"/>
      <path d="M937.49,874.97c2.27,9.96-3.32,11.5-11.74,11.75-9.32.27-12.16-3.36-11.66-12.33.67-11.8.46-11.55,12.54-12.22,10.01-.56,12.36,4.13,10.86,12.81Z"/>
      <path d="M1033.63,876.15c2.03,9.2-3.91,10.69-12.21,10.4-10.81-.39-10.73-.77-11.42-13.39-.52-9.52,3.84-11.28,11.93-10.97,11.63.45,11.79.31,11.7,13.97Z"/>
      <path d="M873.66,906.74c2.15,10.16-3.49,11.43-11.93,11.66-9.13.24-12.52-2.65-11.97-11.97.69-11.67.45-11.39,12.74-12.09,9.78-.56,12.78,3.5,11.16,12.4Z"/>
      <path d="M735.31,798.79c8.15-1.78,11.26,2.31,10.75,11.54-.64,11.62-.51,11.28-13.75,12-10.02.55-10.71-4.67-10.47-12.27.36-11.07.38-11.33,13.46-11.27Z"/>
      <path d="M402.13,362.34c0-11.44.6-11.51,12.57-12.07,9.12-.43,11.43,3.44,11.05,11.82-.55,12.15-.35,12.4-12.17,12.34-10.94-.06-11.46-.61-11.46-12.09Z"/>
      <path d="M649.5,362.98c1.88,9.61-3.02,12.03-11.8,11.6-11.36-.55-11.02-.58-11.86-12.96-.7-10.34,4.55-10.96,12.62-11.33,9.85-.44,12.44,3.96,11.04,12.69Z"/>
      <path d="M658.15,360.84c-1.41-7.46,2.1-10.8,10.99-10.55,7.92.23,13.4.73,12.75,11.14-.78,12.4-.54,12.93-11.66,13-11.67.08-11.97-.23-12.08-13.59Z"/>
      <path d="M159.6,382.56c9.47-2.22,9.83,4.29,10.21,12.21.44,9.26-3.05,12.23-12.09,11.69-11.38-.68-11.68-.47-11.6-12.89.07-10.97.19-11.08,13.49-11.01Z"/>
      <path d="M265.73,393.4c-.05,12.69-.38,12.39-12.56,13.07-9.9.55-11.25-4.03-11.51-12.5-.3-9.83,3.86-11.54,12.5-11.7,9.35-.17,13.25,2.8,11.57,11.13Z"/>
      <path d="M861.48,949.95c-10.44,2.13-12-3.47-11.59-11.99.54-11.14.55-10.89,13.21-11.57,9.56-.51,10.86,4,11.04,11.98.23,9.67-3.12,13.82-12.66,11.57Z"/>
      <path d="M969.72,938.43c1.6,8.77-1.62,12.36-10.73,11.93-12.7-.6-12.51-.51-13.22-12.61-.59-10.01,4.27-11.24,12.61-11.36,9.22-.14,13.26,2.85,11.34,12.05Z"/>
      <path d="M989.69,949.88c-11.78,2.53-11.39-4.73-11.94-12.81-.75-11.01,5.92-10.07,13.25-10.67,10.36-.84,10.9,4.96,11.11,12.82.26,9.62-3.82,12.79-12.42,10.66Z"/>
      <path d="M585.85,971.48c1.58,8.1-2.18,11.6-11.56,11.11-11.47-.6-11.89-.93-12.37-12.63-.35-8.45,2.37-12.16,11.32-11.79,11.79.48,12.54.73,12.6,13.31Z"/>
      <path d="M626.05,968.82c-1.91-8.89,3.41-10.46,11.99-10.71,9.43-.27,11.93,3.3,11.88,12.23-.04,8.78-2.26,12.86-11.81,12.31-11.48-.66-12.07-.73-12.06-13.82Z"/>
      <path d="M658.46,969.68c-2.02-9.9,3.27-11.9,11.88-11.47,11.12.55,10.73.57,11.51,13.25.64,10.44-4.76,10.8-12.74,11.19-10.28.5-12-4.6-10.65-12.97Z"/>
      <path d="M754.11,968.46c-2-9.56,4.45-9.92,12.44-10.34,10.04-.54,11.14,4.42,11.35,12.7.24,9.37-3.22,12.32-12.25,11.79-11.35-.66-11.59-.43-11.54-14.14Z"/>
      <path d="M809.66,972.34c2.08,9.44-4.11,10.5-12.29,10.19-10.86-.42-10.69-.68-11.33-13.47-.48-9.6,4.03-11.16,12.04-10.82,11.31.48,11.69.56,11.58,14.1Z"/>
      <path d="M1033.64,971.91c1.66,8.35-2.86,10.69-11.83,10.78-9.27.08-12.35-3.05-11.85-12.16.64-11.6.84-12.32,12.49-12.25,10.71.07,11.21.62,11.19,13.63Z"/>
      <path d="M125.33,438.16c-6.29.78-12.37.23-11.63-10.55.52-7.54-.21-13.8,10.78-13.11,8.1.51,14.28.23,13.6,11.24-.72,11.69-.66,12.32-12.75,12.42Z"/>
      <path d="M990.58,1022.83c10.14-2.2,11.2,3.56,11.56,11.86.41,9.7-3.72,11.87-12.36,11.44-11.67-.58-11.19-.31-11.94-12.69-.62-10.28,4.41-12,12.75-10.61Z"/>
      <path d="M220.17,438.16c-9.16,2.05-10.22-3.69-10.51-12.08-.33-9.61,3.67-11.59,12.35-11.6,8.89-.01,12.72,2.27,12.03,11.86-.83,11.65-.41,11.85-13.87,11.82Z"/>
      <path d="M253.63,415.14c9.62-2.32,12.51,1.87,12.51,10.99,0,8.62-2.05,12.73-11.73,12.25-8.01-.4-13.23-.8-12.75-11.17.41-8.76,1.37-14.79,11.97-12.07Z"/>
      <path d="M348.43,438.15c-8.5,1.85-10.69-2.94-10.84-11.76-.16-9.2,2.97-12.36,12.11-11.82,11.97.71,12.26.47,12.21,12.38-.04,10.91-.37,11.22-13.49,11.2Z"/>
      <path d="M606.21,415.07c9.22-1.91,12.04,1.95,11.98,10.75-.06,8.4-1.37,13.1-11.43,12.51-12.57-.73-12.3-.32-13-11.75-.61-9.93,3.13-13.65,12.45-11.5Z"/>
      <path d="M745.63,426.2c2.03,9.95-2.68,12.24-11.55,12.18-8.52-.06-12.78-1.74-12.45-11.57.28-8.58,1.87-12.71,11.68-12.29,8.66.37,14.89,1.07,12.31,11.68Z"/>
      <path d="M989.15,437.83c-11.37,2.77-10.84-4.53-11.4-12.66-.77-11.1,5.9-9.9,13.19-10.6,10.52-1.02,10.93,4.84,11.22,12.68.36,9.78-4.16,12.44-13.01,10.58Z"/>
      <path d="M701.62,309.68c-10.54,2.56-11.36-3.37-11.83-11.6-.61-10.64,4.69-11.3,13.23-11.68,10.43-.46,10.75,4.81,11.09,12.77.42,10.04-4.05,12.41-12.49,10.51Z"/>
      <path d="M937.48,618.55c2.06,9.37-2.25,12.32-11.32,11.9-11.67-.54-11.47-.51-12.11-12.59-.51-9.55,3.47-11.71,12.21-11.77,9.34-.06,13.07,3.18,11.21,12.45Z"/>
      <path d="M777.66,617.3c-.06,12.66-.6,12.48-12.69,13.21-10.38.63-10.7-4.82-11.12-12.79-.52-9.92,3.99-11.45,12.48-11.59,9.46-.15,12.95,3.35,11.33,11.17Z"/>
      <path d="M125.59,693.86c-9.63,1.96-12.3-2.51-11.8-11.55.64-11.52.32-10.98,12.9-11.8,10.2-.66,10.97,4.2,11.26,12.49.35,9.85-3.59,12.6-12.36,10.86Z"/>
      <path d="M521.66,969.38c-.07,12.65-.69,12.56-12.83,13.25-10.48.59-10.65-5.07-11.06-12.98-.52-9.97,4.13-11.41,12.59-11.56,9.63-.18,12.74,3.73,11.31,11.29Z"/>
      <path d="M990.27,766.57c11.14,0,11.25.66,11.86,12.82.47,9.36-3.95,10.9-12.02,10.92-8.52.02-13.02-1.67-12.32-11.59.84-11.9.42-12.15,12.48-12.14Z"/>
      <path d="M605.07,1045.72c-10.14,2.23-11.66-3.51-11.29-11.89.48-10.92.77-10.7,13.37-11.44,10.62-.63,10.57,5.16,11,12.91.59,10.41-4.83,11.77-13.08,10.43Z"/>
      <path d="M733.46,1045.73c-9.79,2.07-11.63-2.84-11.81-11.62-.19-9.49,3.28-12.18,12.23-11.68,11.69.65,11.45.59,12.19,12.58.63,10.17-4.14,12.22-12.62,10.73Z"/>
      <path d="M476.3,950.23c-8.92,1.91-10.38-3.51-10.64-12.05-.28-9.46,3.32-11.92,12.25-11.85,8.76.07,12.83,2.11,12.16,11.82-.82,11.72-.57,12.11-13.76,12.08Z"/>
      <path d="M702.44,821.73c-10.17,2.4-12.3-2.19-12.64-11.12-.38-10.11,3.57-12.21,12.76-12.14,8.65.07,11.77,2.49,11.54,11.42-.23,8.81-1.2,15-11.66,11.84Z"/>
      <path d="M169.59,492.3c1.99,9.16-3.88,10.15-12.17,10.44-9.72.35-11.44-3.91-11.58-12.53-.15-9.25,2.86-12.53,12.04-12.04,11.35.61,11.77.59,11.71,14.13Z"/>
      <path d="M510.24,862.53c9.91-2.03,11.96,3.21,11.57,11.88-.51,11.44-.83,11.48-12.79,12.15-10.12.57-11.08-4.45-11.25-12.7-.19-9.46,3.31-13.01,12.47-11.33Z"/>
      <path d="M255.47,542.64c8.68-1.98,10.37,3.21,10.54,11.85.18,9.16-2.84,12.11-12.03,11.97-8.73-.13-12.82-2.05-12.23-11.72.73-11.9.3-12.09,13.72-12.11Z"/>
      <path d="M585.6,874.73c2.04,9.8-3.04,11.85-11.74,11.97-9.13.13-12.43-3.06-11.92-12.22.65-11.62.73-11.73,12.61-12.34,9.71-.5,12.71,3.73,11.05,12.6Z"/>
      <path d="M253.06,638.54c12.23.06,12.41.91,13,12.95.52,10.53-5.46,10.24-13.12,10.72-10.17.64-11-4.37-11.26-12.58-.31-9.87,3.94-12.47,11.38-11.09Z"/>
      <path d="M713.85,905.69c.08,12.16-.19,12.04-12.03,12.59-8.19.38-12.34-1.56-11.92-10.88.56-12.34.4-12.77,11.73-12.84q12.14-.07,12.22,11.13Z"/>
      <path d="M511.33,246.37c-12.95.04-12.84-.4-13.52-12.26-.54-9.39,3.14-11.87,12.08-11.92,9.17-.05,12.29,2.98,12.06,12.09-.21,8.42-1.63,14.01-10.61,12.1Z"/>
      <path d="M713.9,266.97c-.04,11.01-.5,10.91-13.22,11.46-8.59.37-11.17-2.95-10.77-11.1.62-12.6.58-12.93,12.85-12.83,10.82.09,11.19.49,11.14,12.47Z"/>
      <path d="M841.68,650.86c2.46,11.19-4.68,10.89-12.8,11.44-10.53.72-10.64-5.07-11.07-12.82-.56-10.09,4.59-10.96,12.77-11.19,9.63-.28,12.79,3.49,11.1,12.57Z"/>
      <path d="M830.15,894.77c9.67-2.06,12.33,2.55,11.9,11.52-.57,11.6-.51,11.3-12.69,12.05-9.93.61-11.46-3.92-11.57-12.42-.12-9.37,3.18-13.09,12.37-11.14Z"/>
      <path d="M958.63,670.99c10.23-2.15,11.26,3.47,11.56,11.9.36,9.89-3.94,11.76-12.49,11.33-11.52-.57-11.28-.5-11.9-12.8-.52-10.26,4.58-11.94,12.83-10.43Z"/>
      <path d="M457.54,874.58c2.11,9.72-2.72,11.9-11.54,12.04-9.09.14-12.52-2.76-12-12.04.66-11.74.8-11.91,12.5-12.45,9.56-.44,12.88,3.45,11.05,12.46Z"/>
      <path d="M841.7,778.6c2.01,9.77-2.93,11.68-11.72,11.77-8.92.09-12.69-2.39-12.18-11.75.64-11.73.52-11.51,12.55-12.19,9.46-.54,13.08,2.96,11.35,12.17Z"/>
      <path d="M457.8,139.16c-.08,10.8-.97,11.01-13.29,11.55-9.9.44-10.3-4.9-10.57-12.49-.32-9.11,2.67-12.59,12.04-11.97,11.62.77,11.91.51,11.81,12.91Z"/>
      <path d="M393.51,1003.18c2.66,11.32-5.06,10.56-12.87,11.1-9.56.66-11.17-3.98-10.8-12.06.53-11.51.54-11.24,12.82-12.02,10.16-.65,12.19,4.24,10.86,12.98Z"/>
      <path d="M477.96,830.94c9.26-1.87,12.27,2.07,12.21,11.32-.05,8.78-2.1,12.87-11.78,12.29-11.89-.71-12.08-.77-12.66-12.3-.47-9.33,2.97-13.14,12.22-11.31Z"/>
      <path d="M860.39,726.3c-7.88,1.47-11.06-2.26-10.62-11.13.6-12.22.48-12.06,12.13-12.68,9.01-.48,12.66,2.41,12.13,11.78-.66,11.52-.71,12.08-13.63,12.03Z"/>
      <path d="M873.9,522.26c0,11.46-.67,11.52-12.59,12.2-9.74.55-11.52-3.8-11.65-12.42-.15-9.48,3.42-12.24,12.4-11.72,11.3.65,11.84.67,11.84,11.94Z"/>
      <path d="M381.1,213.89c-11.62,2.97-10.7-4.74-11.35-12.66-.91-11.04,5.71-10.09,13.1-10.68,10.43-.84,10.84,4.82,11.13,12.79.36,9.89-4.05,12.42-12.88,10.55Z"/>
      <path d="M617.68,842.43c1.73,9.32-2.18,12.42-11.47,12.23-8.5-.18-13.07-1.8-12.48-11.64.7-11.71.77-11.91,12.39-12.49,9.11-.45,13.42,2.48,11.56,11.9Z"/>
      <path d="M286.5,598.15c-8.77,1.66-13.04-1.02-12.51-10.9.67-12.58.28-12.34,11.76-12.91,8.9-.44,12.59,2.29,12.07,11.76-.44,8-.75,14.41-11.32,12.05Z"/>
      <path d="M1021.65,1013.88c-9.68,2.04-11.56-2.75-11.77-11.53-.24-9.93,3.51-12.05,12.77-12.26,10.29-.24,10.94,4.72,11.27,12.73.39,9.48-3.29,12.81-12.27,11.06Z"/>
      <path d="M701.18,693.85c-10.23,2.29-11.07-3.66-11.39-11.87-.38-9.6,3.62-11.92,12.35-11.42,11.58.66,11.25.5,11.91,12.75.55,10.24-4.48,12-12.87,10.53Z"/>
      <path d="M777.67,459.86c1.8,8.45-2.78,11.06-11.78,10.61-11.78-.58-11.25-.17-11.97-12.64-.52-9.01,2.96-11.86,11.45-11.61,11.54.34,12.3.77,12.3,13.64Z"/>
      <path d="M905.63,585.33c-.07,12.91-.37,12.43-12.62,13.27-10.54.72-10.65-4.82-11.14-12.73-.62-9.95,3.94-11.49,12.38-11.63,9.32-.16,13.09,3.15,11.39,11.09Z"/>
      <path d="M381.21,821.86c-11.15,2.75-10.97-4.2-11.51-12.52-.71-10.95,5.51-10.19,13.05-10.77,10.18-.78,11.07,4.21,11.25,12.47.22,9.72-3.72,12.69-12.8,10.82Z"/>
      <path d="M862.24,382.55c11.15.03,11.16.72,11.85,12.86.6,10.42-5.07,10.78-12.96,11.04-8.89.29-11.79-3.03-11.37-11.68.57-11.69.68-12.26,12.48-12.22Z"/>
      <path d="M841.7,842.81c1.94,9.89-3.19,11.68-11.85,11.8-9.08.13-12.54-2.75-12.02-12,.66-11.57.62-11.49,12.67-12.1,9.55-.49,12.86,3.36,11.2,12.3Z"/>
      <path d="M702.89,1045.97c-12.67-.04-12.49-.39-13.03-12.6-.4-9.18,3.56-11.32,11.87-10.93,12.03.58,11.64.37,12.31,13.34.52,10.02-4.68,11.12-11.15,10.19Z"/>
      <path d="M393.53,395.2c2.13,10.27-3.75,11.33-12.04,11.32-8.29-.01-12.25-2.12-11.73-11.37.7-12.45.32-12,13.05-12.79,10.4-.65,11.92,4.61,10.72,12.85Z"/>
      <path d="M1033.66,456.87c0,13.32-.19,12.9-12.11,13.67-9.69.62-11.57-3.5-11.64-12.2-.07-9,2.37-12.27,11.85-12.05,8.83.21,13.72,1.95,11.9,10.59Z"/>
      <path d="M425.58,393.66c-.03,12.46-.4,12.21-12.87,12.83-9.57.48-10.97-4.19-10.65-12.07.46-11.79.34-11.37,12.54-12.07,9.98-.57,12.41,3.91,10.99,11.31Z"/>
      <path d="M553.61,396.4c2.17,9.63-4.36,10.25-12.34,9.96-11.11-.41-10.68-.44-11.28-14.26-.47-10.87,6.21-9.67,12.98-9.56,10.59.18,10.79.38,10.65,13.86Z"/>
      <path d="M297.35,522.78c2.17,9.74-2.61,12.12-11.51,11.65-11.58-.62-11.13-.39-11.88-12.78-.6-10.06,4.19-11.16,12.53-11.43,9.85-.33,12.57,3.76,10.86,12.56Z"/>
      <path d="M638.8,382.79c11.51-2.67,10.42,5.31,11.05,13.02.88,10.72-5.41,10.24-13.03,10.7-10.46.63-10.6-5.01-10.99-12.9-.5-10.07,4.11-12.32,12.97-10.81Z"/>
      <path d="M702.64,726.33c-12.12-.09-12.16-.85-12.86-13.21-.61-10.75,5.79-10.27,13.23-10.75,10.2-.66,10.8,4.86,11.1,12.89.37,10.02-4.23,12.33-11.48,11.07Z"/>
      <path d="M754.13,841.04c-1.57-7.71,1.85-10.99,10.89-10.49,12.67.7,12.2.24,12.8,12.64.43,8.94-2.92,11.75-11.54,11.35-11.79-.55-12.16-.47-12.14-13.5Z"/>
      <path d="M713.64,1002.9c2.22,10.21-3.67,11.27-11.95,11.36-8.22.09-12.32-1.83-11.85-11.06.64-12.34.71-12.4,12.84-13.01,9.8-.49,12.56,3.88,10.96,12.7Z"/>
      <path d="M383.43,286.73c9.64-2.55,10.18,3.92,10.54,12.51.39,9.29-3.29,11.14-11.67,11.06-8.36-.08-13.19-1.21-12.54-11.32.78-12.15.21-12.24,13.67-12.24Z"/>
      <path d="M380.47,694.07c-8.59,1.82-11.14-2.79-10.64-11.79.64-11.47.43-11.17,12.89-11.78,9.02-.44,11.62,2.88,11.11,11.55-.72,12.04-.22,12.07-13.36,12.02Z"/>
      <path d="M370.36,905.76c-2.97-12.18,5.15-10.76,12.84-11.43,10.97-.95,10.17,5.7,10.75,13.14.84,10.66-5.25,10.58-13,10.88-9.81.38-12.71-3.84-10.6-12.59Z"/>
      <path d="M703.24,318.79c7.43-1.35,11.29,1.43,10.79,10.76-.67,12.43-.36,12.23-11.84,12.87-8.73.48-12.86-1.81-12.32-11.44.67-11.79.47-12.16,13.37-12.18Z"/>
      <path d="M1033.25,841.85c2.14,9.92-1.83,12.87-11.09,12.81-8.76-.05-12.58-2.1-12.25-11.75.28-8.31,1.21-13.07,11.3-12.5,8.48.48,15.32.66,12.04,11.44Z"/>
      <path d="M926.48,702.87c9.41-1.97,11.64,2.48,11.46,11.01-.17,8.05-.78,13.03-11.15,12.74-9.11-.25-12.87-2.01-12.86-12.12.01-9.94,3.27-13.46,12.55-11.63Z"/>
      <path d="M274.14,458.54c-.02-11.83.26-11.68,12.34-12.21,8.72-.38,11.74,2.65,11.24,11.51-.71,12.46-.15,12.49-12.03,12.49q-11.53,0-11.55-11.8Z"/>
      <path d="M585.52,842.49c2.11,10.49-3.35,11.9-11.84,12.15-9.47.28-11.61-3.41-11.87-12.25-.29-10.2,4.02-11.99,12.93-12.03,9.54-.04,12.96,3.47,10.78,12.13Z"/>
      <path d="M274.14,712.61c-2.68-10.06,4.65-9.67,12.75-10.28,10.64-.81,10.59,5.09,10.93,12.84.39,8.93-2.91,11.72-11.57,11.3-11.9-.58-12.09-.29-12.11-13.86Z"/>
      <path d="M914.24,1000.86c-1.66-8.35,2.69-11.14,11.79-10.6,11.5.68,11.17.45,11.88,12.81.52,9.11-2.95,11.63-11.5,11.17-12.13-.65-12.23-.31-12.17-13.39Z"/>
      <path d="M425.59,716.53c2.54,10.38-5.18,9.33-13.06,9.99-11.21.93-10.12-5.96-10.53-13.19-.47-8.25,2.53-11.28,10.9-10.9,12.53.58,12.76.37,12.68,14.1Z"/>
      <path d="M329.71,395.8c2.11,8.89-3.29,10.49-11.79,10.7-9.02.23-12.27-2.72-12.07-11.92.19-8.48,1.82-12.9,11.65-12.24,12.14.81,12.21.22,12.21,13.46Z"/>
      <path d="M585.85,458.88c-.08,11.4-.32,10.9-12.96,11.67-10.73.65-11.11-5.24-10.85-13.04.36-10.64.98-11.32,13.55-11.17,9.46.11,10.34,1.18,10.26,12.55Z"/>
      <path d="M669.26,1013.9c-9.09,1.83-11.62-2.51-11.23-11.03.57-12.42.42-11.95,13.01-12.68,10.69-.62,10.35,5.45,10.87,13.02.69,10.1-4.28,12.04-12.65,10.7Z"/>
      <path d="M585.81,714.31c-.02,11.93-.15,11.55-12.47,12.17-8.9.45-11.86-2.77-11.39-11.52.66-12.37.23-12.39,13.13-12.39,10.35,0,10.75.44,10.73,11.73Z"/>
      <path d="M329.47,714.71c2.15,10.11-3.15,12.1-11.74,11.72-11.16-.49-11.12-.75-11.8-12.91-.57-10.15,4.65-11.02,12.72-11.19,9.46-.2,12.85,3.51,10.82,12.38Z"/>
      <path d="M882.43,393.83c-2.4-10.59,3.62-11.71,11.88-11.38,11.07.44,10.95.58,11.57,13.09.46,9.39-3.86,10.73-11.96,10.97-9.94.3-13.6-3.26-11.49-12.67Z"/>
      <path d="M668.28,726.3c-10.11,2.59-9.76-4.8-10.29-12.84-.62-9.32,3.57-10.99,11.72-11.14,8.73-.16,12.77,1.98,12.19,11.6-.72,12.08-.41,12.37-13.62,12.38Z"/>
      <path d="M1010.16,712.54c-1.74-8.25,3.07-10.37,11.33-10.08,11.92.43,11.67.38,12.33,12.27.52,9.29-2.86,12.29-11.97,11.73-11.46-.71-11.72-.43-11.69-13.91Z"/>
      <path d="M509.81,342.01c-9.79,1.96-12.43-2.58-11.93-11.58.64-11.53.44-11.1,12.76-11.88,10.11-.64,11.24,4.35,11.37,12.49.15,9.2-3.09,13.15-12.2,10.97Z"/>
      <path d="M381.73,342c-9.77,2-11.71-2.6-12.08-11.53-.44-10.56,4.3-11.56,12.98-11.99,10.18-.49,11.23,4.35,11.39,12.52.19,9.31-3.18,13.11-12.29,11Z"/>
      <path d="M572.88,693.85c-10.76,2.64-10.39-4.24-10.97-11.99-.76-10.03,3.78-11.71,12.32-11.28,11.53.58,11.04.34,11.81,12.9.65,10.7-5.01,11.55-13.16,10.37Z"/>
      <path d="M370.24,554.18c-2.29-9.91,2.83-11.65,11.52-11.75,8.84-.11,12.75,2.18,12.17,11.72-.71,11.73-.51,11.63-12.53,12.21-9.31.45-13.2-2.85-11.16-12.18Z"/>
      <path d="M574.62,766.8c9.85-2.09,11.2,3.25,11.47,11.8.31,9.6-3.39,12.12-12.22,11.65-11.79-.62-11.39-.36-11.96-13.62-.43-10.06,4.99-10.91,12.71-9.83Z"/>
      <path d="M329.5,522.82c2.25,9.79-2.83,12.01-11.56,11.64-11.46-.49-11.23-.52-11.92-12.78-.56-9.85,3.93-11.29,12.43-11.45,9.68-.19,12.74,3.59,11.05,12.59Z"/>
      <path d="M809.39,394.24c2.19,9.86-2.32,12.16-11.3,12.26-9.02.1-12.33-2.47-12.12-11.8.19-8.44,1.54-12.74,11.48-12.46,9.09.26,14.44,1.84,11.94,11.99Z"/>
      <path d="M575.44,286.71c8.7-1.93,10.96,3.02,10.53,11.83-.55,11.48-.31,10.98-12.83,11.77-10.15.64-11.55-4.25-11.18-12.52.49-10.96.32-11.12,13.48-11.09Z"/>
      <path d="M329.73,587.25c1.45,7.55-1.34,11.81-11.13,11.3-11.89-.62-11.91-.57-12.61-12.17-.55-9.09,2.55-12.52,11.78-12.02,11.29.62,11.89.68,11.96,12.88Z"/>
      <path d="M937.49,523.33c2.44,10.73-4.41,10.64-12.16,11.16-9.92.67-11.67-3.99-11.23-12.47.59-11.43.45-11.05,12.94-11.73,10.5-.57,11.77,4.82,10.45,13.04Z"/>
      <path d="M402.43,1001.66c-2.48-10.66,3.92-11,12.46-11.52,11.81-.73,10.19,6.45,10.88,13.86,1.08,11.48-6.56,9.53-13.4,10.19-9.88.96-11.23-4.44-9.95-12.53Z"/>
      <path d="M329.44,459.1c2.97,11.11-4.13,10.9-12.4,11.48-10.62.75-10.67-4.98-11.07-12.82-.5-9.8,3.89-11.38,12.47-11.48,9.6-.12,12.87,3.49,11,12.83Z"/>
      <path d="M509.34,309.8c-10.34,2.4-11.29-3.34-11.62-11.69-.38-9.61,3.45-11.6,12.23-11.69,9.09-.09,12.08,2.69,12.1,11.87.03,9.72-3.13,13.7-12.72,11.51Z"/>
      <path d="M447.21,470.33c-12.72.02-12.59-.35-13.22-12.57-.45-8.82,2.74-11.84,11.47-11.38,11.87.62,11.9.66,12.48,12.33.46,9.11-2.38,13.45-10.74,11.62Z"/>
      <path d="M809.27,1002.39c2.65,11.18-3.78,11.43-11.76,11.93-9.77.61-11.49-3.62-11.57-12.22-.08-9.13,2.9-12.06,12.07-12.01,9.69.06,14.06,2.84,11.26,12.29Z"/>
      <path d="M905.58,457.38c-.05,12.98-.16,12.37-12.54,13.16-10.36.65-10.75-4.61-11.14-12.65-.49-9.85,3.75-11.51,12.36-11.59,9.39-.09,13.09,3.12,11.32,11.09Z"/>
      <path d="M1033.36,522.66c2.37,9.76-2.76,12.11-11.42,11.84-11.24-.35-11.16-.7-11.95-12.78-.65-9.97,3.91-11.27,12.36-11.52,9.67-.28,12.85,3.37,11.01,12.46Z"/>
      <path d="M681.36,842.67c2.24,9.72-2.53,11.89-11.37,11.99-9,.11-12-2.61-12.08-11.91-.08-9.66,2.78-12.53,12.43-12.4,9.42.13,13.04,3.12,11.01,12.31Z"/>
      <path d="M1010.48,585.48c-2.55-10.99,4.62-10.51,12.17-11.17,11.22-.98,10.76,5.63,11.21,13.54.56,9.81-4.41,10.38-12.2,10.76-10.45.51-12.94-4.16-11.18-13.13Z"/>
      <path d="M445.68,726.08c-10.03,2.05-11.5-3.24-11.76-11.81-.27-9.32,2.86-12.35,11.98-11.81,11.75.69,11.43.43,12.07,12.63.51,9.67-3.44,12.76-12.3,10.98Z"/>
      <path d="M893.27,726.06c-10.19,2.23-10.9-3.53-11.38-11.83-.6-10.56,4.28-11.49,12.95-11.86,10.54-.45,10.66,4.96,11.01,12.86.44,9.84-3.81,12.52-12.58,10.84Z"/>
      <path d="M905.33,555.14c2.38,10.32-3.7,10.83-11.83,11.34-10.72.67-11.16-4.73-11.65-13.16-.62-10.81,5.29-10.35,12.89-10.87,10.22-.7,12.08,4.25,10.58,12.7Z"/>
      <path d="M777.34,650.41c2.27,9.47-2.22,11.76-11.18,11.92-9.52.17-12.47-2.77-12.4-12.44.07-9.57,3.6-11.55,12.33-11.59,9.13-.05,13.27,2.6,11.25,12.11Z"/>
      <path d="M169.29,650.93c2.55,10.68-3.85,10.94-11.84,11.37-9.56.51-11.56-3.36-11.64-12.12-.09-9.19,2.89-11.86,11.98-11.94,9.86-.09,13.54,3.23,11.5,12.69Z"/>
      <path d="M754.38,522c-2.11-10.09,3.24-11.5,11.78-11.77,9.51-.3,12.12,3.27,11.64,12.16-.63,11.62-.53,11.5-12.61,12.07-9.69.46-12.68-3.7-10.81-12.47Z"/>
      <path d="M553.36,778.92c2.4,10.22-3.46,11.08-11.73,11.42-9.46.39-11.52-3.21-11.74-12.06-.26-10.13,3.63-11.9,12.78-12.01,10.01-.12,12.34,4,10.7,12.66Z"/>
      <path d="M636.47,790.1c-8.72,1.89-10.53-3.06-10.65-11.81-.13-9.07,2.59-12.07,11.84-12.01,8.81.06,12.67,2.23,12.21,11.62-.58,11.69-.58,12.2-13.4,12.2Z"/>
      <path d="M681.33,778.72c2.47,10.52-3.56,11.15-11.7,11.66-10.57.66-11.44-4.42-11.7-13.04-.32-10.28,4.81-10.64,12.8-11,10.06-.46,12.33,3.98,10.6,12.39Z"/>
      <path d="M798.07,766.93c10.14-2.44,11.74,2.73,11.89,11.37.16,8.94-2.29,12.26-11.71,12.06-8.65-.18-12.54-1.91-12.29-11.58.24-9.05,1.82-14.48,12.11-11.85Z"/>
      <path d="M445.82,287.16c11.36-2.9,11.86,3.57,12.24,12.09.41,9.35-3.54,11.01-11.75,11.07-8.48.06-12.95-1.52-12.45-11.35.43-8.6,1.36-14.97,11.97-11.81Z"/>
      <path d="M905.41,843.22c2.23,10.3-3.75,10.98-11.94,11.42-10.75.58-11.15-4.91-11.61-13.33-.6-10.85,5.4-10.32,12.97-10.81,10.17-.65,12.05,4.35,10.58,12.71Z"/>
      <path d="M574.4,799.1c10.81-2.66,11.24,3.73,11.72,12.3.6,10.61-4.92,10.52-12.77,10.99-10,.6-11.33-3.97-11.49-12.4-.18-9.49,3.26-12.94,12.55-10.89Z"/>
      <path d="M626.36,810.63c-2.19-9.49,1.93-12.24,11.13-12.11,8.4.12,12.99,1.4,12.38,11.35-.75,12.23-.19,11.91-12.16,12.4-8.75.36-13.78-1.77-11.34-11.64Z"/>
      <path d="M637.19,470.05c-11.2,2.67-10.86-4.41-11.4-12.64-.7-10.72,5.29-10.56,12.97-11.1,10.3-.72,10.92,4.7,11.15,12.79.27,9.6-3.54,12.82-12.72,10.94Z"/>
      <path d="M892.95,693.78c-11.68,3.02-10.34-4.92-11.03-12.67-.98-11.07,5.69-9.94,13.01-10.59,10.61-.95,10.56,5,10.95,12.74.5,9.97-4.14,12.24-12.93,10.52Z"/>
      <path d="M572.77,918.19c-8,1.67-11.28-2.27-10.8-11.55.6-11.83.43-11.55,12.41-12.3,9.55-.6,12.08,3.24,11.6,12.11-.61,11.2-.58,11.68-13.21,11.74Z"/>
      <path d="M509.54,693.82c-10.08,2.27-11.63-2.98-11.83-11.57-.21-9.3,3.09-11.85,12.08-11.81,8.83.04,12.28,2.23,12.17,11.7-.11,9.42-2.55,14-12.42,11.68Z"/>
      <path d="M1021.14,693.82c-10.55,2.45-10.67-3.95-11.24-11.9-.77-10.87,4.95-10.96,13.18-11.47,10.84-.68,10.36,5.44,10.83,12.94.64,10.14-4.4,12.02-12.78,10.43Z"/>
      <path d="M637.88,949.94c-9.78,2.25-12.46-2.58-11.94-11.92.62-11.16.58-10.9,12.98-11.64,10.5-.63,10.75,5.14,10.97,12.88.25,8.7-2.87,12.54-12.01,10.68Z"/>
      <path d="M809.42,458.68c2.2,9.72-2.53,11.8-11.39,11.92-9.06.12-12.5-2.6-11.97-11.88.68-11.73.77-11.94,12.36-12.37,9.28-.35,13.06,3.16,10.99,12.34Z"/>
      <path d="M297.35,651.3c2.33,10.27-3.89,10.44-11.95,10.97-10.9.73-11.04-4.81-11.51-13.13-.62-10.82,5.31-10.28,12.92-10.83,10.45-.75,11.78,4.62,10.54,12.99Z"/>
      <path d="M415.31,158.67c8.71-2.01,10.44,3.05,10.57,11.76.14,8.95-2.36,12.12-11.73,12.14-9.68.02-12.86-3.04-12.16-12.62.81-11.2.29-11.31,13.32-11.27Z"/>
      <path d="M1021.95,415.1c9.53-2.32,11.74,2.14,11.98,11.09.27,9.75-3.03,12.28-12.48,12.27-9.58,0-11.48-3.64-11.51-12.3-.03-9.08,2.44-13.36,12-11.07Z"/>
      <path d="M914.51,425.49c-2.63-11.36,4.92-10.38,12.78-10.94,9.88-.7,10.21,4.33,10.68,12,.64,10.38-4.06,11.67-12.89,11.88-10.08.23-12.08-4.29-10.57-12.95Z"/>
      <path d="M457.57,170.77c2.18,10-3.17,11.43-11.7,11.69-9.3.29-11.81-2.93-12.01-11.96-.22-9.98,3.47-12.14,12.74-12.16,9.63-.01,12.76,3.49,10.97,12.42Z"/>
      <path d="M905.32,427.07c2.43,10.74-4,10.84-11.96,11.31-9.82.58-11.28-3.7-11.5-12.23-.24-9.44,3.2-11.49,12.05-11.69,10.02-.22,13.33,3.37,11.41,12.6Z"/>
      <path d="M777.27,426.25c2.49,10.79-3.36,11.93-12.12,12.19-9.9.29-11-4.23-11.33-12.54-.4-9.88,3.86-11.31,12.34-11.38,9.04-.08,13.52,2.25,11.11,11.73Z"/>
      <path d="M509.87,158.9c9.42-2.1,12.39,2.16,11.96,11.26-.55,11.69-.58,11.58-12.46,12.27-9.61.56-11.59-3.49-11.63-12.21-.04-9.16,2.67-13.3,12.13-11.33Z"/>
      <path d="M575.31,158.68c8.61-1.87,10.66,2.91,10.8,11.77.15,9.11-2.68,12.46-11.89,11.98-11.77-.62-12.2-.54-12.13-12.45.07-11.22.19-11.34,13.21-11.3Z"/>
      <path d="M626.07,168.28c-2.21-10.86,6-9.17,13.5-9.8,10.27-.87,9.79,5.2,10.31,12.4.69,9.71-3.73,11.92-12.28,11.54-11.16-.49-11.64-.65-11.53-14.14Z"/>
      <path d="M658.5,425.63c-2.69-11.44,4.78-10.49,12.7-11.07,9.91-.72,10.22,4.33,10.7,11.95.65,10.25-3.87,11.81-12.8,11.93-9.92.13-12.24-4.12-10.59-12.81Z"/>
      <path d="M681.33,170.96c2.46,10.61-3.62,11.09-11.78,11.49-9.71.47-11.3-3.56-11.62-12.18-.38-10.35,4-11.66,12.91-11.89,10.31-.27,12.1,4.35,10.49,12.58Z"/>
      <path d="M766.82,158.91c10.73-2.45,10.54,4.33,11.06,12.12.66,9.9-3.95,11.76-12.39,11.39-11.11-.5-10.77-.56-11.56-13.09-.67-10.58,4.75-11.66,12.9-10.42Z"/>
      <path d="M541.24,213.93c-10.51,2.54-10.7-3.78-11.29-11.78-.79-10.77,4.67-11.26,13.06-11.68,10.57-.53,10.46,5.12,10.85,12.9.5,10.03-4.02,12.3-12.62,10.57Z"/>
      <path d="M637.7,415.13c9.87-2.42,12.15,2.34,12.2,11.14.05,8.62-2.08,12.49-11.67,12.17-8.37-.28-12.79-1.45-12.46-11.37.3-8.85,1.46-14.64,11.92-11.93Z"/>
      <path d="M585.54,203.23c2.88,11.5-4.8,10.61-12.72,11.19-9.66.71-11.12-3.97-10.83-11.91.41-11.57.36-11.27,12.69-11.94,9.7-.52,12.7,3.52,10.86,12.65Z"/>
      <path d="M447.28,414.78c8.29-1.91,10.83,2.37,10.8,11.47-.03,8.75-2.01,12.71-11.66,12.06-12-.8-12.32-.46-12.29-12.18.03-11.23.17-11.37,13.15-11.35Z"/>
      <path d="M286.15,415.12c10.78-2.89,11.41,3.52,11.69,12.06.29,8.96-3,11.05-11.5,11.25-9.56.22-12.66-2.59-12.49-12.29.16-9.14,2.67-13.24,12.29-11.02Z"/>
      <path d="M425.33,298.57c1.78,8.78-1.45,12.17-10.54,11.69-12.69-.67-12.11-.2-12.86-12.59-.61-10.01,4.14-11.07,12.45-11.22,9.42-.16,12.98,3.1,10.95,12.11Z"/>
      <path d="M445.48,341.97c-10.55,2.48-11.35-3.66-11.49-11.81-.15-8.34,2.12-11.9,11.24-11.69,8.78.2,13.21,1.64,12.94,11.99-.25,9.65-3.07,13.72-12.69,11.51Z"/>
      <path d="M457.53,1035.24c2.81,11.6-5.16,10.23-12.85,10.93-11.02,1-10.01-5.6-10.64-12.97-.91-10.66,5.08-10.43,12.81-10.86,10.04-.56,12.29,4.06,10.68,12.9Z"/>
      <path d="M510.9,1022.79c10.49-2.34,10.46,4.29,10.97,12.1.64,9.89-3.99,10.99-12.33,11.37-10.47.48-11.54-4.3-11.78-12.98-.29-10.37,4.88-11.7,13.15-10.49Z"/>
      <path d="M765.42,342.03c-10.13,2.21-11.11-3.4-11.6-11.76-.62-10.6,4.41-11.4,12.97-11.76,10.27-.43,10.86,4.64,11.11,12.67.3,9.64-3.69,12.62-12.48,10.85Z"/>
      <path d="M681.27,1035c3.08,11.93-4.94,10.51-12.64,11.17-9.89.84-10.23-4.41-10.71-11.97-.66-10.24,3.95-11.77,12.87-11.91,9.97-.15,12.31,4.07,10.48,12.71Z"/>
      <path d="M156.94,437.87c-11.49,2.71-10.39-4.98-11.04-12.81-.94-11.16,5.82-9.8,13.08-10.52,10.89-1.07,10.31,5.21,10.83,12.79.7,10.21-4.3,12.01-12.86,10.53Z"/>
      <path d="M201.42,458.71c2.2,9.76-2.55,12.2-11.46,11.76-11.75-.57-11.18-.2-11.93-12.64-.59-9.88,3.88-11.43,12.38-11.52,9.4-.1,13.03,3.25,11.01,12.4Z"/>
      <path d="M765.8,1022.93c9.93-2.38,11.96,2.42,12.09,11.26.14,8.9-2.2,12.33-11.66,12.06-8.38-.24-12.8-1.34-12.43-11.33.33-8.9,1.58-14.59,12-11.99Z"/>
      <path d="M809.25,1034.49c2.73,11.07-3.65,11.37-11.67,11.68-8.56.33-11.77-2.24-11.68-11.09.09-8.74,1.54-13.3,11.99-12.83,9.37.42,14.21,2.49,11.36,12.24Z"/>
      <path d="M905.39,1034.5c2.22,9.66-2.62,11.42-11.36,11.75-9.93.38-12.13-3.19-12.21-12.5-.08-9.74,3.87-11.32,12.38-11.44,9.27-.13,13.08,2.91,11.19,12.19Z"/>
      <path d="M541.31,726.03c-10.56,2.39-10.98-3.78-11.37-11.89-.45-9.5,3.28-11.71,12.07-11.8,9.17-.09,11.94,2.92,11.93,12.04,0,9.65-3,13.74-12.64,11.65Z"/>
      <path d="M530.49,1001.77c-2.28-10.24,3.27-11.88,11.74-11.51,11.25.49,10.91.45,11.6,13.03.53,9.47-3.76,10.78-11.81,11.02-9.7.29-13.72-2.95-11.53-12.54Z"/>
      <path d="M777.29,778.36c2.46,10.85-3.54,11.64-11.72,11.99-9.38.4-11.73-3.13-11.75-12.06-.01-9.05,2.58-12.12,11.86-11.96,9.33.15,14.36,2.24,11.61,12.03Z"/>
      <path d="M146.43,553.7c-2.94-11.23,4.3-10.81,12.44-11.29,9.57-.57,11.13,3.92,10.85,11.88-.41,11.72-.37,11.4-12.47,12.06-9.74.54-12.65-3.52-10.82-12.65Z"/>
      <path d="M317.35,661.81c-9.05,1.92-11.67-2.43-11.37-10.88.42-11.87.59-12.41,12.06-12.4,11.45.01,11.13.4,11.91,12.6.65,10.21-4.28,12.02-12.6,10.67Z"/>
      <path d="M447.36,766.6c8.55-2,10.62,2.75,10.71,11.61.09,8.91-2.3,12.61-11.75,12.04-11.85-.72-12.28-.55-12.27-12.32,0-10.74.65-11.35,13.31-11.33Z"/>
      <path d="M798.99,638.87c12.29-2.87,10.12,5.75,10.85,13.06,1.03,10.32-5.14,9.68-12.32,10.32-10.87.97-11.17-4.82-11.53-13.14-.46-10.52,4.86-11.71,13-10.23Z"/>
      <path d="M201.43,650.75c2.02,9.47-2.52,11.33-10.95,11.54-9.39.24-12.84-2.29-12.59-12.2.24-9.05,2.85-11.86,12.03-11.88,9.83-.02,13.6,3.15,11.5,12.53Z"/>
      <path d="M764.78,821.83c-11.83,2.88-10.17-5.34-10.87-12.88-1.06-11.33,6.22-9.6,13.25-10.34,10.9-1.15,10.21,5.35,10.68,12.88.64,10.32-4.56,11.9-13.06,10.34Z"/>
      <path d="M201.39,715.31c2.84,11.46-4.83,10.56-12.73,11.21-11.06.92-10.09-5.77-10.67-13.1-.83-10.35,4.86-10.68,12.78-11.03,10-.45,12.33,4.07,10.63,12.91Z"/>
      <path d="M329.49,778.92c2.28,10.2-3.55,11.13-11.83,11.42-9.35.32-11.66-3.16-11.83-12.08-.19-10.08,3.81-11.89,12.88-11.98,9.92-.11,12.42,3.94,10.77,12.64Z"/>
      <path d="M511.4,382.56c8.92-1.89,10.28,3.54,10.52,12.02.27,9.25-2.91,12.33-11.98,11.85-11.58-.62-11.99-.55-11.93-12.67.06-10.96.37-11.24,13.39-11.2Z"/>
      <path d="M626.06,328.79c-2.12-9.28,3.99-9.96,12.12-10.28,9.32-.37,11.7,3.23,11.83,12.09.14,9.97-3.77,12.49-12.96,11.84-10.86-.77-11.05-.41-10.99-13.65Z"/>
      <path d="M201.44,778.68c2.19,9.97-3.2,11.25-11.66,11.7-10.43.56-11.56-4.15-11.89-12.9-.38-10.26,4.56-10.82,12.64-11.14,9.7-.38,12.71,3.45,10.91,12.34Z"/>
      <path d="M585.61,330.49c1.85,9.45-2.31,12.44-11.45,11.93-11.59-.64-11.59-.73-12.24-12.46-.53-9.68,3.75-11.43,12.32-11.42,8.98.01,13.39,2.5,11.37,11.95Z"/>
      <path d="M905.31,810.87c2.32,10.01-3.03,11.2-11.56,11.57-10.34.45-11.63-3.98-11.92-12.87-.34-10.35,4.61-10.81,12.66-11.08,9.61-.32,12.68,3.46,10.82,12.37Z"/>
      <path d="M766.58,190.99c10.93-2.6,10.82,4.34,11.31,12.56.7,11.52-6.2,10.3-13.85,10.85-11.49.83-9.47-6.57-10.08-13.5-.87-9.97,4.59-11.14,12.61-9.91Z"/>
      <path d="M754.36,905.79c-2.3-10.14,3.27-11.74,11.74-11.36,11.4.51,11.02.48,11.75,12.84.61,10.3-4.66,10.88-12.69,11.11-9.65.27-12.68-3.69-10.79-12.59Z"/>
      <path d="M786.48,905.62c-2.31-10.28,3.71-10.85,11.86-11.37,10.77-.69,11.12,4.75,11.64,13.15.66,10.81-5.24,10.46-12.87,10.95-10.1.64-12.09-4.29-10.63-12.73Z"/>
      <path d="M189.93,415.01c9.07-2.03,11.98,1.64,12.07,11,.09,9.56-2.75,12.31-12.37,12.52-10.62.22-11.6-4.63-11.77-13.13-.19-9.15,3.49-12.09,12.07-10.39Z"/>
      <path d="M937.41,778.42c2.56,10.36-3.09,11.68-12.01,11.94-9.79.29-11.3-3.93-11.46-12.37-.18-9.35,3.29-11.74,12.18-11.66,8.92.08,13.52,2.23,11.29,12.09Z"/>
      <path d="M1021.27,821.83c-10.78,2.54-10.87-3.93-11.33-11.86-.57-9.78,3.67-11.22,12.23-11.44,9.43-.24,11.65,3.06,11.76,11.95.12,9.88-3.29,13.48-12.66,11.35Z"/>
      <path d="M894.57,894.77c10.35-2.41,10.91,3.74,11.26,11.86.41,9.38-3.11,11.64-12.04,11.82-10.19.21-11.82-3.95-11.98-12.95-.18-10.05,4.17-12.23,12.76-10.72Z"/>
      <path d="M541.07,1045.7c-10.46,2.47-10.56-3.9-11.14-11.85-.79-10.88,4.86-11.06,13.16-11.54,10.78-.62,10.25,5.39,10.78,12.93.73,10.32-4.48,11.88-12.81,10.46Z"/>
      <path d="M158.06,766.98c10.98-2.54,11.43,3.77,11.8,11.78.44,9.44-3.34,11.61-12.15,11.64-9.13.03-11.91-2.83-11.85-11.98.06-9.59,2.65-14.04,12.2-11.44Z"/>
      <path d="M542.04,671.15c11.22-2.64,11.29,3.79,11.85,11.74.77,10.88-4.86,11.08-13.19,11.49-9.84.49-10.53-4.29-10.73-11.99-.24-9.47,2.47-14.23,12.06-11.24Z"/>
      <path d="M509.18,821.89c-10.6,2.34-10.91-3.9-11.46-11.94-.75-10.96,5.02-11.05,13.28-11.43,9.65-.45,10.57,4.07,10.88,11.95.39,9.95-3.34,13.48-12.7,11.43Z"/>
      <path d="M669.2,213.92c-10.8,2.46-10.67-4.18-11.19-11.99-.65-9.88,3.8-11.25,12.27-11.48,9.52-.25,11.47,3.42,11.66,12.17.23,10.07-3.55,13.25-12.75,11.3Z"/>
      <path d="M457.52,203.22c2.43,10.96-4.38,10.63-12.14,11.23-10.08.78-11.25-3.93-11.5-12.33-.28-9.51,3.41-11.53,12.23-11.65,10-.14,13.41,3.48,11.41,12.75Z"/>
      <path d="M425.38,201.66c1.33,8.29-.13,13.22-10.51,12.87-8.74-.3-13.43-1.33-13.01-11.8.34-8.56,1.85-12.71,11.58-12.21,8.06.41,14.28.76,11.94,11.14Z"/>
      <path d="M530.48,169.7c-2.43-10.42,3.76-10.8,11.84-11.33,10.79-.72,11.14,4.74,11.59,13.15.57,10.65-5.1,10.53-12.83,10.93-10.03.51-12.25-4.19-10.61-12.75Z"/>
      <path d="M905.37,778.69c1.94,9.27-2.26,11.89-10.87,11.54-12.2-.5-11.91-.29-12.55-12.01-.49-9.04,2.48-11.92,11.73-11.95,9.75-.03,13.62,3.01,11.68,12.42Z"/>
      <path d="M201.36,682.38c2.33,10.22-2.82,11.64-11.43,12.04-10.23.47-11.84-3.77-12.03-12.72-.22-9.94,4.21-11.12,12.53-11.21,9.27-.1,13.27,2.79,10.93,11.89Z"/>
      <path d="M201.43,555.07c2.38,10.46-3.84,10.82-11.89,11.39-10.82.76-11.15-4.79-11.6-13.15-.57-10.66,5.13-10.48,12.89-10.86,9.99-.49,12.33,4.04,10.6,12.62Z"/>
      <path class="st2" d="M222.4,186.64c8.59,0,17.19-.36,25.75.08,13.03.68,21.07,8.03,21.54,20.82.66,17.78.7,35.61.1,53.39-.43,12.68-8.37,20.84-21.19,21.38-17.77.75-35.62.68-53.4-.02-12.92-.5-20.58-8.44-20.99-21.39-.56-17.78-.52-35.61.04-53.39.39-12.46,8.06-19.96,20.49-20.73,9.19-.56,18.43-.11,27.65-.11,0-.02,0-.03,0-.05Z"/>
      <path class="st2" d="M222.66,890.53c8.26,0,16.54-.2,24.79.05,13.27.39,21.85,7.97,22.34,21.12.65,17.46.63,34.97.06,52.43-.46,14.01-9.29,22.01-23.43,22.21-16.53.23-33.06.25-49.59-.01-13.62-.21-22.32-8.21-22.74-21.77-.54-17.46-.49-34.97.09-52.43.46-13.83,8.76-21.25,22.74-21.55,8.58-.18,17.17-.03,25.75-.05Z"/>
      <path class="st2" d="M878.1,233.8c0-8.26-.2-16.53.04-24.79.39-13.4,7.94-21.88,21.06-22.28,17.79-.54,35.61-.5,53.4.05,13.06.4,21.04,9,21.27,22.14.29,16.84.25,33.69.02,50.54-.18,13.42-8.11,22.38-21.72,22.96-17.45.74-34.98.65-52.44-.04-13.85-.55-21.21-8.91-21.59-22.84-.23-8.58-.04-17.16-.06-25.74Z"/>
    </g>
  </g>
  <g id="Layer_2">
    <g>
      <rect class="st0" x="29.11" y="24.54" width="1089.74" height="1123.93" rx="108.56" ry="108.56"/>
      <rect x="399.13" y="118.77" width="24.26" height="24.93" rx="4.25" ry="4.25"/>
      <rect x="431.66" y="118.77" width="24.26" height="24.93" rx="4.25" ry="4.25"/>
      <rect x="399.13" y="151.16" width="24.26" height="24.93" rx="4.25" ry="4.25"/>
      <rect x="431.66" y="151.16" width="24.26" height="24.93" rx="4.25" ry="4.25"/>
      <rect x="464.32" y="151.16" width="24.26" height="24.93" rx="4.25" ry="4.25"/>
      <rect x="496.85" y="151.16" width="24.26" height="24.93" rx="4.25" ry="4.25"/>
      <rect x="496.85" y="281.34" width="24.26" height="24.93" rx="4.25" ry="4.25"/>
      <rect x="496.85" y="313.79" width="24.26" height="24.93" rx="4.25" ry="4.25"/>
      <rect x="496.85" y="216.16" width="24.26" height="24.93" rx="4.25" ry="4.25"/>
      <rect x="366.25" y="183.51" width="24.26" height="24.93" rx="4.25" ry="4.25"/>
      <rect x="366.25" y="248.61" width="24.26" height="24.93" rx="4.25" ry="4.25"/>
      <rect x="398.78" y="183.51" width="24.26" height="24.93" rx="4.25" ry="4.25"/>
      <rect x="431.45" y="183.51" width="24.26" height="24.93" rx="4.25" ry="4.25"/>
      <rect x="398.78" y="216.16" width="24.26" height="24.93" rx="4.25" ry="4.25"/>
      <rect x="431.45" y="216.16" width="24.26" height="24.93" rx="4.25" ry="4.25"/>
      <rect x="463.98" y="183.51" width="24.26" height="24.93" rx="4.25" ry="4.25"/>
      <rect x="463.98" y="248.61" width="24.26" height="24.93" rx="4.25" ry="4.25"/>
      <rect x="366.25" y="281.09" width="24.26" height="24.93" rx="4.25" ry="4.25"/>
      <rect x="366.25" y="313.79" width="24.26" height="24.93" rx="4.25" ry="4.25"/>
      <rect x="138.87" y="378.84" width="24.26" height="24.93" rx="4.25" ry="4.25"/>
      <rect x="236.53" y="378.84" width="24.26" height="24.93" rx="4.25" ry="4.25"/>
      <rect x="301.72" y="378.84" width="24.26" height="24.93" rx="4.25" ry="4.25"/>
      <rect x="301.72" y="443.88" width="24.26" height="24.93" rx="4.25" ry="4.25"/>
      <rect x="398.78" y="281.09" width="24.26" height="24.93" rx="4.25" ry="4.25"/>
      <rect x="366.25" y="378.84" width="24.26" height="24.93" rx="4.25" ry="4.25"/>
      <rect x="366.25" y="443.88" width="24.26" height="24.93" rx="4.25" ry="4.25"/>
      <rect x="366.25" y="541.42" width="24.26" height="24.93" rx="4.25" ry="4.25"/>
      <rect x="366.25" y="606.37" width="24.26" height="24.93" rx="4.25" ry="4.25"/>
      <rect x="366.25" y="671.7" width="24.26" height="24.93" rx="4.25" ry="4.25"/>
      <rect x="398.78" y="378.84" width="24.26" height="24.93" rx="4.25" ry="4.25"/>
      <rect x="106.57" y="411.29" width="24.26" height="24.93" rx="4.25" ry="4.25"/>
      <rect x="139.1" y="411.29" width="24.26" height="24.93" rx="4.25" ry="4.25"/>
      <rect x="171.56" y="411.29" width="24.26" height="24.93" rx="4.25" ry="4.25"/>
      <rect x="204.09" y="411.29" width="24.26" height="24.93" rx="4.25" ry="4.25"/>
      <rect x="106.57" y="476.46" width="24.26" height="24.93" rx="4.25" ry="4.25"/>
      <rect x="106.57" y="574.05" width="24.26" height="24.93" rx="4.25" ry="4.25"/>
      <rect x="139.1" y="476.46" width="24.26" height="24.93" rx="4.25" ry="4.25"/>
      <rect x="106.57" y="606.37" width="24.26" height="24.93" rx="4.25" ry="4.25"/>
      <rect x="139.1" y="606.37" width="24.26" height="24.93" rx="4.25" ry="4.25"/>
      <rect x="171.56" y="476.46" width="24.26" height="24.93" rx="4.25" ry="4.25"/>
      <rect x="106.57" y="638.96" width="24.26" height="24.93" rx="4.25" ry="4.25"/>
      <rect x="106.57" y="671.7" width="24.26" height="24.93" rx="4.25" ry="4.25"/>
      <rect x="139.1" y="638.96" width="24.26" height="24.93" rx="4.25" ry="4.25"/>
      <rect x="171.56" y="638.96" width="24.26" height="24.93" rx="4.25" ry="4.25"/>
      <rect x="106.57" y="769.06" width="24.26" height="24.93" rx="4.25" ry="4.25"/>
      <rect x="139.1" y="769.06" width="24.26" height="24.93" rx="4.25" ry="4.25"/>
      <rect x="171.56" y="769.06" width="24.26" height="24.93" rx="4.25" ry="4.25"/>
      <rect x="171.56" y="671.7" width="24.26" height="24.93" rx="4.25" ry="4.25"/>
      <rect x="204.09" y="476.46" width="24.26" height="24.93" rx="4.25" ry="4.25"/>
      <rect x="171.56" y="443.88" width="24.26" height="24.93" rx="4.25" ry="4.25"/>
      <rect x="204.09" y="443.88" width="24.26" height="24.93" rx="4.25" ry="4.25"/>
      <rect x="236.89" y="411.29" width="24.26" height="24.93" rx="4.25" ry="4.25"/>
      <rect x="139.1" y="541.42" width="24.26" height="24.93" rx="4.25" ry="4.25"/>
      <rect x="171.56" y="541.42" width="24.26" height="24.93" rx="4.25" ry="4.25"/>
      <rect x="204.09" y="541.42" width="24.26" height="24.93" rx="4.25" ry="4.25"/>
      <rect x="236.89" y="541.42" width="24.26" height="24.93" rx="4.25" ry="4.25"/>
      <rect x="204.09" y="606.37" width="24.26" height="24.93" rx="4.25" ry="4.25"/>
      <rect x="236.89" y="606.37" width="24.26" height="24.93" rx="4.25" ry="4.25"/>
      <rect x="269.42" y="411.29" width="24.26" height="24.93" rx="4.25" ry="4.25"/>
      <rect x="171.56" y="704.5" width="24.26" height="24.93" rx="4.25" ry="4.25"/>
      <rect x="204.09" y="704.5" width="24.26" height="24.93" rx="4.25" ry="4.25"/>
      <rect x="171.56" y="736.83" width="24.26" height="24.93" rx="4.25" ry="4.25"/>
      <rect x="204.09" y="736.83" width="24.26" height="24.93" rx="4.25" ry="4.25"/>
      <rect x="236.89" y="704.5" width="24.26" height="24.93" rx="4.25" ry="4.25"/>
      <rect x="269.42" y="704.5" width="24.26" height="24.93" rx="4.25" ry="4.25"/>
      <rect x="269.42" y="736.83" width="24.26" height="24.93" rx="4.25" ry="4.25"/>
      <rect x="301.86" y="704.5" width="24.26" height="24.93" rx="4.25" ry="4.25"/>
      <rect x="301.86" y="769.06" width="24.26" height="24.93" rx="4.25" ry="4.25"/>
      <rect x="236.53" y="508.79" width="24.26" height="24.93" rx="4.25" ry="4.25"/>
      <rect x="269.06" y="508.79" width="24.26" height="24.93" rx="4.25" ry="4.25"/>
      <rect x="301.86" y="508.79" width="24.26" height="24.93" rx="4.25" ry="4.25"/>
      <rect x="236.53" y="638.96" width="24.26" height="24.93" rx="4.25" ry="4.25"/>
      <rect x="269.06" y="638.96" width="24.26" height="24.93" rx="4.25" ry="4.25"/>
      <rect x="301.86" y="638.96" width="24.26" height="24.93" rx="4.25" ry="4.25"/>
      <rect x="269.06" y="574.05" width="24.26" height="24.93" rx="4.25" ry="4.25"/>
      <rect x="301.86" y="574.05" width="24.26" height="24.93" rx="4.25" ry="4.25"/>
      <rect x="334.39" y="508.79" width="24.26" height="24.93" rx="4.25" ry="4.25"/>
      <rect x="334.39" y="541.42" width="24.26" height="24.93" rx="4.25" ry="4.25"/>
      <rect x="269.42" y="443.88" width="24.26" height="24.93" rx="4.25" ry="4.25"/>
      <rect x="333.98" y="411.29" width="24.26" height="24.93" rx="4.25" ry="4.25"/>
      <rect x="431.86" y="411.29" width="24.26" height="24.93" rx="4.25" ry="4.25"/>
      <rect x="431.86" y="443.88" width="24.26" height="24.93" rx="4.25" ry="4.25"/>
      <rect x="594.93" y="411.29" width="24.26" height="24.93" rx="4.25" ry="4.25"/>
      <rect x="626.91" y="411.29" width="24.26" height="24.93" rx="4.25" ry="4.25"/>
      <rect x="594.93" y="443.88" width="24.26" height="24.93" rx="4.25" ry="4.25"/>
      <rect x="626.91" y="443.88" width="24.26" height="24.93" rx="4.25" ry="4.25"/>
      <rect x="659.38" y="411.29" width="24.26" height="24.93" rx="4.25" ry="4.25"/>
      <rect x="659.38" y="476.46" width="24.26" height="24.93" rx="4.25" ry="4.25"/>
      <rect x="724.52" y="411.29" width="24.26" height="24.93" rx="4.25" ry="4.25"/>
      <rect x="756.82" y="411.29" width="24.26" height="24.93" rx="4.25" ry="4.25"/>
      <rect x="756.82" y="443.88" width="24.26" height="24.93" rx="4.25" ry="4.25"/>
      <rect x="756.82" y="508.79" width="24.26" height="24.93" rx="4.25" ry="4.25"/>
      <rect x="919.64" y="411.29" width="24.26" height="24.93" rx="4.25" ry="4.25"/>
      <rect x="887.09" y="411.29" width="24.26" height="24.93" rx="4.25" ry="4.25"/>
      <rect x="887.09" y="443.88" width="24.26" height="24.93" rx="4.25" ry="4.25"/>
      <rect x="951.95" y="443.88" width="24.26" height="24.93" rx="4.25" ry="4.25"/>
      <rect x="951.95" y="508.79" width="24.26" height="24.93" rx="4.25" ry="4.25"/>
      <rect x="1016.98" y="443.88" width="24.26" height="24.93" rx="4.25" ry="4.25"/>
      <rect x="984.42" y="411.29" width="24.26" height="24.93" rx="4.25" ry="4.25"/>
      <rect x="1016.98" y="411.29" width="24.26" height="24.93" rx="4.25" ry="4.25"/>
      <rect x="984.42" y="476.46" width="24.26" height="24.93" rx="4.25" ry="4.25"/>
      <rect x="1016.98" y="476.46" width="24.26" height="24.93" rx="4.25" ry="4.25"/>
      <rect x="1016.98" y="508.79" width="24.26" height="24.93" rx="4.25" ry="4.25"/>
      <rect x="1016.98" y="574.05" width="24.26" height="24.93" rx="4.25" ry="4.25"/>
      <rect x="1016.98" y="671.7" width="24.26" height="24.93" rx="4.25" ry="4.25"/>
      <rect x="431.45" y="281.09" width="24.26" height="24.93" rx="4.25" ry="4.25"/>
      <rect x="366.25" y="704.5" width="24.26" height="24.93" rx="4.25" ry="4.25"/>
      <rect x="398.78" y="704.5" width="24.26" height="24.93" rx="4.25" ry="4.25"/>
      <rect x="366.25" y="736.83" width="24.26" height="24.93" rx="4.25" ry="4.25"/>
      <rect x="366.25" y="801.69" width="24.26" height="24.93" rx="4.25" ry="4.25"/>
      <rect x="366.25" y="899.35" width="24.26" height="24.93" rx="4.25" ry="4.25"/>
      <rect x="398.78" y="736.83" width="24.26" height="24.93" rx="4.25" ry="4.25"/>
      <rect x="366.25" y="996.79" width="24.26" height="24.93" rx="4.25" ry="4.25"/>
      <rect x="398.78" y="996.79" width="24.26" height="24.93" rx="4.25" ry="4.25"/>
      <rect x="431.45" y="704.5" width="24.26" height="24.93" rx="4.25" ry="4.25"/>
      <rect x="398.78" y="866.63" width="24.26" height="24.93" rx="4.25" ry="4.25"/>
      <rect x="431.45" y="866.63" width="24.26" height="24.93" rx="4.25" ry="4.25"/>
      <rect x="431.45" y="1029.1" width="24.26" height="24.93" rx="4.25" ry="4.25"/>
      <rect x="431.45" y="769.06" width="24.26" height="24.93" rx="4.25" ry="4.25"/>
      <rect x="398.78" y="346.37" width="24.26" height="24.93" rx="4.25" ry="4.25"/>
      <rect x="431.45" y="346.37" width="24.26" height="24.93" rx="4.25" ry="4.25"/>
      <rect x="431.45" y="313.79" width="24.26" height="24.93" rx="4.25" ry="4.25"/>
      <rect x="463.98" y="281.09" width="24.26" height="24.93" rx="4.25" ry="4.25"/>
      <rect x="529.73" y="183.51" width="24.26" height="24.93" rx="4.25" ry="4.25"/>
      <rect x="529.73" y="346.38" width="24.26" height="24.93" rx="4.25" ry="4.25"/>
      <rect x="562.4" y="183.51" width="24.26" height="24.93" rx="4.25" ry="4.25"/>
      <rect x="562.4" y="216.16" width="24.26" height="24.93" rx="4.25" ry="4.25"/>
      <rect x="594.93" y="183.51" width="24.26" height="24.93" rx="4.25" ry="4.25"/>
      <rect x="562.4" y="281.09" width="24.26" height="24.93" rx="4.25" ry="4.25"/>
      <rect x="562.4" y="313.79" width="24.26" height="24.93" rx="4.25" ry="4.25"/>
      <rect x="562.4" y="443.88" width="24.26" height="24.93" rx="4.25" ry="4.25"/>
      <rect x="594.93" y="281.09" width="24.26" height="24.93" rx="4.25" ry="4.25"/>
      <rect x="659.38" y="183.51" width="24.26" height="24.93" rx="4.25" ry="4.25"/>
      <rect x="529.23" y="151.16" width="24.26" height="24.93" rx="4.25" ry="4.25"/>
      <rect x="496.85" y="378.84" width="24.26" height="24.93" rx="4.25" ry="4.25"/>
      <rect x="529.23" y="378.84" width="24.26" height="24.93" rx="4.25" ry="4.25"/>
      <rect x="529.23" y="118.68" width="24.26" height="24.93" rx="4.25" ry="4.25"/>
      <rect x="561.76" y="151.16" width="24.26" height="24.93" rx="4.25" ry="4.25"/>
      <rect x="464.32" y="671.7" width="24.26" height="24.93" rx="4.25" ry="4.25"/>
      <rect x="464.32" y="736.83" width="24.26" height="24.93" rx="4.25" ry="4.25"/>
      <rect x="464.32" y="834.29" width="24.26" height="24.93" rx="4.25" ry="4.25"/>
      <rect x="464.32" y="931.33" width="24.26" height="24.93" rx="4.25" ry="4.25"/>
      <rect x="464.32" y="996.79" width="24.26" height="24.93" rx="4.25" ry="4.25"/>
      <rect x="496.85" y="671.7" width="24.26" height="24.93" rx="4.25" ry="4.25"/>
      <rect x="464.32" y="801.69" width="24.26" height="24.93" rx="4.25" ry="4.25"/>
      <rect x="496.85" y="801.69" width="24.26" height="24.93" rx="4.25" ry="4.25"/>
      <rect x="529.23" y="671.7" width="24.26" height="24.93" rx="4.25" ry="4.25"/>
      <rect x="561.76" y="671.7" width="24.26" height="24.93" rx="4.25" ry="4.25"/>
      <rect x="496.85" y="866.63" width="24.26" height="24.93" rx="4.25" ry="4.25"/>
      <rect x="496.85" y="964.47" width="24.26" height="24.93" rx="4.25" ry="4.25"/>
      <rect x="496.85" y="1029.1" width="24.26" height="24.93" rx="4.25" ry="4.25"/>
      <rect x="529.23" y="866.63" width="24.26" height="24.93" rx="4.25" ry="4.25"/>
      <rect x="529.23" y="996.79" width="24.26" height="24.93" rx="4.25" ry="4.25"/>
      <rect x="529.23" y="1029.1" width="24.26" height="24.93" rx="4.25" ry="4.25"/>
      <rect x="561.76" y="866.63" width="24.26" height="24.93" rx="4.25" ry="4.25"/>
      <rect x="496.85" y="704.5" width="24.26" height="24.93" rx="4.25" ry="4.25"/>
      <rect x="529.23" y="704.5" width="24.26" height="24.93" rx="4.25" ry="4.25"/>
      <rect x="561.76" y="704.5" width="24.26" height="24.93" rx="4.25" ry="4.25"/>
      <rect x="594.68" y="704.5" width="24.26" height="24.93" rx="4.25" ry="4.25"/>
      <rect x="659.27" y="704.5" width="24.26" height="24.93" rx="4.25" ry="4.25"/>
      <rect x="496.85" y="476.46" width="24.26" height="24.93" rx="4.25" ry="4.25"/>
      <rect x="529.23" y="476.46" width="24.26" height="24.93" rx="4.25" ry="4.25"/>
      <rect x="561.76" y="476.46" width="24.26" height="24.93" rx="4.25" ry="4.25"/>
      <rect x="594.38" y="151.16" width="24.26" height="24.93" rx="4.25" ry="4.25"/>
      <rect x="626.91" y="151.16" width="24.26" height="24.93" rx="4.25" ry="4.25"/>
      <rect x="626.91" y="216.16" width="24.26" height="24.93" rx="4.25" ry="4.25"/>
      <rect x="626.91" y="313.79" width="24.26" height="24.93" rx="4.25" ry="4.25"/>
      <rect x="659.38" y="151.16" width="24.26" height="24.93" rx="4.25" ry="4.25"/>
      <rect x="594.38" y="346.38" width="24.26" height="24.93" rx="4.25" ry="4.25"/>
      <rect x="626.91" y="346.38" width="24.26" height="24.93" rx="4.25" ry="4.25"/>
      <rect x="594.38" y="378.84" width="24.26" height="24.93" rx="4.25" ry="4.25"/>
      <rect x="626.91" y="378.84" width="24.26" height="24.93" rx="4.25" ry="4.25"/>
      <rect x="854.56" y="378.84" width="24.26" height="24.93" rx="4.25" ry="4.25"/>
      <rect x="887.09" y="378.84" width="24.26" height="24.93" rx="4.25" ry="4.25"/>
      <rect x="854.56" y="476.46" width="24.26" height="24.93" rx="4.25" ry="4.25"/>
      <rect x="854.56" y="508.79" width="24.26" height="24.93" rx="4.25" ry="4.25"/>
      <rect x="854.56" y="606.37" width="24.26" height="24.93" rx="4.25" ry="4.25"/>
      <rect x="821.99" y="541.42" width="24.26" height="24.93" rx="4.25" ry="4.25"/>
      <rect x="821.99" y="638.96" width="24.26" height="24.93" rx="4.25" ry="4.25"/>
      <rect x="887.09" y="541.42" width="24.26" height="24.93" rx="4.25" ry="4.25"/>
      <rect x="887.09" y="574.05" width="24.26" height="24.93" rx="4.25" ry="4.25"/>
      <rect x="951.95" y="541.42" width="24.26" height="24.93" rx="4.25" ry="4.25"/>
      <rect x="951.95" y="671.7" width="24.26" height="24.93" rx="4.25" ry="4.25"/>
      <rect x="1016.98" y="704.5" width="24.26" height="24.93" rx="4.25" ry="4.25"/>
      <rect x="1016.98" y="801.69" width="24.26" height="24.93" rx="4.25" ry="4.25"/>
      <rect x="1016.98" y="834.29" width="24.26" height="24.93" rx="4.25" ry="4.25"/>
      <rect x="1016.98" y="866.63" width="24.26" height="24.93" rx="4.25" ry="4.25"/>
      <rect x="1016.98" y="964.47" width="24.26" height="24.93" rx="4.25" ry="4.25"/>
      <rect x="951.95" y="704.5" width="24.26" height="24.93" rx="4.25" ry="4.25"/>
      <rect x="951.95" y="801.69" width="24.26" height="24.93" rx="4.25" ry="4.25"/>
      <rect x="951.95" y="931.33" width="24.26" height="24.93" rx="4.25" ry="4.25"/>
      <rect x="984.56" y="541.42" width="24.26" height="24.93" rx="4.25" ry="4.25"/>
      <rect x="984.56" y="606.37" width="24.26" height="24.93" rx="4.25" ry="4.25"/>
      <rect x="984.56" y="638.96" width="24.26" height="24.93" rx="4.25" ry="4.25"/>
      <rect x="887.09" y="476.46" width="24.26" height="24.93" rx="4.25" ry="4.25"/>
      <rect x="854.56" y="671.7" width="24.26" height="24.93" rx="4.25" ry="4.25"/>
      <rect x="887.09" y="671.7" width="24.26" height="24.93" rx="4.25" ry="4.25"/>
      <rect x="919.64" y="476.46" width="24.26" height="24.93" rx="4.25" ry="4.25"/>
      <rect x="854.56" y="704.5" width="24.26" height="24.93" rx="4.25" ry="4.25"/>
      <rect x="887.09" y="704.5" width="24.26" height="24.93" rx="4.25" ry="4.25"/>
      <rect x="919.64" y="704.5" width="24.26" height="24.93" rx="4.25" ry="4.25"/>
      <rect x="854.56" y="769.06" width="24.26" height="24.93" rx="4.25" ry="4.25"/>
      <rect x="887.09" y="769.06" width="24.26" height="24.93" rx="4.25" ry="4.25"/>
      <rect x="887.09" y="801.69" width="24.26" height="24.93" rx="4.25" ry="4.25"/>
      <rect x="887.09" y="834.29" width="24.26" height="24.93" rx="4.25" ry="4.25"/>
      <rect x="887.09" y="866.63" width="24.26" height="24.93" rx="4.25" ry="4.25"/>
      <rect x="919.64" y="769.06" width="24.26" height="24.93" rx="4.25" ry="4.25"/>
      <rect x="919.64" y="866.63" width="24.26" height="24.93" rx="4.25" ry="4.25"/>
      <rect x="919.64" y="996.79" width="24.26" height="24.93" rx="4.25" ry="4.25"/>
      <rect x="919.64" y="736.83" width="24.26" height="24.93" rx="4.25" ry="4.25"/>
      <rect x="984.42" y="736.83" width="24.26" height="24.93" rx="4.25" ry="4.25"/>
      <rect x="984.42" y="769.06" width="24.26" height="24.93" rx="4.25" ry="4.25"/>
      <rect x="984.42" y="866.63" width="24.26" height="24.93" rx="4.25" ry="4.25"/>
      <rect x="984.42" y="931.33" width="24.26" height="24.93" rx="4.25" ry="4.25"/>
      <rect x="951.95" y="964.47" width="24.26" height="24.93" rx="4.25" ry="4.25"/>
      <rect x="984.42" y="964.47" width="24.26" height="24.93" rx="4.25" ry="4.25"/>
      <rect x="1016.98" y="996.79" width="24.26" height="24.93" rx="4.25" ry="4.25"/>
      <rect x="984.42" y="996.79" width="24.26" height="24.93" rx="4.25" ry="4.25"/>
      <rect x="984.42" y="1029.1" width="24.26" height="24.93" rx="4.25" ry="4.25"/>
      <rect x="919.64" y="508.79" width="24.26" height="24.93" rx="4.25" ry="4.25"/>
      <rect x="919.64" y="606.37" width="24.26" height="24.93" rx="4.25" ry="4.25"/>
      <rect x="659.38" y="346.38" width="24.26" height="24.93" rx="4.25" ry="4.25"/>
      <rect x="756.9" y="151.16" width="24.26" height="24.93" rx="4.25" ry="4.25"/>
      <rect x="756.9" y="313.79" width="24.26" height="24.93" rx="4.25" ry="4.25"/>
      <rect x="789.48" y="378.84" width="24.26" height="24.93" rx="4.25" ry="4.25"/>
      <rect x="789.48" y="443.88" width="24.26" height="24.93" rx="4.25" ry="4.25"/>
      <rect x="756.82" y="606.37" width="24.26" height="24.93" rx="4.25" ry="4.25"/>
      <rect x="789.48" y="606.37" width="24.26" height="24.93" rx="4.25" ry="4.25"/>
      <rect x="756.82" y="638.96" width="24.26" height="24.93" rx="4.25" ry="4.25"/>
      <rect x="789.48" y="638.96" width="24.26" height="24.93" rx="4.25" ry="4.25"/>
      <rect x="821.99" y="769.06" width="24.26" height="24.93" rx="4.25" ry="4.25"/>
      <rect x="821.99" y="834.29" width="24.26" height="24.93" rx="4.25" ry="4.25"/>
      <rect x="789.48" y="769.06" width="24.26" height="24.93" rx="4.25" ry="4.25"/>
      <rect x="854.56" y="899.35" width="24.26" height="24.93" rx="4.25" ry="4.25"/>
      <rect x="854.56" y="931.33" width="24.26" height="24.93" rx="4.25" ry="4.25"/>
      <rect x="887.09" y="899.35" width="24.26" height="24.93" rx="4.25" ry="4.25"/>
      <rect x="887.09" y="1029.1" width="24.26" height="24.93" rx="4.25" ry="4.25"/>
      <rect x="821.99" y="899.35" width="24.26" height="24.93" rx="4.25" ry="4.25"/>
      <rect x="854.56" y="996.79" width="24.26" height="24.93" rx="4.25" ry="4.25"/>
      <rect x="821.99" y="996.79" width="24.26" height="24.93" rx="4.25" ry="4.25"/>
      <rect x="789.48" y="899.35" width="24.26" height="24.93" rx="4.25" ry="4.25"/>
      <rect x="789.48" y="476.46" width="24.26" height="24.93" rx="4.25" ry="4.25"/>
      <rect x="952.08" y="378.84" width="24.26" height="24.93" rx="4.25" ry="4.25"/>
      <rect x="756.9" y="183.51" width="24.26" height="24.93" rx="4.25" ry="4.25"/>
      <rect x="626.91" y="118.84" width="24.26" height="24.93" rx="4.25" ry="4.25"/>
      <rect x="659.38" y="118.84" width="24.26" height="24.93" rx="4.25" ry="4.25"/>
      <rect x="691.66" y="118.84" width="24.26" height="24.93" rx="4.25" ry="4.25"/>
      <rect x="691.66" y="248.74" width="24.26" height="24.93" rx="4.25" ry="4.25"/>
      <rect x="724.13" y="118.84" width="24.26" height="24.93" rx="4.25" ry="4.25"/>
      <rect x="691.66" y="281.32" width="24.26" height="24.93" rx="4.25" ry="4.25"/>
      <rect x="691.66" y="313.79" width="24.26" height="24.93" rx="4.25" ry="4.25"/>
      <rect x="691.66" y="346.24" width="24.26" height="24.93" rx="4.25" ry="4.25"/>
      <rect x="691.66" y="378.84" width="24.26" height="24.93" rx="4.25" ry="4.25"/>
      <rect x="691.66" y="443.88" width="24.26" height="24.93" rx="4.25" ry="4.25"/>
      <rect x="724.13" y="281.32" width="24.26" height="24.93" rx="4.25" ry="4.25"/>
      <rect x="691.66" y="671.7" width="24.26" height="24.93" rx="4.25" ry="4.25"/>
      <rect x="724.13" y="671.7" width="24.26" height="24.93" rx="4.25" ry="4.25"/>
      <rect x="691.66" y="704.5" width="24.26" height="24.93" rx="4.25" ry="4.25"/>
      <rect x="724.13" y="704.5" width="24.26" height="24.93" rx="4.25" ry="4.25"/>
      <rect x="529.23" y="736.83" width="24.26" height="24.93" rx="4.25" ry="4.25"/>
      <rect x="561.76" y="736.83" width="24.26" height="24.93" rx="4.25" ry="4.25"/>
      <rect x="594.68" y="736.83" width="24.26" height="24.93" rx="4.25" ry="4.25"/>
      <rect x="561.76" y="834.29" width="24.26" height="24.93" rx="4.25" ry="4.25"/>
      <rect x="594.68" y="834.29" width="24.26" height="24.93" rx="4.25" ry="4.25"/>
      <rect x="561.76" y="899.35" width="24.26" height="24.93" rx="4.25" ry="4.25"/>
      <rect x="561.76" y="964.47" width="24.26" height="24.93" rx="4.25" ry="4.25"/>
      <rect x="594.68" y="899.35" width="24.26" height="24.93" rx="4.25" ry="4.25"/>
      <rect x="594.68" y="1029.1" width="24.26" height="24.93" rx="4.25" ry="4.25"/>
      <rect x="626.91" y="736.83" width="24.26" height="24.93" rx="4.25" ry="4.25"/>
      <rect x="756.94" y="736.83" width="24.26" height="24.93" rx="4.25" ry="4.25"/>
      <rect x="659.27" y="736.83" width="24.26" height="24.93" rx="4.25" ry="4.25"/>
      <rect x="529.23" y="769.06" width="24.26" height="24.93" rx="4.25" ry="4.25"/>
      <rect x="561.76" y="769.06" width="24.26" height="24.93" rx="4.25" ry="4.25"/>
      <rect x="561.76" y="801.69" width="24.26" height="24.93" rx="4.25" ry="4.25"/>
      <rect x="626.91" y="769.06" width="24.26" height="24.93" rx="4.25" ry="4.25"/>
      <rect x="626.91" y="801.69" width="24.26" height="24.93" rx="4.25" ry="4.25"/>
      <rect x="626.91" y="931.33" width="24.26" height="24.93" rx="4.25" ry="4.25"/>
      <rect x="756.94" y="769.06" width="24.26" height="24.93" rx="4.25" ry="4.25"/>
      <rect x="659.27" y="769.06" width="24.26" height="24.93" rx="4.25" ry="4.25"/>
      <rect x="626.91" y="964.47" width="24.26" height="24.93" rx="4.25" ry="4.25"/>
      <rect x="659.27" y="964.47" width="24.26" height="24.93" rx="4.25" ry="4.25"/>
      <rect x="659.27" y="834.29" width="24.26" height="24.93" rx="4.25" ry="4.25"/>
      <rect x="659.27" y="866.63" width="24.26" height="24.93" rx="4.25" ry="4.25"/>
      <rect x="691.66" y="736.83" width="24.26" height="24.93" rx="4.25" ry="4.25"/>
      <rect x="724.13" y="736.83" width="24.26" height="24.93" rx="4.25" ry="4.25"/>
      <rect x="756.94" y="866.63" width="24.26" height="24.93" rx="4.25" ry="4.25"/>
      <rect x="691.66" y="866.63" width="24.26" height="24.93" rx="4.25" ry="4.25"/>
      <rect x="724.13" y="866.63" width="24.26" height="24.93" rx="4.25" ry="4.25"/>
      <rect x="756.94" y="899.35" width="24.26" height="24.93" rx="4.25" ry="4.25"/>
      <rect x="691.66" y="899.35" width="24.26" height="24.93" rx="4.25" ry="4.25"/>
      <rect x="724.13" y="899.35" width="24.26" height="24.93" rx="4.25" ry="4.25"/>
      <rect x="789.48" y="964.47" width="24.26" height="24.93" rx="4.25" ry="4.25"/>
      <rect x="789.48" y="996.79" width="24.26" height="24.93" rx="4.25" ry="4.25"/>
      <rect x="756.94" y="964.47" width="24.26" height="24.93" rx="4.25" ry="4.25"/>
      <rect x="691.66" y="964.47" width="24.26" height="24.93" rx="4.25" ry="4.25"/>
      <rect x="724.13" y="964.47" width="24.26" height="24.93" rx="4.25" ry="4.25"/>
      <rect x="659.27" y="1029.1" width="24.26" height="24.93" rx="4.25" ry="4.25"/>
      <rect x="789.48" y="1029.1" width="24.26" height="24.93" rx="4.25" ry="4.25"/>
      <rect x="756.94" y="1029.1" width="24.26" height="24.93" rx="4.25" ry="4.25"/>
      <rect x="691.66" y="1029.1" width="24.26" height="24.93" rx="4.25" ry="4.25"/>
      <rect x="724.13" y="1029.1" width="24.26" height="24.93" rx="4.25" ry="4.25"/>
      <rect x="659.27" y="996.79" width="24.26" height="24.93" rx="4.25" ry="4.25"/>
      <rect x="691.66" y="996.79" width="24.26" height="24.93" rx="4.25" ry="4.25"/>
      <rect x="724.13" y="996.79" width="24.26" height="24.93" rx="4.25" ry="4.25"/>
      <rect x="756.94" y="801.69" width="24.26" height="24.93" rx="4.25" ry="4.25"/>
      <rect x="756.94" y="834.29" width="24.26" height="24.93" rx="4.25" ry="4.25"/>
      <rect x="691.66" y="801.69" width="24.26" height="24.93" rx="4.25" ry="4.25"/>
      <rect x="724.13" y="801.69" width="24.26" height="24.93" rx="4.25" ry="4.25"/>
      <rect x="724.13" y="834.29" width="24.26" height="24.93" rx="4.25" ry="4.25"/>
      <rect x="724.13" y="183.51" width="24.26" height="24.93" rx="4.25" ry="4.25"/>
      <rect x="724.13" y="216.16" width="24.26" height="24.93" rx="4.25" ry="4.25"/>
      <polygon class="st2" points="433.85 532.09 459.89 532.09 459.89 613.1 506.18 613.1 506.18 636.25 433.85 636.25 433.85 532.09"/>
      <rect class="st2" x="520.65" y="532.09" width="23.15" height="104.16"/>
      <polygon class="st2" points="558.26 636.25 558.26 532.09 581.41 532.09 624.81 592.85 624.81 532.09 650.85 532.09 650.85 636.25 624.81 636.25 581.41 575.49 581.41 636.25 558.26 636.25"/>
      <polygon class="st2" points="665.32 636.25 734.76 636.25 734.76 613.1 688.47 613.1 688.47 595.74 734.76 595.74 734.76 572.59 688.47 572.59 688.47 555.23 734.76 555.23 734.76 532.09 665.32 532.09 665.32 636.25"/>
      <path d="M989.76,114.86h-124.16c-28.77,0-52.09,23.32-52.09,52.09v124.16c0,28.77,23.32,52.09,52.09,52.09h124.16c28.77,0,52.09-23.32,52.09-52.09v-124.16c0-28.77-23.32-52.09-52.09-52.09ZM1013.2,286.44c0,13.27-10.76,24.02-24.02,24.02h-114.89c-13.27,0-24.02-10.76-24.02-24.02v-114.89c0-13.27,10.76-24.02,24.02-24.02h114.89c13.27,0,24.02,10.76,24.02,24.02v114.89Z"/>
      <rect class="st2" x="882.96" y="179.86" width="99.15" height="99.15" rx="19.32" ry="19.32"/>
      <path d="M273.98,114.86h-124.16c-28.77,0-52.09,23.32-52.09,52.09v124.16c0,28.77,23.32,52.09,52.09,52.09h124.16c28.77,0,52.09-23.32,52.09-52.09v-124.16c0-28.77-23.32-52.09-52.09-52.09ZM297.42,286.44c0,13.27-10.76,24.02-24.02,24.02h-114.89c-13.27,0-24.02-10.76-24.02-24.02v-114.89c0-13.27,10.76-24.02,24.02-24.02h114.89c13.27,0,24.02,10.76,24.02,24.02v114.89Z"/>
      <rect class="st2" x="167.18" y="179.86" width="99.15" height="99.15" rx="19.32" ry="19.32"/>
      <path d="M273.98,829.63h-124.16c-28.77,0-52.09,23.32-52.09,52.09v124.16c0,28.77,23.32,52.09,52.09,52.09h124.16c28.77,0,52.09-23.32,52.09-52.09v-124.16c0-28.77-23.32-52.09-52.09-52.09ZM297.42,1001.21c0,13.27-10.76,24.02-24.02,24.02h-114.89c-13.27,0-24.02-10.76-24.02-24.02v-114.89c0-13.27,10.76-24.02,24.02-24.02h114.89c13.27,0,24.02,10.76,24.02,24.02v114.89Z"/>
      <rect class="st2" x="167.18" y="894.63" width="99.15" height="99.15" rx="19.32" ry="19.32"/>
    </g>
  </g>
</svg>