<?xml version="1.0" encoding="UTF-8"?>
<svg id="Layer_1" xmlns="http://www.w3.org/2000/svg" version="1.1" viewBox="0 0 1110 1110">
  <!-- Generator: Adobe Illustrator 29.8.4, SVG Export Plug-In . SVG Version: 2.1.1 Build 6)  -->
  <defs>
    <style>
      .st0 {
        fill: #146cf7;
      }
    </style>
  </defs>
  <path d="M330,150c.05,9.99-.03,20.02,0,30.01,9.99,0,20.02-.03,30.01,0,.03,9.98-.02,20.02,0,30-19.98-.05-40.02.04-60,0v-60h30Z"/>
  <path d="M420,180c9.99.02,20.02-.01,30.01,0,0,9.99-.03,20.02,0,30.01-9.99-.03-20.02.02-30.01,0,0-9.99.03-20.02,0-30.01Z"/>
  <path d="M360,210c9.99.02,20.02-.01,30.01,0-.05,19.99.05,40.02,0,60.01-9.99-.03-20.02.02-30.01,0-.02-19.99.05-40.02,0-60.01Z"/>
  <path d="M450,240c-.03,9.99.02,20.02,0,30.01-9.99,0-20.02-.03-30.01,0,0-9.99,0-20.02,0-30.01,9.99,0,20.02.03,30.01,0Z"/>
  <path d="M420,270v30h30v30h-90v-30h30c.02-9.98-.03-20.02,0-30,9.98.03,20.02.03,30,0Z"/>
  <path d="M90,330v-30h30v30c-9.98.04-20.02-.05-30,0,0,9.99,0,20.02,0,30.01,19.99.01,40.02-.04,60.01,0,.03-19.98-.02-40.02,0-60h120v30h-30v30c19.99.03,40.02-.02,60.01,0,0,9.99,0,20.02,0,30.01,9.98.02,20.02-.03,30,0,.03-9.98-.02-20.02,0-30h90c.04,9.98-.05,20.02,0,30,9.98-.05,20.02.04,30,0v-30h30v30h30v30h-90c-.04-9.98.05-20.02,0-30-9.98.05-20.02-.04-30,0v30h-30v-30c-9.98-.02-20.02.03-30,0-.08,29.98.06,60.02,0,90h-30v-30h-60v-30h60v-30c-19.98-.05-40.02.03-60.01,0,0-9.99,0-20.02,0-30.01-29.98-.05-60.02.05-90,0-.02,9.98.01,20.02,0,30-9.99.02-20.02-.01-30.01,0,0,9.99.03,20.02,0,30.01-9.98.03-20.02-.02-30,0v30h-30v-120c9.98-.04,20.02.05,30,0Z"/>
  <path d="M900,390c.07-29.98-.06-60.02,0-90h60v30h30v-30h30v60h30v60h-90v-30c-19.98-.02-40.02.03-60,0-.02,9.99.01,20.02,0,30.01h-30.01c.03-9.99.03-20.02,0-30.01,9.98.01,20.02-.02,30,0Z"/>
  <path d="M840,390v-30h30c.02,9.98-.03,20.02,0,30-9.98-.01-20.02,0-30,0Z"/>
  <path d="M150,390c19.98-.05,40.02.04,60.01,0,.02,29.98-.04,60.02,0,90.01-9.98-.02-20.02.02-30,0-.03-19.99.02-40.02,0-60.01-9.99,0-20.02.03-30.01,0,.01-9.98-.01-20.02,0-30Z"/>
  <path d="M360,510c-.05-19.98.04-40.02,0-60h60v30h-30v30c-9.98.02-20.02-.03-30,0,.03,9.98-.02,20.02,0,30h30c.02,9.98-.03,20.02,0,30h-30.01c-.01,19.98.04,40.01,0,60-39.98.1-80.02-.07-120,0v-30h60c.02-9.98-.03-20.02,0-30,9.98-.03,20.02.02,30,0v-30c-9.98-.02-20.02.03-30,0,.03-9.99-.02-20.02,0-30.01,19.99-.03,40.02.06,60.01,0Z"/>
  <path d="M180,480c.03,19.99-.02,40.02,0,60.01,9.99,0,20.02-.03,30.01,0,.02,49.98-.12,100.02,0,150-9.98.03-20.02-.02-30,0v60h30c.04,9.98-.05,20.02,0,30,29.98-.08,60.02.06,90.01,0,.03,9.99-.06,20.02,0,30.01,9.99.02,20.02-.01,30.01,0,0,9.99,0,20.02,0,30.01,9.98.05,20.02-.04,30,0v30h60v30h-60v30h-30v30h-30v-90h30v-30c-9.99-.05-20.02.03-30.01,0-.03-9.99.06-20.02,0-30.01-29.98-.07-60.02.05-90.01,0-.03-9.99.06-20.02,0-30.01-9.98.03-20.02-.02-30,0v30h-30v-30c-9.98-.04-20.02.05-30,0,.05-9.98-.04-20.02,0-30h30v-30h-60v60c9.98.04,20.02-.05,30,0-.05,9.98.04,20.02,0,30h-60v-120h30v-30h-30v-30h90v-90h-30c-.05,9.98.04,20.02,0,30h-30v-30c9.99,0,20.01,0,30,0,.05-9.98-.04-20.02,0-30h30c.02-9.98-.03-20.02,0-30,9.98.03,20.02-.02,30,0ZM150,660h-30v30h30v-30Z"/>
  <path d="M210,480c19.98.03,40.02-.02,60,0v30h-30v30c-9.98-.02-20.02.03-30,0,0-19.98.03-40.02,0-60Z"/>
  <path d="M300,540c-.03,9.98.03,20.02,0,30-19.98.05-40.02-.04-60.01,0,0-9.99,0-20.02,0-30.01,19.98.03,40.02-.05,60,0Z"/>
  <path d="M150,420c-.03,19.98.05,40.02,0,60-9.99-.03-20.02.02-30.01,0,.05-19.99-.04-40.02,0-60.01,9.98-.03,20.02-.03,30,0Z"/>
  <path d="M390,570c9.99,0,20.02,0,30.01,0,.07,39.98-.11,80.02,0,120.01-9.98-.01-20.02-.01-30,0v-30.01c-9.98,0-20.01.03-30,0,0-9.98-.02-20.02,0-30,9.99-.02,20.02.01,30.01,0-.05-19.99.05-40.02,0-60.01Z"/>
  <path d="M930,600c9.98-.03,20.02.02,30,0v-30h30v30h30v-30h30v120h-30v-60h-30v30h-30c-.02,9.98.03,20.02,0,30-9.98-.03-20.02-.03-30,0-.05-9.98.04-20.02,0-30h-30c-.02-9.98.03-20.02,0-30,9.99-.05,20.02.03,30.01,0,0-9.99-.03-20.02,0-30.01Z"/>
  <path d="M360,660c0,9.98-.02,20.02,0,30-19.98.03-40.02-.02-60,0v60h-60c-.02-9.98.03-20.02,0-30h30v-30c-9.98-.02-20.02.03-30,0,.03-9.99-.02-20.02,0-30.01,39.98.08,80.02-.09,120.01,0Z"/>
  <path d="M840,660c.03,19.98-.02,40.02,0,60h30v60h30v-90c9.98-.02,20.02.03,30,0,.05,9.99-.03,20.02,0,30.01,9.99,0,20.02-.03,30.01,0,.03,9.99-.02,20.02,0,30.01,9.99,0,20.02-.03,30.01,0-.03,9.98.02,20.02,0,30h-30c-.02,9.98.03,20.02,0,30-9.98.03-20.02-.02-30,0v60h30c.04-19.98-.05-40.02,0-60,19.98-.05,40.02.04,60,0v30h-30v30h30c-.04,19.98.05,40.02,0,60-9.98-.05-20.02.04-30,0v-30h-60v30h-30v30h30v60c9.98.02,20.02-.03,30,0-.05,9.98.04,20.02,0,30h-90v-30c-9.98-.02-20.02.03-30,0,.05-9.98-.04-20.02,0-30h30v-60h-30v30c-9.98.04-20.02-.05-30,0v-30h-60v-30h-30v-30h-60v180h-30v-60h-30v60h-90c-.02-9.98.03-20.02,0-30,9.98-.03,20.02.02,30,0v-60h30v-30h30v30h30v-60h-60c-.02-9.98.03-20.02,0-30,19.98-.05,40.02.03,60.01,0,.03-9.99-.06-20.02,0-30.01,19.99-.03,40.02.02,60.01,0,0-9.99,0-20.02,0-30.01,9.98.03,20.02-.02,30,0v30h30v-30h30v-30h-30v-30h-90v-30h-30v-30h60v30h60c.04-9.98-.05-20.02,0-30,19.98.05,40.02-.04,60,0v-30c9.98-.04,20.02.05,30,0ZM900,810h-90v90h90v-90Z"/>
  <path d="M240,690c-.03,9.98-.03,20.02,0,30-9.99,0-20.02,0-30.01,0,0-9.99.03-20.02,0-30.01,9.98-.03,20.02-.03,30,0Z"/>
  <path d="M390,690c0,9.99,0,20.02,0,30.01-9.99.03-20.02-.06-30.01,0-.03-9.98.02-20.02,0-30,9.98-.02,20.02.01,30,0Z"/>
  <path d="M420,690c29.98.04,60.02-.03,90,0v30h30v30c-19.98.05-40.02-.03-60.01,0-.02,19.99.05,40.02,0,60.01-19.98.03-40.02-.02-60,0v30h-30v-30h-30v-30h-30v-60c9.98-.04,20.02.05,30,0,.03,9.98-.02,20.02,0,30h30v30h30v-30h30v-30h-30c-.02-9.98.03-20.02,0-30Z"/>
  <path d="M960,690c9.99.03,20.02-.02,30.01,0,0,9.99-.03,20.02,0,30.01-9.98-.02-20.02.03-30,0-.03-9.98-.03-20.02,0-30Z"/>
  <path d="M540,750c9.98-.03,20.02.02,30,0v-30h30v30h30v30h60v30c-19.98-.05-40.02.04-60.01,0-.03,9.99.06,20.02,0,30.01-19.98.03-40.02-.05-60,0-.03-9.99.02-20.02,0-30.01-19.99-.01-40.02.04-60.01,0,.05-9.98-.04-20.02,0-30h30v-30Z"/>
  <path d="M990,720c19.98.05,40.02-.03,60,0v30c-19.98-.04-40.02.05-60,0,.03-9.98.03-20.02,0-30Z"/>
  <path d="M360,90v-30h30v30c-9.98.02-20.02-.03-30,0,0,9.99,0,20.01,0,30h60c.04,19.98-.05,40.02,0,60-19.98-.05-40.02.05-60,0-.03-9.99.02-20.02,0-30.01-9.99,0-20.02,0-30.01,0-.05-9.98.04-20.02,0-30h-30v-30c19.98-.04,40.02.05,60,0Z"/>
  <path d="M510,810c-.05,9.99.03,20.02,0,30.01-9.99.03-20.02-.06-30.01,0-.03,9.98.02,20.02,0,30h-30v-30c9.98-.04,20.02.05,30,0,.03-9.98-.02-20.02,0-30,9.98-.02,20.02-.02,30,0Z"/>
  <path d="M480,210c-.03-19.98.02-40.02,0-60h-30v-60h60v-30h60c.02,9.98-.03,20.02,0,30-9.98.03-20.02-.02-30,0v30h-30v60c39.98.08,80.02-.1,120,0-.04,29.98.03,60.02,0,90h-30v-60c-39.98-.05-80.02.06-120,0,.02,9.98-.02,20.02,0,30,9.98.03,20.02-.02,30,0v30h30c0-9.99,0-20.01,0-30h30v30h-30v30h60v30c9.98-.03,20.02.02,30,0v-30c9.98-.04,20.02.05,30,0-.05-19.98.04-40.02,0-60h30v60c-9.98.04-20.02-.05-30,0,.03,9.98-.02,20.02,0,30h30c.04,9.98-.05,20.02,0,30,9.98-.03,20.02.02,30,0v-30c19.98-.02,40.02.03,60,0,0-9.99,0-20.01,0-30h90v30c-29.98.03-60.02-.05-90,0v30h30c.02,9.98-.03,20.02,0,30,9.99,0,20.01,0,30,0,0,9.99,0,20.02,0,30.01,9.99,0,20.02,0,30.01,0-.03,9.99.02,20.02,0,30.01-19.99,0-40.02,0-60.01,0,.03,19.99-.02,40.02,0,60.01,9.99,0,20.02,0,30.01,0v-30h30v30h-30c0,9.99,0,20.02,0,30.01,29.98-.04,60.02.04,90.01,0-.03-9.98.02-20.02,0-30h-30v-30h60v-30h30v90c-19.98.02-40.02-.03-60,0,.05,19.98.05,40.02,0,60-9.98.03-20.02.03-30,0-.03-9.98.02-20.02,0-30h-30v30c9.98.02,20.02-.03,30,0,.03,9.98-.03,20.02,0,30-9.98.05-20.02-.04-30,0v30c-9.98.04-20.02-.05-30,0-.03-19.99.02-40.02,0-60.01-19.99-.03-40.02.06-60.01,0-.03-9.98.02-20.02,0-30h-30v30c9.98.02,20.02-.03,30,0,.05,19.98-.04,40.02,0,60h-30c-.04,9.98.05,20.02,0,30-9.98-.03-20.02.02-30,0v-60h-30v-30h30v-60h30c.04-9.98-.05-20.02,0-30,9.99,0,20.01,0,30,0v-30h-30c-.04,9.98.05,20.02,0,30h-30v-90h30v30h60c-.03-19.98.05-40.02,0-60-39.98-.03-80.02.02-120.01,0-.03-9.99.06-20.02,0-30.01-19.98.05-40.02-.03-60.01,0,0,9.99,0,20.02,0,30.01h30v30h-30v-30h-30v30h-30v-30h-30v-30h60v-30c-29.98.08-60.02-.06-90,0v-30h-30c-.02-19.98.03-40.02,0-60-9.98-.03-20.02-.03-30,0,.03-9.98.03-20.02,0-30,9.98.03,20.02-.02,30,0Z"/>
  <path d="M570,840c.03,9.98-.03,20.02,0,30-9.98.02-20.02-.03-30,0,.05-9.99-.03-20.02,0-30.01,9.99,0,20.02.03,30.01,0Z"/>
  <path d="M600,90v-30h30c.02,9.98-.03,20.02,0,30-9.98.02-20.02-.02-30,0Z"/>
  <path d="M540,870c-.05,9.99.03,20.02,0,30.01-9.99,0-20.02-.03-30.01,0,.05-9.99-.03-20.02,0-30.01,9.99,0,20.02.03,30.01,0Z"/>
  <path d="M630,90c19.98-.03,40.02.02,60,0v-30h60c.02,19.98-.03,40.02,0,60-9.98.03-20.02-.02-30,0v30c9.99,0,20.01,0,30,0,.03,19.98-.02,40.02,0,60h30v-30h30v90h-30v-30h-30v60h-30v-90h-60v-30c-9.98-.02-20.02.03-30,0,.01-9.98.01-20.02,0-30,9.98-.03,20.02.02,30,0v-30c-9.98-.04-20.02.05-30,0-.02-9.98.03-20.02,0-30Z"/>
  <path d="M510,900c-.05,9.99.03,20.02,0,30.01-19.99.03-40.02-.06-60.01,0,0-9.99,0-20.02,0-30.01,19.99-.03,40.02.05,60.01,0Z"/>
  <path d="M600,90c0,9.99,0,20.02,0,30.01,9.99.03,20.02-.06,30.01,0,.02,9.98-.01,20.02,0,30-19.98.05-40.02-.04-60.01,0-.03-19.99.06-40.02,0-60.01,9.98-.03,20.02.02,30,0Z"/>
  <path d="M450,930v30h60c.04,19.98-.05,40.02,0,60-19.98.05-40.02-.04-60,0v-30h-30v30h-60v30h-30v-30h-30v-30h60v-30h60v-30c9.98-.02,20.02.03,30,0Z"/>
  <path d="M780,120c.05-9.98-.04-20.02,0-30h30v30c-9.98.02-20.02-.03-30,0-.05,9.99.03,20.02,0,30.01-9.99,0-20.02,0-30.01,0-.02-9.98.02-20.02,0-30,9.98-.03,20.02.03,30,0Z"/>
  <path d="M1020,930c9.98.05,20.02-.04,30,0v90c-29.98-.06-60.02.08-90,0,.05-9.98-.04-20.02,0-30h30v-30h30c.02-9.98-.03-20.02,0-30Z"/>
  <path d="M750,990c-9.98-.03-20.02.02-30,0v-30h30c.04,9.98-.05,20.02,0,30,9.98.03,20.02.03,30,0-.03,9.98-.03,20.02,0,30-9.99-.02-20.02.01-30.01,0-.03-9.99.06-20.02,0-30.01Z"/>
  <path d="M810,960c0,9.99,0,20.02,0,30.01-9.99,0-20.02-.03-30.01,0,.03-9.99-.02-20.02,0-30.01,9.99-.03,20.02.06,30.01,0Z"/>
  <path d="M840,1020c-.05,9.98.04,20.02,0,30h-60c-.02-9.98.03-20.02,0-30,19.98.05,40.02-.05,60,0Z"/>
  <path class="st0" d="M571,658v-71.5c0-.11,1.39-1.5,1.5-1.5h23.5l4-30h-29v-21.5c0-6.03,7.39-14.5,13.5-14.5h17.5l-.43-25.07c-19.77-4.99-46.76-5.2-57.75,15.39-1.06,1.98-4.82,11.62-4.82,13.18v32.5h-27v30h25.5c.11,0,1.5,1.39,1.5,1.5v71.5c-42.48-5.18-78.99-40.98-86.71-82.79-20.28-109.94,120.85-171.26,187.12-82.12,46.64,62.73,8.27,154.24-68.41,164.91Z"/>
  <path d="M270,60v210H60V60h210ZM240,90H90v150h150V90Z"/>
  <path d="M1050,60v210h-210V60h210ZM1020,90h-150v150h150V90Z"/>
  <path d="M270,840v210H60v-210h210ZM240,870H90v150h150v-150Z"/>
  <rect x="300" y="240" width="30" height="90"/>
  <rect x="1020" y="510" width="30" height="30"/>
  <rect x="840" y="840" width="30" height="30"/>
  <rect class="st0" x="120" y="120" width="90" height="90"/>
  <rect class="st0" x="900" y="120" width="90" height="90"/>
  <rect class="st0" x="120" y="900" width="90" height="90"/>
</svg>