<?xml version="1.0" encoding="UTF-8"?>
<svg id="Layer_1" xmlns="http://www.w3.org/2000/svg" version="1.1" viewBox="0 0 1892.43 405.58">
  <!-- Generator: Adobe Illustrator 29.8.4, SVG Export Plug-In . SVG Version: 2.1.1 Build 6)  -->
  <defs>
    <style>
      .st0 {
        fill: #fff;
      }

      .st1 {
        fill: #db2729;
      }

      .st2 {
        fill: #2841db;
      }
    </style>
  </defs>
  <path class="st1" d="M685.92,34.88H98.95c-35.37,0-64.03,28.67-64.03,64.03v151.09c0,35.37,28.67,64.03,64.03,64.03h1691.6c35.37,0,64.03-28.67,64.03-64.03V98.92c0-35.37-28.67-64.03-64.03-64.03H685.92Z"/>
  <rect class="st2" x="34.92" y="34.88" width="1819.67" height="341.2" rx="64.03" ry="64.03"/>
  <path class="st1" d="M685.92,376.09H98.95c-35.37,0-64.03-28.67-64.03-64.03V98.92c0-35.37,28.67-64.03,64.03-64.03h586.97v341.2h0Z"/>
  <g>
    <path class="st0" d="M245.91,211.91c2.43-15.17-8.35-22.76-32.35-22.76-19.44,0-37.55,4.12-54.33,12.38l13.36-35.28c18.01-8.25,39.82-12.38,65.43-12.38,42.01,0,63.88,13.61,65.62,40.83.5,7.68-.91,15.93-4.26,24.75-5.53,14.61-14.64,26.89-27.33,36.84-17.8,13.94-36.71,20.91-56.71,20.91h-84.78l25.92-68.42h71.84l-8.03,21.2h-16.22l-4.74,12.52c23.71,0,38.67-8.2,44.89-24.61l1.4-3.7.29-2.28h0Z"/>
    <path class="st0" d="M278.44,117.03l4.63-12.23h54.48l-11.48,30.3h-137.27l6.84-18.07h82.8Z"/>
    <path class="st0" d="M395.33,195.98c1.62-.85,2.83-1.61,3.64-2.28,2.68-2.18,4.64-4.93,5.9-8.25.29-.76.5-1.33.65-1.71l15.03-39.69h58.18l-10.94,28.88c-3.92,10.34-10.57,16.64-19.97,18.92l-.54,1.42c1.76.1,3.02.28,3.77.57,5.12,1.99,6.11,7.16,2.95,15.51l-9.7,25.61c-6.18,16.31-18.83,28.31-37.96,35.99-14.46,5.88-30.84,8.82-49.15,8.82s-32.62-2.89-42.66-8.68c-13.27-7.78-16.82-19.82-10.64-36.13l11.48-30.3c1.44-3.79,4.54-7.49,9.32-11.1,10.38-7.87,15.93-12.75,16.65-14.65,1.26-3.32.93-5.55-.99-6.69-.91-.57-2.07-.85-3.48-.85-3.01,0-5.49,1-7.47,2.99l7.27-19.2c9.55,4.84,20.34,7.25,32.39,7.25s23.68-2.42,36.6-7.25l-11.59,30.58c-.75,1.99-4.61,5.69-11.55,11.1-3.41,2.66-5.6,5.26-6.57,7.82l-11.48,30.3c-1.15,3.04-1.32,5.79-.49,8.25.82,2.47,2.7,3.7,5.64,3.7,6.35,0,11.04-3.98,14.06-11.95l11.48-30.3c1.26-3.32,1.67-5.78,1.24-7.4-.11-.47-.47-.9-1.08-1.28h0Z"/>
    <path class="st0" d="M315.01,285.6h54.77l-6.84,18.07c-1.47,3.89.35,5.83,5.47,5.83,4.46,0,7.42-1.95,8.9-5.83l6.84-18.07h41.11l-7.65,20.2c-2.12,5.59-6.42,10.19-12.91,13.8-5.77,3.22-11.6,4.84-17.48,4.84h-48.37c-15.27,0-20.47-6.17-15.61-18.49.22-.57.45-1.19.7-1.85.22-.57.34-.9.38-1h-15.93l6.63-17.5h-.01Z"/>
    <path class="st0" d="M551.53,195.98c1.62-.85,2.83-1.61,3.64-2.28,2.68-2.18,4.64-4.93,5.9-8.25.29-.76.5-1.33.65-1.71l15.03-39.69h58.18l-10.94,28.88c-3.92,10.34-10.57,16.64-19.97,18.92l-.54,1.42c1.76.1,3.02.28,3.77.57,5.12,1.99,6.11,7.16,2.95,15.51l-9.7,25.61c-6.18,16.31-18.83,28.31-37.96,35.99-14.46,5.88-30.84,8.82-49.15,8.82s-32.62-2.89-42.66-8.68c-13.27-7.78-16.82-19.82-10.64-36.13l11.48-30.3c1.44-3.79,4.54-7.49,9.32-11.1,10.38-7.87,15.93-12.75,16.65-14.65,1.26-3.32.93-5.55-.99-6.69-.91-.57-2.07-.85-3.48-.85-3.01,0-5.49,1-7.47,2.99l7.27-19.2c9.55,4.84,20.34,7.25,32.39,7.25s23.68-2.42,36.6-7.25l-11.59,30.58c-.75,1.99-4.61,5.69-11.55,11.1-3.41,2.66-5.6,5.26-6.57,7.82l-11.48,30.3c-1.15,3.04-1.32,5.79-.49,8.25.82,2.47,2.7,3.7,5.64,3.7,6.35,0,11.04-3.98,14.06-11.95l11.48-30.3c1.26-3.32,1.67-5.78,1.24-7.4-.11-.47-.47-.9-1.08-1.28h0Z"/>
    <path class="st0" d="M581.45,285.6l-14.71,38.83h-54.48l8.08-21.34h-18.07l6.63-17.5h72.55Z"/>
    <path class="st0" d="M868.99,277.2h-55.62l10.83-28.59c4.45-11.76,2.55-18.25-5.7-19.49-1.26-.19-2.22-.28-2.88-.28-7.02,0-11.82,3.41-14.41,10.24-2.59,6.83-.32,10.24,6.79,10.24,1.99,0,4.43-.43,7.31-1.28l-9.59,25.32c-10.88,4.17-21.1,6.26-30.68,6.26-13.37,0-23.23-3.65-29.56-10.95-6.85-7.97-7.81-18.44-2.89-31.44,4.63-12.23,13.89-22.52,27.77-30.87,12.77-7.68,25.47-11.52,38.08-11.52,14.23,0,23.82,5.22,28.78,15.65.85,0,1.29.1,1.31.28.88-1.33,1.77-3.18,2.67-5.55.61-1.61,1.01-3.18,1.21-4.69,1.63-12.33-8.31-18.49-29.84-18.49-8.91,0-18.07,1.38-27.45,4.13-11.67,3.51-20.49,8.39-26.46,14.65l11.37-30.02c9.44-5.21,20.75-9.48,33.91-12.8,12.3-3.03,23.32-4.55,33.06-4.55,8.98,0,16.22,1.33,21.74,3.98h1.14l6.84-18.07h54.48l-52.22,137.84h.01Z"/>
    <path class="st0" d="M962.71,246.9c1.03.29,2.11.43,3.25.43,5.4,0,10.84-3.6,16.31-10.81,3.96-5.21,7.17-11.05,9.61-17.5,2.55-6.73,3.77-12.71,3.66-17.92-.19-7.02-3.12-10.53-8.82-10.53-1.23,0-2.79.24-4.68.71l11.48-30.3c12.42-4.74,23.08-7.11,32-7.11,15.84,0,25.76,6.73,29.76,20.2,3.6,11.76,2.28,25.89-3.97,42.39s-15.5,30.4-27.74,41.68c-13.92,12.71-28.8,19.06-44.63,19.06h-77.67c-.38,0-.6-.05-.66-.14l21.57-120.77h56.72l-16.21,90.61h.02Z"/>
    <path class="st0" d="M1088.05,161.55c20.37-5.21,38.72-7.82,55.03-7.82,25.51,0,43.25,6.5,53.22,19.49,9.01,11.76,10.3,26.13,3.87,43.1-6.5,17.17-18.91,31.77-37.22,43.81-20.43,13.37-43.64,20.06-69.62,20.06-15.17,0-30.98-2.47-47.41-7.4l11-40.68c13.16,9.58,26.66,14.37,40.51,14.37,9.1,0,17.58-2.46,25.42-7.4,8.46-5.31,14.38-12.42,17.76-21.34,3.45-9.1,2.85-16.41-1.8-21.91-4.32-5.12-11.17-7.68-20.56-7.68-13.18,0-29.87,4.74-50.06,14.23l19.88-40.83h-.02Z"/>
    <path class="st0" d="M1231.04,279.76c-12.33,0-21.06-3.36-26.19-10.1-5.46-7.11-5.89-16.74-1.29-28.88l32.01-84.5h60.6l-24.95,65.86c-3.02,7.97-1.3,11.95,5.15,11.95s11.04-3.98,14.06-11.95l24.95-65.86h60.6l-45.8,120.91h-59.32l9.58-17.78h-1.42c-13.48,13.56-29.47,20.34-47.96,20.34h-.02Z"/>
    <path class="st0" d="M1468.26,123.71l-58.14,153.49h-60.31l58.14-153.49c3.52-9.29,1.39-13.94-6.38-13.94-3.13,0-6.64.76-10.54,2.28l12.61-33.29c12.68-2.18,23.48-3.27,32.39-3.27,33.66,0,44.41,16.07,32.23,48.22h0Z"/>
    <path class="st0" d="M1572.96,153.73c12.14,0,20.82,3.37,26.05,10.1,5.56,7.11,6.07,16.64,1.54,28.59l-32.12,84.78h-60.6l24.95-65.86c3.09-8.15,1.41-12.23-5.04-12.23s-11.08,4.08-14.17,12.23l-24.95,65.86h-60.6l45.8-120.91h59.32l-10.04,17.5h1.42c13.41-13.37,29.55-20.06,48.42-20.06h.02Z"/>
    <path class="st0" d="M1613.11,277.2c-9.01,0-15.3-3.06-18.86-9.18-3.56-6.12-3.62-13.73-.17-22.83,3.23-8.54,8.23-15.84,14.98-21.91,2.31-2.09,5.34-4.22,9.11-6.4-6.6-7.87-7.85-17.21-3.75-28.02,4.06-10.72,11.69-19.35,22.89-25.89,10.23-5.97,20.89-8.96,31.99-8.96,9.96,0,19.41,2.33,28.37,6.97l-9.7,25.61c-1.38-.38-2.82-.57-4.34-.57-6.83,0-11.57,3.51-14.23,10.53-2.91,7.68-.62,11.52,6.87,11.52,1.04,0,2.28-.14,3.72-.43l-6.84,18.07c-.62-.38-1.82-.57-3.62-.57-6.45,0-10.91,3.27-13.39,9.82-3.13,8.25,1.05,12.38,12.52,12.38,1.71,0,3.7-.14,5.99-.43l34.33-90.61h60.6l-45.8,120.91h-110.67,0Z"/>
  </g>
</svg>