<?xml version="1.0" encoding="UTF-8"?>
<svg id="Layer_1" xmlns="http://www.w3.org/2000/svg" version="1.1" viewBox="0 0 208.37 184.29">
  <!-- Generator: Adobe Illustrator 29.8.4, SVG Export Plug-In . SVG Version: 2.1.1 Build 6)  -->
  <defs>
    <style>
      .st0 {
        fill: #0000fe;
        stroke: #0d0f1a;
        stroke-width: .08px;
      }

      .st1 {
        fill: #f6f;
      }

      .st2 {
        fill: #fe0000;
      }

      .st3 {
        fill: #ff0;
      }
    </style>
  </defs>
  <polygon class="st3" points="109.75 52.17 36.98 52.17 48.81 8.11 121.63 8.11 109.75 52.17"/>
  <polygon class="st2" points="189.1 52.17 116.25 52.17 128.13 8.11 200.94 8.11 189.1 52.17"/>
  <polygon class="st3" points="80.97 176.18 8.11 176.18 19.93 132.13 92.74 132.13 80.97 176.18"/>
  <polygon class="st1" points="160.23 176.18 87.42 176.18 99.23 132.13 172.09 132.13 160.23 176.18"/>
  <path class="st0" d="M40.06,110.16c-.72,2.8-.72,7.89,9.3,7.89,5.5,0,11.9-1.15,13.46-6.28,1.09-3.79-2.66-4.84-8.17-6.05l-5.59-1.22c-8.35-1.79-16.42-3.53-13.18-14.29,1.64-5.42,7.82-14.92,25.76-14.92,16.91,0,18.48,9.75,16.73,15.68h-11.03c.34-2.14.95-7.29-9.15-7.29-4.33,0-10,1.39-11.3,5.83-1.14,3.77,2.08,4.62,4.31,5.1l12.55,2.86c7.08,1.64,13.13,4.27,10.49,13.09-4.4,14.64-21.69,15.88-26.59,15.88-20.13,0-20.47-10.22-18.6-16.28h11.01Z"/>
  <path class="st0" d="M99.23,125.2h-14.02l14.71-54.3h-26.04l3.21-11.72h66.11l-3.16,11.72h-26.03l-14.78,54.3Z"/>
  <path class="st0" d="M162.24,92.49c-.04-2.91-.13-8.41-10.02-8.41-5.71,0-15.14,3.28-19.45,16.98-2.71,8.74-1.11,16.59,8.97,16.59,6.56,0,12.19-3.18,15.51-9.09h11.86c-5.64,10.48-16.06,17.88-30.39,17.88-15.15,0-23.29-8.76-18.04-25.48,5.3-17.04,19.52-25.68,34.23-25.68,17.13,0,20.86,10.02,19.22,17.2h-11.88Z"/>
</svg>