<?xml version="1.0" encoding="UTF-8"?>
<svg id="Layer_1" xmlns="http://www.w3.org/2000/svg" version="1.1" viewBox="0 0 870 870">
  <!-- Generator: Adobe Illustrator 29.8.4, SVG Export Plug-In . SVG Version: 2.1.1 Build 6)  -->
  <defs>
    <style>
      .st0 {
        fill: #fff;
      }

      .st1 {
        fill: #e92429;
      }
    </style>
  </defs>
  <g>
    <path class="st1" d="M115.2,407.45v-26.53h-9.64v-6.33h27.5v6.33h-9.64v26.53h-8.21Z"/>
    <path class="st1" d="M136.73,407.45v-32.85h8.21v13.01h12.86v-13.01h8.21v32.85h-8.21v-13.01h-12.86v13.01h-8.21Z"/>
    <path class="st1" d="M171.21,407.45v-32.85h24.23v6.33h-16.02v6.89h14.13v6.43h-14.13v6.89h16.02v6.33h-24.23Z"/>
  </g>
  <g>
    <g>
      <path class="st0" d="M455.57,277.02h22.36c.77,0,1.13-1.02.56-1.57l-24.03-23.06c-.43-.42-.42-1.15.03-1.55l23.78-21c.6-.53.25-1.58-.53-1.58h-24.55c-.58,0-1.15.21-1.61.59l-10.67,8.95c-.5.42-1.22.4-1.7-.06l-9.28-8.91c-.39-.37-.89-.58-1.41-.58h-21.71c-.77,0-1.14,1.02-.57,1.58l19.64,19.09c.43.42.4,1.15-.05,1.53l-17.74,14.88c-.59.5-1.47.23-1.72-.54l-11.74-35.36c-.23-.71-.86-1.18-1.56-1.18h-20.66c-.63,0-1.24.29-1.66.8l-29.92,36.08c-.5.61-1.44.28-1.52-.53l-3.29-35.18c-.06-.67-.59-1.18-1.21-1.18h-14.56c-.61,0-1.2.3-1.58.81l-14.01,18.42c-.49.64-1.45.3-1.49-.52l-.89-17.53c-.03-.66-.54-1.18-1.16-1.18h-17.28c-.58,0-1.12.3-1.46.8l-31.46,46.39c-.44.65,0,1.57.75,1.57h18.39c.43,0,.84-.21,1.11-.57l12.71-17.18c.27-.36.68-.58,1.11-.58h4.46c.29,0,.53.26.53.57l-.13,16.59c0,.65.48,1.18,1.09,1.18h12.68c.43,0,.84-.21,1.11-.57l12.8-17.18c.27-.37.69-.58,1.13-.58h4.11c.31,0,.57.25.6.58l1.51,16.58c.06.66.58,1.17,1.2,1.17h26.81c.46,0,.91-.21,1.22-.57l22.1-25.25c.32-.36.76-.57,1.22-.57h4.36c.34,0,.65.23.78.57l4.63,12.8c.12.35.03.74-.23.98l-11.51,10.47c-.59.54-.24,1.57.54,1.57h48.03c.54,0,1.07-.2,1.49-.57l14.18-12.52c.49-.43,1.21-.42,1.68.04l12.85,12.49c.37.36.86.56,1.36.56Z"/>
      <path class="st0" d="M245.56,240.41l-6.22,20.26c-.18.58.35,1.12.88.89,6.36-2.75,16.27-7.34,22.86-10.64.68-.34.72-1.37.06-1.76-4.3-2.56-11.51-6.74-16.24-9.34-.52-.29-1.15,0-1.34.59Z"/>
      <path class="st0" d="M128.96,277.02h75.71c.97,0,1.92-.2,2.82-.58,7.62-3.28,17.66-8,24.7-11.62.87-.45,1.53-1.25,1.83-2.24l7.24-23.57c.25-.83-.15-1.72-.92-2.01l-21.16-8.16c-.98-.38-2.02-.57-3.07-.57h-85.23c-.76,0-1.16.97-.65,1.58l8.24,9.67c.26.31.35.75.23,1.14l-10.55,35.18c-.17.58.23,1.18.8,1.18ZM195.23,265.11h-36.34c-.37,0-.64-.39-.53-.77l7.22-24.42c.1-.35.41-.59.75-.59h40.66c.84,0,1.67.2,2.43.6l4.76,2.48c.28.15.42.49.33.82l-4.05,13.96c-.14.49-.47.89-.89,1.11l-12.01,6.24c-.72.37-1.51.57-2.31.57Z"/>
    </g>
    <path class="st1" d="M231.77,190.81c.78.08.96.4.96,1.13,0,1.56,0,19.72,0,21.28,0,.91-.06,1.45-1.1,1.52-.5.03-4.96.03-5.43,0-.69-.04-1.37-.01-1.37-1v-21.73c0-.81.26-1.14,1.04-1.21.74-.07,5.4-.05,5.9,0M265.24,212.11c1.54-2.05,1.76-6.3-2.17-8.45-2.24-1.22-13.94-5.02-16.36-5.98-.67-.27-.87-.58-.78-.97.11-.48.78-.47,1.07-.47.26,0,2.67.02,17.22.07.82,0,1.19-.2,1.28-1.04.05-.42.02-2.87.01-3.14-.03-.94-.18-1.33-1.25-1.33-1.2,0-15.49-.06-19.98.1-5.03.18-6.52,2.55-6.88,4.96-.35,2.36.54,4.6,2.8,5.98,2.16,1.31,9.6,3.61,16.47,6.08,1.11.4,1.2.79,1.03,1.15-.12.24-.62.29-1.28.29-1.71.01-16.32-.22-17.19-.19-1.07.03-1.26.34-1.29,1.46,0,.26,0,2.26,0,2.56.01,1.04.19,1.43,1.23,1.44,6.19.06,16.86.12,19.12.04,3.59-.12,5.56-.73,6.94-2.57M330.77,193.86c-.91-2.12-2.77-2.97-6.55-3.11-2.93-.1-19.57-.01-19.97,0-1.17.02-1.25.48-1.26,1.51,0,.26,0,2.6.03,2.99.08.86.65.95,1.25.95.39,0,16.49-.11,17.59-.1.52,0,.73.17.76.5.03.28-.14.46-.52.64-4.94,2.28-13.23,5.87-15.69,7.07-3.6,1.76-4.43,3.8-4.24,5.84.22,2.27,1.6,4.29,6.69,4.45,4.47.14,17.26-.04,20.4-.12,1.13-.03,1.19-.44,1.28-1.25.04-.34.02-2.13.01-2.4-.01-1.43-.16-1.77-1.41-1.76-.96,0-13.5.25-17.08.22-.57,0-.73-.31-.54-.64.12-.21.49-.4,1.2-.72,2.99-1.35,11.23-4.76,15.37-7.24,2.46-1.48,3.86-4.05,2.66-6.84M296.87,190.77c-.73-.06-5.24-.06-5.7,0-.58.07-1.08.16-1.08,1.23,0,.69,0,10.79,0,12.75,0,2.52-.41,4.21-3.48,4.4-1.82.12-3.12.12-4.84-.04-2.92-.26-3.48-1.26-3.48-4.77,0-2.19.03-11.26.02-12.15,0-.89-.09-1.36-1.16-1.4-.77-.03-5-.03-5.47,0-.57.03-1.14.15-1.14,1.25,0,.65-.06,8.17,0,14.44.08,8.11,5.6,7.91,8.2,8.13,1.57.13,8.56.16,11.68-.07,5.66-.42,7.22-3.34,7.35-7.47.08-2.71.15-12.51.12-14.91-.01-.89-.16-1.32-1.03-1.39M363.32,192c0-.8-.19-1.24-1.04-1.3-.82-.06-5.11-.04-5.5,0-.92.08-1.15.33-1.17,1.19-.01.69-.02,11.5-.06,13.42-.06,2.83-1,3.21-2.35,3.55-1.36.34-5.76.25-6.32.18-1.71-.22-2.79-.9-2.83-3.7-.04-2.7-.03-12.53-.03-13.42s-.36-1.14-1.1-1.18c-.65-.04-4.66-.05-5.61,0-1.12.07-1.17.54-1.18,1.38-.03,1.65-.06,13.42.12,15.39.42,4.65,2.68,6.54,6.64,6.88,3.66.31,12.39.36,15.04-.26,4.27-1,5.15-4.34,5.34-8.56.1-2.22.06-12.53.05-13.55"/>
    <g>
      <g>
        <path class="st0" d="M148.76,198.26h4.74l-5.38,15.61h-4.23l-5.81-8.96-3.1,8.96h-4.74l5.38-15.61h4.23l5.81,8.94,3.1-8.94Z"/>
        <path class="st0" d="M170.94,210.32l-1.21,3.55h-12.33c-1.96,0-3.24-.37-3.85-1.1-.61-.73-.66-1.87-.13-3.39l2.26-6.62c.52-1.53,1.35-2.66,2.48-3.39,1.13-.74,2.67-1.1,4.63-1.1h12.33l-1.24,3.55h-10.44c-1.11,0-1.91.2-2.4.59-.48.4-.85,1-1.1,1.8l-.03.03h13.14l-1.21,3.55h-13.14l-.05.13c-.14.41-.23.77-.27,1.06-.04.29,0,.54.14.74.13.2.35.35.66.44.31.1.76.15,1.33.15h10.44Z"/>
        <path class="st0" d="M185.18,210.32l4.17-12.06h4.74l-4.17,12.06h1.43c.18,0,.36-.04.54-.11.18-.07.4-.25.66-.52.26-.28.58-.68.95-1.2.38-.52.86-1.22,1.44-2.11.58-.89,1.29-2,2.11-3.33.83-1.33,1.81-2.92,2.96-4.79h4.87l-6.78,11.14c-.25.41-.61.88-1.06,1.39-.46.51-.96,1-1.51,1.45-.55.46-1.11.84-1.7,1.16-.58.31-1.12.47-1.6.47h-11.66c-.5,0-.93-.13-1.29-.4-.36-.27-.65-.62-.87-1.05-.22-.43-.39-.91-.5-1.44-.11-.53-.16-1.05-.16-1.57l.83-11.14h4.9l-.46,5.14c-.09.75-.13,1.54-.12,2.36,0,.82.05,1.56.13,2.23.08.67.19,1.23.34,1.67.14.44.3.66.48.66h1.32Z"/>
      </g>
      <g>
        <polygon class="st1" points="206.52 195.03 185.55 195.03 184.84 192.26 208.01 192.26 206.52 195.03"/>
        <polygon class="st1" points="181.01 195.03 160.38 195.03 159.67 192.26 182.25 192.26 181.01 195.03"/>
        <polygon class="st1" points="155.73 195.03 135.3 195.03 134.59 192.26 156.86 192.26 155.73 195.03"/>
      </g>
    </g>
  </g>
  <g>
    <g>
      <path class="st0" d="M748.1,481.41l-12.68-12.87c-9.74,7.94-23,11.92-39.78,11.92-14.48,0-26.04-3.08-34.69-9.23-8.65-6.15-12.97-14.35-12.97-24.6,0-8.46,2.24-15.6,6.73-21.43,4.48-5.83,10.89-11.05,19.22-15.66-4.1-4.1-7.37-8.13-9.8-12.11-2.43-3.97-3.65-8.71-3.65-14.22,0-8.97,3.27-16.27,9.8-21.91,6.53-5.64,15.37-8.46,26.52-8.46s20.02,2.76,26.62,8.27c6.6,5.51,9.9,12.87,9.9,22.1,0,6.28-1.41,11.76-4.23,16.43-2.82,4.68-7.05,9.19-12.68,13.55l20.37,20.95c1.54-2.95,2.31-6.6,2.31-10.95v-3.46h23.25v4.42c0,5-.77,9.87-2.31,14.6-1.54,4.74-3.52,8.78-5.96,12.11l13.26,13.26-19.22,17.3ZM695.64,459.31c8.84,0,15.82-2.43,20.95-7.3l-23.64-24.21c-5,2.18-8.78,4.64-11.34,7.4-2.56,2.76-3.84,6.31-3.84,10.67s1.66,7.69,5,9.99c3.33,2.31,7.62,3.46,12.88,3.46ZM696.4,400.69c3.97-2.43,6.98-4.77,9.03-7.01,2.05-2.24,3.08-5.22,3.08-8.94,0-3.33-.93-6.05-2.79-8.17-1.86-2.12-4.71-3.17-8.55-3.17-4.1,0-7.08,1.12-8.94,3.36-1.86,2.24-2.79,4.9-2.79,7.98,0,2.82.93,5.51,2.79,8.07,1.86,2.56,4.58,5.19,8.17,7.88Z"/>
      <path class="st0" d="M213.22,671.31c-28.42,0-50.05-7.24-64.88-21.72-14.84-14.48-22.26-37.01-22.26-67.59,0-32.4,7.42-55.65,22.26-69.77,14.84-14.12,36.47-21.18,64.88-21.18s50.04,7.06,64.88,21.18c14.84,14.12,22.26,37.37,22.26,69.77,0,30.59-7.42,53.12-22.26,67.59-14.84,14.48-36.47,21.72-64.88,21.72ZM213.22,634.12c14.66,0,25.38-4.21,32.17-12.62,6.79-8.42,10.18-21.58,10.18-39.5,0-19.55-3.39-33.35-10.18-41.4-6.79-8.05-17.51-12.08-32.17-12.08s-25.66,4.03-32.44,12.08c-6.79,8.05-10.18,21.85-10.18,41.4,0,17.91,3.39,31.08,10.18,39.5,6.79,8.41,17.6,12.62,32.44,12.62Z"/>
      <path class="st0" d="M322.62,668.6v-174.83h37.46l74.38,104.52v-104.52h43.98v174.83h-37.73l-74.38-104.24v104.24h-43.71Z"/>
      <path class="st0" d="M506.14,668.6v-174.83h43.71v141.17h82.53v33.66h-126.24Z"/>
      <path class="st0" d="M661.42,668.6v-64.34l-62.71-110.49h45.61l39.09,72.48,39.09-72.48h45.61l-62.71,110.49v64.34h-43.98Z"/>
      <g>
        <path class="st0" d="M321.8,477.31v-174.83h37.46l74.38,104.52v-104.52h43.98v174.83h-37.73l-74.38-104.24v104.24h-43.71Z"/>
        <path class="st0" d="M505.31,477.31v-174.83h128.95v33.66h-85.24v36.65h75.2v34.21h-75.2v36.65h85.24v33.66h-128.95Z"/>
      </g>
    </g>
    <path class="st0" d="M278.1,320.52c-14.84-14.12-36.47-21.18-64.88-21.18s-50.05,7.06-64.88,21.18c-11.15,10.6-18.1,26.36-20.88,47.28h45.17c1.67-8.07,4.36-14.41,8.15-18.91,6.79-8.05,17.6-12.08,32.44-12.08s25.38,4.03,32.17,12.08c6.79,8.05,10.18,21.85,10.18,41.4,0,17.91-3.39,31.08-10.18,39.5-6.79,8.41-17.51,12.62-32.17,12.62s-25.66-4.21-32.44-12.62c-3.34-4.15-5.85-9.46-7.55-15.9h-45.41c2.98,18.86,9.8,33.54,20.52,44,14.84,14.48,36.47,21.72,64.88,21.72s50.04-7.24,64.88-21.72c14.84-14.48,22.26-37.01,22.26-67.59,0-32.4-7.42-55.65-22.26-69.77Z"/>
  </g>
</svg>