<?xml version="1.0" encoding="UTF-8"?>
<svg id="Layer_1" xmlns="http://www.w3.org/2000/svg" version="1.1" viewBox="0 0 1366 289.04">
  <!-- Generator: Adobe Illustrator 29.8.4, SVG Export Plug-In . SVG Version: 2.1.1 Build 6)  -->
  <defs>
    <style>
      .st0 {
        fill: #fff;
      }

      .st1 {
        fill: #294d96;
      }

      .st2 {
        fill: #d90c19;
      }
    </style>
  </defs>
  <path class="st1" d="M745.24,145.94c25.77,0,51.55,0,77.32,0,3.51,0,3.78.31,3.83,3.86.06,4.34.24,8.67.26,13.01,0,1.58-.79,2.73-2.55,2.85-.61.04-1.22.01-1.84.01-34,0-68,0-102.01,0-4.06,0-4.51.45-4.51,4.6,0,2.65-.01,5.3,0,7.95.02,2.37.67,3.14,2.99,3.53.53.09,1.08.07,1.63.07,27.81,0,55.63.07,83.44-.06,5.23-.03,10.23.44,14.97,2.71,6.63,3.17,10.35,8.72,12,15.59,1.19,4.97,2.32,10.1,2.33,15.16.02,8.48-1.02,16.96-6.07,24.25-4.85,7-11.5,10.69-20.14,10.69-46.45-.02-92.89-.01-139.34-.01-3.51,0-3.73-.22-3.73-3.68,0-5.57,0-11.15,0-16.72,0-2.82.61-3.41,3.49-3.41,33.25,0,66.51.01,99.76-.02,3.38,0,6.77-.2,10.15-.45,3.93-.29,6.6-2.65,7.19-6.53.29-1.92.3-3.96,0-5.89-.63-4.07-3.55-6.12-8.48-6.18-13.11-.14-26.22-.26-39.33-.35-5.44-.04-10.88-.03-16.32,0-17.12.1-34.24.23-51.37.34-.68,0-1.37.04-2.03-.07-2.38-.42-3.1-1.28-3.11-3.72-.02-5.57,0-11.15,0-16.72,0-12.3,0-24.6,0-36.9,0-3.23.69-3.91,3.95-3.91,25.84,0,51.68,0,77.53,0Z"/>
  <path class="st2" d="M1010.84,232.24c-5.44,0-10.88-.08-16.32.04-1.97.05-2.96-.7-3.61-2.48-3.63-9.92-7.29-19.83-11.03-29.71-.36-.95-1.26-2.09-2.12-2.32-.59-.16-1.79.98-2.32,1.79-6.41,9.91-12.78,19.85-19.07,29.83-1.16,1.84-2.42,2.7-4.73,2.65-8.43-.16-16.86-.09-25.29-.04-1.53.01-2.5-.47-3.33-1.78-6.36-10.02-12.76-20.02-19.22-29.98-.68-1.05-1.86-1.78-2.81-2.66-.78,1.02-1.86,1.92-2.3,3.07-3.63,9.56-7.18,19.15-10.66,28.76-.72,1.99-1.72,2.87-3.98,2.85-10.81-.12-21.62-.05-32.43-.05-3.4,0-4.15-1.04-2.98-4.2,7.08-19.12,14.17-38.24,21.25-57.36,1.55-4.19,3.18-8.36,4.62-12.59.58-1.69,1.56-2.42,3.26-2.42,10.27,0,20.53-.05,30.8.08.96.01,2.25.94,2.82,1.81,8.2,12.63,16.31,25.32,24.44,37.99.51.8,1.01,1.62,1.55,2.39,1.38,1.96,2.81,1.93,4.13-.11,3.27-5.07,6.52-10.16,9.78-15.25,5.34-8.34,10.71-16.66,16.01-25.02.87-1.37,1.92-1.91,3.5-1.91,9.93.04,19.85.05,29.78,0,1.97,0,3.08.7,3.78,2.61,8.53,23.2,17.13,46.39,25.7,69.58.28.75.48,1.56.51,2.36.05,1.75-1.12,2.07-2.59,2.06-5.71-.03-11.42-.01-17.13-.01Z"/>
  <path class="st1" d="M371.86,173.1c.71.46,1.38.99,2.13,1.35,3.97,1.91,7.94,3.85,11.97,5.64,1.84.82,2.66,1.9,2.64,4.01-.1,15.09-.08,30.18-.1,45.26,0,3.03-.99,4.04-4.01,4.05-10.95.01-21.9.01-32.85,0-3.03,0-4.09-1.01-4.09-3.98-.02-23.99-.01-47.98,0-71.97,0-2.37.67-2.96,3.29-2.96,21.29,0,42.57,0,63.86,0,19.72,0,39.44.15,59.16-.08,7.03-.08,12.43,4.95,12.26,12.36-.19,7.88-.24,15.77.02,23.65.21,6.45-4.32,10.23-9.68,11.1-2.32.38-4.72.33-7.08.42-2.24.08-2.48.44-1.32,2.34,5.89,9.6,11.79,19.19,17.7,28.79,2.63,4.28,5.29,8.54,7.91,12.82,1.05,1.71.62,2.57-1.38,2.58-11.76.03-23.53.07-35.29-.07-1.09-.01-2.57-1.03-3.18-2.01-7.33-11.67-14.52-23.41-21.75-35.14-1.28-2.08-2.65-4.11-3.81-6.26-1.23-2.27-3.13-3-5.54-3-7.07.02-14.15-.04-21.22.04-1.73.02-2.21-.55-2.16-2.21.11-3.87.12-7.75,0-11.62-.06-1.8.53-2.31,2.32-2.3,14.28.07,28.56.04,42.84.04,2.79,0,3.01-.21,3.02-3.02,0-2.79-.02-5.57,0-8.36.01-1.79-.64-2.76-2.63-2.75-23.39.03-46.79.01-70.18.04-.89,0-1.78.36-2.68.55l-.17.68Z"/>
  <path class="st1" d="M570.63,154.5c18.83,0,37.67.13,56.5-.07,6.76-.07,12.12,5.16,12.03,11.93-.22,18.41-.3,36.83.03,55.24.15,8.04-6.01,11.17-11.35,11.75-.74.08-1.49.06-2.24.06-37.39,0-74.79,0-112.18,0-5.99,0-10.29-2.84-11.75-7.84-.39-1.34-.62-2.78-.62-4.18-.04-18.21.17-36.42-.11-54.63-.14-8.82,6.57-12.23,12.39-12.25,16.86-.05,33.72-.02,50.58-.02,2.24,0,4.49,0,6.73,0ZM524.17,172.39c-.04.2-.07.41-.11.61.61.44,1.18.97,1.85,1.29,4.22,2.01,8.43,4.04,12.71,5.93,1.91.84,2.53,2.14,2.51,4.14-.06,9.64.01,19.29-.06,28.93-.01,1.82.44,2.48,2.38,2.47,18.35-.07,36.7-.07,55.05,0,1.9,0,2.47-.63,2.46-2.47-.06-12.9-.02-25.81-.03-38.71,0-2.26-.46-2.73-2.76-2.73-23.65-.01-47.3-.01-70.95.02-1.01,0-2.03.34-3.04.52Z"/>
  <path class="st2" d="M1317.81,232.65c-7.96,0-15.91-.03-23.87.03-1.73.01-3.1-.47-4.43-1.6-4.65-3.95-9.42-7.76-14.08-11.7-1.4-1.19-2.48-1.19-3.89.02-4.7,3.99-9.44,7.95-14.29,11.75-1.07.84-2.67,1.43-4.02,1.44-16.05.1-32.09.06-48.14.07-1.24,0-2.81.17-2.98-1.34-.11-.96.62-2.35,1.42-3.01,9.93-8.31,19.95-16.51,29.94-24.75,2.88-2.37,5.75-4.75,8.61-7.14,2.28-1.91,2.31-2.56.08-4.4-12.75-10.54-25.51-21.06-38.27-31.58-.42-.35-.99-.63-1.2-1.07-.35-.74-.78-1.68-.58-2.36.17-.57,1.15-.97,1.85-1.28.4-.18.94-.04,1.41-.04,15.84,0,31.69.02,47.53-.02,1.88,0,3.36.57,4.79,1.78,4.55,3.86,9.22,7.58,13.76,11.44,1.46,1.24,2.58,1.3,4.07.03,4.6-3.91,9.22-7.79,13.99-11.48,1.23-.96,3.03-1.66,4.57-1.67,15.91-.12,31.82-.1,47.73-.02,1.05,0,2.55.51,3.05,1.29.83,1.29-.37,2.3-1.42,3.16-12.78,10.5-25.55,21.02-38.32,31.54-2.47,2.03-2.5,2.82-.03,4.86,12.75,10.54,25.51,21.07,38.27,31.6.21.17.52.3.61.52.38.87,1.14,1.92.89,2.6-.23.65-1.53,1.28-2.37,1.29-8.23.09-16.45.06-24.68.06Z"/>
  <path class="st1" d="M262.32,233.42c-18.29,0-36.58-.12-54.86.06-7.66.08-12.59-5.16-12.53-12.51.17-21.27.06-42.53.06-63.8q0-2.66,2.71-2.66c11.56,0,23.12.04,34.67-.04,1.87-.01,2.4.52,2.4,2.39-.07,18.62-.04,37.23-.04,55.85q0,3.02,3.06,3.02c16.52,0,33.04,0,49.56,0q2.7,0,2.71-2.68c0-18.68.03-37.37-.04-56.05,0-1.97.56-2.54,2.52-2.53,11.69.08,23.39.07,35.08,0,1.65,0,2.22.42,2.22,2.15-.05,22.08-.02,44.16-.04,66.25,0,5.65-4.71,10.38-10.57,10.5-5.64.12-11.28.05-16.93.05-13.33,0-26.65,0-39.98,0Z"/>
  <path class="st2" d="M391.45,26c13.73,0,27.47-.03,41.2,0,11.2.03,21.35,9.41,22.19,20.41.93,12.28-6.24,20.68-16.15,23.79-17.39,5.46-34.64,11.37-51.95,17.11-3.41,1.13-6.82,2.26-10.2,3.47-1.64.59-3.03,1.63-2.55,3.6.46,1.94,2.13,2.17,3.88,2.17,22.57-.02,45.14-.02,67.72.01,1.12,0,2.49.05,3.31.65.96.71,1.98,2.02,2.04,3.13.23,4.27.12,8.56.09,12.84-.02,2.56-1.76,4.31-4.33,4.46-.34.02-.68,0-1.02,0-26.72,0-53.44,0-80.16,0-10.73,0-19.9-6.71-22.66-16.51-3.58-12.73,3.34-25.14,16.05-29.11,19.79-6.19,39.55-12.51,59.32-18.77.45-.14.92-.25,1.35-.45,1.48-.7,2.76-1.63,2.5-3.51-.24-1.77-1.66-2.84-3.61-2.84-10.81,0-21.62,0-32.43,0-11.83,0-23.66,0-35.49,0-3.77,0-5.09-1.34-5.1-5.16,0-3.33,0-6.66,0-9.99,0-3.93,1.35-5.3,5.21-5.3,13.6,0,27.2,0,40.79,0Z"/>
  <path class="st2" d="M141.75,117.65c-13.46,0-26.93,0-40.39,0-3.95,0-5.63-1.71-5.63-5.71,0-3.6,0-7.2,0-10.8,0-2.74,1.35-4.25,4.1-4.57.6-.07,1.22-.02,1.83-.02,22.3,0,44.6,0,66.91,0,.61,0,1.35.21,1.81-.07.91-.55,2.06-1.22,2.36-2.1.26-.76-.27-2.16-.93-2.76-.9-.83-2.21-1.3-3.42-1.69-20.28-6.69-40.54-13.41-60.86-19.99-10.88-3.53-16.24-12.97-15.4-23.11.89-10.83,9.1-19.19,19.62-20.55,1.34-.17,2.7-.26,4.05-.26,26.86-.01,53.72-.01,80.57-.01,3.46,0,4.68,1.18,4.69,4.6.01,3.74.01,7.48,0,11.21-.01,3.51-1.13,4.63-4.62,4.63-22.1,0-44.2,0-66.3,0-.61,0-1.22,0-1.84,0-1.81-.02-2.94.89-3.4,2.61-.5,1.85.64,2.85,2.08,3.47,1.74.74,3.55,1.31,5.36,1.88,18.68,5.9,37.36,11.79,56.04,17.68,10.06,3.17,16.72,12.08,16.56,22.88-.16,10.67-7.54,19.69-17.77,22.06-1.7.39-3.49.6-5.24.61-13.39.05-26.79.03-40.19.03Z"/>
  <path class="st1" d="M68.45,173.06c.7.46,1.37.99,2.12,1.36,3.96,1.94,7.91,3.89,11.92,5.74,1.52.7,2.06,1.71,2.05,3.33-.05,9.92.03,19.85-.07,29.77-.02,2.01.65,2.52,2.57,2.51,29.85-.05,59.71-.04,89.56-.03,3.03,0,3.04.01,3.04,3.11,0,4.08-.07,8.16.03,12.23.05,1.82-.67,2.49-2.39,2.35-.27-.02-.54,0-.82,0-39.92,0-79.84,0-119.75,0-5.99,0-10.11-2.79-11.62-7.97-.41-1.41-.65-2.92-.65-4.38-.04-18.28-.03-36.56-.03-54.85,0-6.69,4.5-11.38,11.22-11.69.61-.03,1.22-.03,1.84-.03,39.71,0,79.43,0,119.14,0q3.01,0,3.02,3.04c0,4.01-.05,8.02.03,12.03.03,1.63-.45,2.29-2.19,2.3-16.24.07-32.48.3-48.71.3-18.82,0-37.64-.22-56.47-.31-1.23,0-2.46.28-3.69.44-.05.25-.1.51-.16.76Z"/>
  <path class="st2" d="M219.77,63c0-10.81,0-21.61,0-32.42,0-3.22,1.35-4.58,4.57-4.58,7.21,0,14.42,0,21.63,0,3.46,0,4.72,1.29,4.72,4.83,0,17.81.14,35.61-.07,53.42-.08,7.04,5.41,12.7,12.35,12.37,7.06-.34,14.14-.07,21.21-.07,7.12,0,12.13-5.02,12.14-12.2.01-17.81,0-35.61,0-53.42,0-3.57,1.34-4.92,4.86-4.93,6.94,0,13.87,0,20.81,0,2.95,0,4.22,1.12,4.55,4.03.06.54.03,1.09.03,1.63,0,20.32,0,40.64,0,60.96,0,5.48-1,10.69-4.32,15.19-4.5,6.08-10.44,9.56-18.18,9.59-19.71.08-39.43.17-59.14.25-7.48.03-13.98-2.32-19.14-7.93-3.83-4.16-5.99-9.03-6.02-14.71-.06-10.67-.02-21.34-.02-32.01Z"/>
  <path class="st2" d="M577.68,63.17c0,10.53,0,21.06,0,31.59,0,11.54-8.74,21.34-20.18,22.62-1.54.17-3.11.26-4.66.26-17.68.02-35.35.06-53.03-.03-3.64-.02-7.38-.09-10.9-.89-10.52-2.4-17.79-11.9-17.79-22.7,0-20.93,0-41.85,0-62.78,0-4.03,1.21-5.25,5.19-5.25,6.93,0,13.87,0,20.8,0,3.42,0,4.66,1.22,4.66,4.65.01,17.87,0,35.74,0,53.61,0,7.29,4.99,12.29,12.25,12.29,7.21,0,14.41,0,21.62,0,7,0,12.02-5.05,12.02-12.08,0-17.73,0-35.47,0-53.2,0-4.19,1.1-5.27,5.33-5.27,6.66,0,13.32,0,19.99,0,3.62,0,4.68,1.07,4.68,4.77,0,10.8,0,21.61,0,32.41Z"/>
  <path class="st2" d="M1114.95,155.67c10,0,19.99.04,29.99-.04,1.91-.02,2.97.67,3.81,2.35,11.59,23.34,23.23,46.65,34.86,69.97,1.54,3.09.82,4.28-2.54,4.28-10.81,0-21.62-.03-32.44.03-1.78,0-2.82-.55-3.64-2.21-8.17-16.46-16.44-32.87-24.61-49.33-.83-1.68-1.8-2.42-3.74-2.36-7.33.25-5.56-1.21-9.03,5.7-7.8,15.51-15.5,31.08-23.34,46.57-.41.82-1.73,1.67-2.64,1.68-11.42.11-22.85.09-34.27.06-1.87,0-2.58-.96-2.15-2.76.14-.58.44-1.13.71-1.67,11.59-23.25,23.21-46.49,34.75-69.77.91-1.84,2.04-2.56,4.1-2.55,10.06.09,20.13.04,30.19.04Z"/>
  <path class="st2" d="M44.72,71.61c0-13.59,0-27.18,0-40.76,0-3.44,1.37-4.84,4.76-4.85,7,0,14,0,21.01,0,3.41,0,4.89,1.44,4.89,4.78,0,27.31,0,54.62,0,81.94,0,3.36-1.59,4.93-5.01,4.94-6.8.01-13.6.01-20.39,0-3.85,0-5.26-1.44-5.26-5.28,0-13.59,0-27.18,0-40.76Z"/>
  <path class="st0" d="M1097.65,94.16c9.46,11.16,18.67,22.04,28.22,33.31-5.64,0-10.77.03-15.9-.05-.56,0-1.23-.53-1.63-1-8.67-10.07-17.32-20.14-25.93-30.27-1.08-1.27-2.14-1.94-3.92-1.88-4.48.16-8.96.05-13.69.05v17.83h-12.53v-29.41c.75,0,1.53,0,2.32,0,11.62,0,23.25,0,34.87,0,.81,0,1.66.05,2.43-.15,1.66-.43,2.73-1.48,2.76-3.3.03-1.83-1.1-2.69-2.71-3.03-.72-.15-1.48-.15-2.22-.15-11.69,0-23.38,0-35.07,0h-2.37v-11.29h2.15c14.75,0,29.5,0,44.25,0,5.32,0,8.92,3.6,8.93,8.92,0,3.74,0,7.47,0,11.21,0,6.08-1.92,8.24-8.01,9.01-.52.07-1.05.12-1.94.22Z"/>
  <path class="st0" d="M1315.71,112.28c-8.02,0-16.05-.04-24.07.03-1.54.01-2.01-.45-1.95-1.97.11-2.71.12-5.44,0-8.15-.07-1.57.51-1.94,1.99-1.93,12.37.05,24.75.03,37.12.03.68,0,1.56.22,1.99-.12.94-.72,2.08-1.62,2.37-2.65.46-1.63-.68-2.88-2.22-3.4-1.06-.36-2.25-.46-3.39-.46-9.59-.03-19.17-.02-28.76-.02-4.08,0-7.53-3.39-7.55-7.43-.02-4.55-.02-9.11,0-13.66.02-4.43,3.27-7.71,7.71-7.72,14.28-.02,28.56.01,42.83-.04,1.49,0,2.06.38,1.98,1.94-.12,2.58-.11,5.17,0,7.74.07,1.53-.43,1.97-1.96,1.96-11.22-.06-22.44-.03-33.65-.03-3.03,0-3.91.61-3.99,2.76-.09,2.23,1.4,3.58,4.18,3.59,9.86.03,19.72.01,29.58.01,5.27,0,8.19,2.83,8.25,8.12.06,4.69.08,9.38,0,14.07-.08,3.88-2.02,7.58-7.42,7.41-7.67-.25-15.36-.06-23.05-.06Z"/>
  <path class="st0" d="M871.03,112.28c-5.03,0-10.07-.21-15.09.05-8.93.46-14.86-7.3-15.12-14.59-.22-6.18-.1-12.37-.03-18.55.07-7.01,6.83-14.83,14.88-14.48,9.91.44,19.85.1,29.78.11,7.85,0,14.7,6.75,14.76,14.59.05,6.39,0,12.77.01,19.16.02,6.98-7.49,14.37-13.89,13.81-5.06-.45-10.19-.09-15.29-.09ZM870.77,99.88h0c3.6-.01,7.21.08,10.81-.04,3.83-.13,5.79-2.28,5.8-6.09.01-3.33.01-6.66,0-9.99-.02-4.42-2.6-7.18-7-7.23-6.46-.08-12.92-.05-19.38,0-3.51.03-7.1,3.28-7.19,6.53-.09,3.19-.22,6.4.03,9.58.36,4.52,2.22,7.52,7.54,7.28,3.12-.14,6.26-.03,9.38-.03Z"/>
  <path class="st0" d="M789.85,93.97v-11.43c5.9.22,11.83-.23,17.48.82,8.61,1.59,11.57,8.21,10.77,16.04-.39,3.78-1.72,7.2-4.65,9.87-2.1,1.92-4.54,2.97-7.34,2.99-9.31.05-18.63-.04-27.94.04-5.41.05-14.52-6.7-14.19-14.27.29-6.58.05-13.18.06-19.77.02-6.9,6.55-13.45,13.44-13.45,12.44-.01,24.88.03,37.32-.04,1.67,0,2.27.42,2.19,2.15-.13,2.97-.04,5.95-.04,9.17-.91,0-1.64,0-2.36,0-9.79,0-19.58.09-29.36-.04-4.29-.06-8.67,3.12-8.2,8.22.26,2.76.04,5.57.05,8.35,0,5.12,2.81,8.2,7.92,8.34,5.23.14,10.47.16,15.7-.06,1.37-.06,3.14-.86,3.95-1.91,1.72-2.25-.07-4.85-3.27-4.93-3.4-.09-6.8-.02-10.2-.02-.4,0-.79-.04-1.34-.06Z"/>
  <path class="st0" d="M744.88,64.92h12.53c.03.76.09,1.42.09,2.08,0,11.55.24,23.11-.07,34.65-.26,9.74-7.99,14.07-16.74,11.22-1.76-.57-3.33-2.33-4.54-3.89-7.51-9.69-14.87-19.5-22.36-29.21-.6-.77-1.85-1.51-2.76-1.46-1.54.09-1.27,1.6-1.27,2.74,0,9.72,0,19.43,0,29.15,0,.6,0,1.2,0,1.94h-12.53c-.03-.69-.09-1.4-.09-2.12,0-11.28,0-22.56,0-33.84,0-5.34,2.94-9.94,7.39-11.57,5.31-1.94,11-.45,14.48,3.97,7.17,9.1,14.28,18.25,21.41,27.37.33.42.61,1.01,1.05,1.2.76.33,1.9.82,2.4.5.6-.38.96-1.55.97-2.38.07-8.29.04-16.58.04-24.87,0-1.76,0-3.53,0-5.51Z"/>
  <path class="st0" d="M672.6,112.12c-1.05.08-1.63.15-2.21.15-5.98,0-11.97.04-17.95-.04-.93-.01-2-.36-2.75-.91-7.13-5.19-14.2-10.45-21.29-15.69-.63-.47-1.27-.93-2.25-1.63v18.25c-3.99,0-7.78.03-11.57-.04-.33,0-.78-.58-.94-.99-.17-.41-.05-.94-.05-1.41,0-14.14,0-28.27,0-42.41q0-2.6,2.69-2.6c3.18,0,6.37,0,9.75,0v17.47c1.32-.93,2.29-1.59,3.24-2.29,6.44-4.74,12.87-9.51,19.33-14.23.62-.45,1.44-.9,2.17-.91,6.05-.07,12.1-.04,18.16-.03.24,0,.48.12,1.07.27-2.83,2.02-5.38,3.87-7.97,5.69-6.54,4.61-13.09,9.2-19.64,13.8-2.5,1.76-2.55,4.86,0,6.61,9.32,6.44,18.67,12.83,28,19.25.64.44,1.24.93,2.22,1.68Z"/>
  <path class="st0" d="M1283.69,65.03c-4.08,2.9-7.82,5.56-11.56,8.2-5.59,3.95-11.19,7.89-16.77,11.85-1.5,1.06-1.41,4.71.12,5.77,9.66,6.65,19.32,13.29,28.98,19.94.49.33.95.7,1.86,1.37-1.15.06-1.8.12-2.44.12-5.91,0-11.83.06-17.74-.04-1.06-.02-2.27-.44-3.12-1.06-7.45-5.42-14.84-10.94-22.24-16.42-.21-.15-.44-.28-.9-.57-.07.75-.17,1.31-.17,1.86-.01,4.76-.06,9.51.02,14.27.02,1.46-.31,2.07-1.91,2.01-3.45-.11-6.91-.03-10.5-.03v-47.45c3.81,0,7.65-.04,11.49.07.31,0,.84,1.07.85,1.66.07,4.41.04,8.83.04,13.25,0,.67,0,1.34,0,2.46,2.54-1.83,4.77-3.42,6.97-5.04,5.24-3.85,10.46-7.74,15.72-11.56.61-.45,1.45-.81,2.19-.82,5.91-.07,11.83-.04,17.74-.03.31,0,.61.09,1.36.22Z"/>
  <path class="st0" d="M1047.51,76.52h-22.44c0,.9,0,1.68,0,2.46,0,10.4-.04,20.79.04,31.19.01,1.73-.54,2.17-2.2,2.14-5.44-.09-10.88-.11-16.31,0-1.76.04-2.14-.58-2.13-2.22.07-10.33.03-20.65.03-30.98,0-.81,0-1.61,0-2.65h-22.4v-11.66c.67,0,1.39,0,2.1,0,20.33,0,40.65.03,60.98-.04,1.89,0,2.47.51,2.37,2.39-.15,3.03-.04,6.08-.04,9.37Z"/>
  <path class="st0" d="M1124.74,64.81v2.39c0,8.29-.09,16.58.07,24.87.03,1.8.66,3.73,1.51,5.33,1.11,2.09,3.08,2.99,5.61,2.93,5.3-.13,10.61-.04,15.91-.04,4.28,0,7.11-2.88,7.12-7.25,0-8.56,0-17.12,0-25.69v-2.39h13.04v2.05c0,10.4.02,20.79,0,31.19-.02,5.58-2.97,9.62-7.28,12.68-1.28.91-3.16,1.32-4.77,1.34-9.52.12-19.04-.16-28.55.13-8.11.25-13.54-6.47-14.78-12.84-.35-1.78-.35-3.64-.36-5.46-.03-9.04.03-18.08-.05-27.11-.02-1.71.49-2.22,2.18-2.16,3.38.12,6.77.04,10.37.04Z"/>
  <path class="st0" d="M1221.35,64.81v11.29c-.82,0-1.55,0-2.28,0-8.5,0-16.99,0-25.49,0-4.79,0-8.05,3.25-8.05,8.01,0,3.06,0,6.11,0,9.17.02,4.35,2.64,7,6.93,7,9.04,0,18.08.04,27.12-.03,1.66-.01,2.28.4,2.2,2.14-.14,2.78-.07,5.57-.02,8.35.02,1.14-.37,1.55-1.53,1.55-11.21-.03-22.43.17-33.64-.08-8.13-.19-13.98-6.66-13.98-14.74,0-6.45.13-12.91-.04-19.36-.16-6.25,7.73-13.66,13.41-13.43,10.99.43,22.02.13,33.03.13h2.34Z"/>
  <path class="st0" d="M955.29,76.1h-7.77c-7.55,0-15.09,0-22.64,0-4.56,0-6.5,2.13-6.08,6.9h35.52v10.98h-35.54v18.3c-3.16,0-6.11.02-9.06,0-4.13-.04-3.55.57-3.56-3.55-.03-9.78.22-19.57-.08-29.35-.25-8.34,7.92-14.96,14.73-14.69,10.79.43,21.61.15,32.42.08,1.58,0,2.16.4,2.08,2.05-.13,2.98-.04,5.96-.04,9.27Z"/>
  <path class="st1" d="M129.93,185.9c10.66,0,21.33,0,31.99,0q2.62,0,2.62,2.7c0,3.8-.05,7.6.02,11.4.03,1.51-.49,1.99-2,1.99-21.87-.04-43.74-.04-65.62,0-1.55,0-1.98-.56-1.96-2.03.07-4,.1-8.01-.01-12.01-.05-1.68.6-2.07,2.14-2.07,10.94.05,21.87.02,32.81.02Z"/>
  <path class="st0" d="M678.08,64.91h12.39v47.21h-12.39v-47.21Z"/>
</svg>