<?xml version="1.0" encoding="UTF-8"?>
<svg id="Layer_1" xmlns="http://www.w3.org/2000/svg" version="1.1" viewBox="0 0 870 424.08">
  <!-- Generator: Adobe Illustrator 29.8.4, SVG Export Plug-In . SVG Version: 2.1.1 Build 6)  -->
  <defs>
    <style>
      .st0 {
        fill: #fff;
      }

      .st1 {
        fill: #d0d4e0;
      }

      .st2 {
        fill: #e3292d;
      }
    </style>
  </defs>
  <g>
    <g>
      <path d="M802.64,56.32l-483.52,71.46c-2.29.34-3.76-2.35-2.24-4.1l42.36-48.47c3.57-4.08-1.05-10.11-5.92-7.73l-98.97,48.43c-1.58.77-3.06,1.72-4.41,2.84l-16.66,13.73c-1.54,1.27-3.73,1.37-5.38.25l-18.76-12.78c-1.9-1.29-4.21-1.82-6.48-1.49l-101.22,14.96c-4.14.61-5.53,5.89-2.22,8.46l57.9,44.93c1.04.81,1.14,2.35.21,3.28l-103.3,103.36c-4.29,4.29.88,11.23,6.22,8.36l147.14-79.2c2-1.08,4.42-.99,6.34.22l16.97,10.69c1.85,1.16,4.05,1.63,6.21,1.31l101.08-14.94c4.14-.61,5.53-5.89,2.22-8.46l-25.46-19.75c-2.05-1.59-1.19-4.86,1.38-5.24l468.87-69.29c3.7-.55,6.79-3.13,7.98-6.68l15.76-46.86c1.32-3.94-1.98-7.89-6.09-7.28Z"/>
      <path class="st1" d="M498.33,128.04c-.6,1.79-1.2,3.57-1.8,5.36-.23.7-1.04,1.36-1.81,1.47l-45.37,6.71c-.77.11-1.58.77-1.81,1.47l-1.66,4.93c-.3.9.25,1.5,1.24,1.36l44.58-6.59c.98-.15,1.54.46,1.24,1.36-.59,1.76-1.18,3.52-1.77,5.29-.23.7-1.04,1.35-1.81,1.46l-69.83,10.32c-.98.15-1.54-.46-1.24-1.36,4.18-12.45,8.35-24.91,12.53-37.37.23-.7,1.04-1.35,1.81-1.46l69.83-10.32c.98-.15,1.54.46,1.24,1.36-.61,1.82-1.22,3.64-1.83,5.45-.23.7-1.04,1.35-1.81,1.47l-45.37,6.71c-.77.11-1.58.77-1.81,1.47l-1.6,4.79c-.3.9.25,1.5,1.24,1.36l44.58-6.59c.99-.15,1.54.46,1.24,1.36M411.7,145.11c-.36-.02-32.75-1.27-41.02-1.58-.68-.02-.95-.53-.62-1.51.25-.73.69-2.05.94-2.79.24-.69.97-1.35,1.62-1.44l43.7-6.46c.66-.1,1.38-.74,1.62-1.43.61-1.82,1.22-3.65,1.84-5.47.3-.89-.14-1.51-.98-1.39l-70.72,10.45c-.65.1-1.37.73-1.6,1.42-1.18,3.51-2.7,8.03-4.32,12.83-.33.98-.07,1.47.62,1.51.72.04,33.09,1.9,40.77,2.34.68.04.95.53.62,1.5-.42,1.26-1.06,3.15-1.48,4.42-.24.69-.96,1.34-1.62,1.43l-43.72,6.46c-.66.1-1.38.74-1.62,1.43-.61,1.82-1.22,3.64-1.84,5.47-.3.89.14,1.51.97,1.38l70.72-10.45c.66-.1,1.37-.73,1.6-1.43,1.3-3.86,3.61-10.74,5.11-15.19.33-.97.07-1.48-.62-1.5M623.8,92.73l-21.53,3.18c-.76.11-1.57.77-1.81,1.46-4.18,12.45-8.35,24.91-12.53,37.37-.3.89.26,1.5,1.24,1.36l21.53-3.18c.76-.11,1.58-.77,1.81-1.47.59-1.77,11.92-35.54,12.53-37.36.3-.89-.25-1.5-1.24-1.36M795.61,67.34l-70.72,10.45c-.65.1-1.36.73-1.6,1.42-1.18,3.51-2.7,8.03-4.32,12.83-.33.98-.07,1.47.62,1.51.72.04,33.1,1.9,40.77,2.34.68.04.95.53.62,1.5-.43,1.26-1.06,3.15-1.49,4.42-.23.69-.95,1.34-1.62,1.43l-43.72,6.46c-.66.1-1.38.74-1.62,1.43-.61,1.82-1.22,3.64-1.84,5.47-.3.89.14,1.51.98,1.38l70.72-10.45c.66-.1,1.37-.73,1.6-1.43,1.3-3.86,3.61-10.74,5.11-15.19.33-.98.07-1.48-.62-1.5-.35-.02-32.75-1.27-41.01-1.58-.69-.02-.95-.53-.62-1.51.24-.73.69-2.05.94-2.79.23-.69.97-1.35,1.62-1.44l43.7-6.46c.65-.1,1.38-.74,1.62-1.43.61-1.82,1.22-3.65,1.84-5.47.3-.89-.13-1.51-.98-1.39M586.26,99.82c-1.86,5.54-6.8,20.2-7.87,23.39-.24.7-.98,1.34-1.67,1.45l-8.35,1.24c3.18,4.48,1.36,1.92,7.54,10.63.54.77.19,1.51-.79,1.66l-18.1,2.68c-.76.11-1.73-.28-2.16-.88-.73-1.02-4.82-6.79-7.75-10.93l-15.3,2.27c-.69.1-1.43.75-1.67,1.44-1.28,3.81-2.59,7.64-3.88,11.45-.23.7-.98,1.34-1.67,1.44l-21.95,3.24c-.88.13-1.35-.49-1.05-1.38,4.19-12.45,8.38-24.91,12.57-37.37.24-.7.98-1.34,1.67-1.44l69.36-10.25c.88-.13,1.35.49,1.06,1.39M534.89,123.1l19.68-2.91c.68-.1,1.43-.74,1.67-1.44.76-2.28,1.56-4.63,2.32-6.91.3-.9-.81-1.42-1.7-1.29l-19.03,2.81c-.68.1-1.43.75-1.67,1.44-.76,2.28-1.56,4.63-2.32,6.91-.3.9.17,1.52,1.05,1.39M704.63,96.01l-44.58,6.59c-.98.15-1.54-.46-1.24-1.36l1.6-4.79c.24-.69,1.05-1.35,1.81-1.47l45.37-6.71c.76-.11,1.57-.77,1.81-1.47.61-1.82,1.22-3.63,1.83-5.45.3-.89-.25-1.5-1.24-1.36l-69.83,10.32c-.76.11-1.57.77-1.81,1.46-4.18,12.45-8.35,24.91-12.53,37.37-.3.89.26,1.5,1.24,1.36l69.83-10.32c.76-.11,1.57-.77,1.81-1.47.59-1.77,1.18-3.53,1.77-5.29.3-.9-.25-1.51-1.24-1.36l-44.58,6.59c-.99.15-1.54-.46-1.24-1.36l1.66-4.93c.23-.7,1.04-1.35,1.81-1.47l45.37-6.71c.76-.11,1.57-.77,1.81-1.47.6-1.78,1.2-3.57,1.8-5.36.3-.9-.25-1.5-1.24-1.36"/>
      <g>
        <g>
          <polygon class="st1" points="178.89 182.69 131.18 145.67 121.95 147.03 174.05 187.46 178.89 182.69"/>
          <polygon class="st1" points="223.8 158.74 195.06 139.14 158.06 144.61 165.41 150.07 192.53 146.06 220.74 164.99 251.13 135.78 248.66 137.33 223.8 158.74"/>
          <polygon class="st1" points="134.02 243.52 135.19 243.03 199.46 183.81 197.01 181.99 134.02 243.52"/>
        </g>
        <g>
          <polygon class="st1" points="284.01 202.16 242.8 171.54 237.66 176.18 274.51 203.57 284.01 202.16"/>
          <polygon class="st1" points="237.75 218.06 212.7 202.29 192.29 211.53 188.11 214.51 208.6 207.95 235.72 225.02 315.43 213.24 308.23 207.65 237.75 218.06"/>
          <polygon class="st1" points="262.88 163.93 265.38 165.88 338.19 85.46 337.38 85.86 262.88 163.93"/>
        </g>
      </g>
      <path class="st1" d="M326.2,158.78l-28.06,4.15-6.93-4.81,7.45-7.07,31.58-4.67c.91-.14,1.29.06.85,1.38-.5,1.5-2.75,8.31-3.15,9.53-.35,1.03-1.02,1.38-1.73,1.49Z"/>
      <g>
        <polygon class="st2" points="201.93 177.18 158.06 144.61 195.06 139.14 223.8 158.74 251.21 135.13 228.98 145.41 203.81 128.28 123.97 140.08 178.89 182.69 75.62 284.22 197.59 217.12 134.02 243.52 201.93 177.18"/>
        <polygon class="st2" points="339.01 84.16 253.65 127.23 303.48 107.74 239.69 169.22 284.01 202.16 247.09 207.62 217.86 187.8 189.13 212.97 212.7 202.29 237.75 218.06 317.46 206.28 262.88 163.93 339.01 84.16"/>
      </g>
    </g>
    <g>
      <path class="st2" d="M455.92,93.31c.52-.05,5.45-.77,6-.89,1.15-.25,1.11-.91.95-1.98-.26-1.85-3.46-23.39-3.73-25.24-.13-.87-.38-1.22-1.26-1.19-.56.02-5.71.76-6.52.96-.85.21-1.08.64-.94,1.61l3.81,25.77c.17,1.17.92,1.02,1.69.96Z"/>
      <path class="st2" d="M469.15,75.72c2.61,1.21,11.24,2.71,19.26,4.53,1.29.29,1.47.75,1.34,1.2-.09.31-.63.44-1.36.56-1.89.3-18.07,2.41-19.03,2.58-1.17.21-1.34.61-1.17,1.94.04.31.39,2.69.45,3.03.2,1.23.46,1.66,1.61,1.5,6.85-.94,18.65-2.62,21.13-3.07,3.94-.72,6.02-1.77,7.21-4.18,1.34-2.69.84-7.76-3.88-9.66-2.69-1.08-16.29-3.67-19.12-4.43-.79-.21-1.06-.54-1.03-1.03.04-.58.78-.68,1.1-.73.28-.05,2.95-.41,19.04-2.73.9-.13,1.28-.44,1.24-1.44-.02-.51-.48-3.41-.53-3.72-.2-1.11-.44-1.55-1.62-1.38-1.32.19-17.13,2.46-22.06,3.39-5.53,1.04-6.76,4.09-6.73,7.01.03,2.86,1.4,5.36,4.14,6.63Z"/>
      <path class="st2" d="M558.81,56.89c-5.06,3.51-13.58,9.12-16.1,10.95-3.67,2.67-4.23,5.23-3.66,7.62.64,2.66,2.53,4.83,8.18,4.19,4.96-.56,19.06-2.87,22.51-3.47,1.25-.22,1.23-.72,1.2-1.68-.01-.41-.35-2.53-.4-2.84-.27-1.69-.49-2.07-1.86-1.85-1.07.17-14.88,2.51-18.83,3.05-.63.08-.86-.25-.71-.67.1-.27.47-.56,1.2-1.05,3.07-2.09,11.57-7.48,15.71-11.1,2.46-2.15,3.55-5.43,1.75-8.55-1.38-2.37-3.58-3.08-7.78-2.62-3.25.36-21.63,3.18-22.06,3.25-1.29.21-1.29.77-1.13,2,.04.31.45,3.09.56,3.54.24,1,.88,1.02,1.54.92.43-.06,18.2-2.82,19.41-2.99.57-.08.84.09.93.47.08.33-.07.57-.46.84Z"/>
      <path class="st2" d="M513.96,84.56c1.76-.1,9.49-1.2,12.9-1.99,6.18-1.42,7.39-5.14,6.81-10.05-.38-3.23-2.02-14.86-2.48-17.7-.17-1.06-.41-1.54-1.38-1.48-.82.05-5.8.78-6.3.92-.63.17-1.16.37-.98,1.63.12.81,1.89,12.8,2.24,15.12.44,2.98.29,5.05-3.08,5.79-1.99.43-3.42.65-5.35.74-3.27.16-4.06-.92-4.68-5.09-.38-2.6-1.95-13.36-2.1-14.41-.16-1.05-.34-1.6-1.53-1.47-.85.09-5.53.78-6.04.89-.62.13-1.23.37-1.04,1.67.11.77,1.37,9.7,2.54,17.13,1.5,9.6,7.58,8.46,10.48,8.3Z"/>
      <path class="st2" d="M584.78,73.81c4.1-.23,13.75-1.6,16.57-2.77,4.55-1.88,4.93-5.99,4.4-11.02-.27-2.64-2.13-14.88-2.31-16.08-.14-.95-.43-1.44-1.38-1.37-.91.06-5.66.79-6.08.89-1,.24-1.21.58-1.08,1.6.1.82,2,13.64,2.29,15.92.43,3.36-.54,3.97-1.98,4.6-1.44.63-6.32,1.24-6.95,1.24-1.93.01-3.24-.62-3.78-3.92-.52-3.2-2.23-14.86-2.38-15.91s-.6-1.3-1.42-1.23c-.73.06-5.16.7-6.2.92-1.22.26-1.2.83-1.07,1.83.26,1.97,2.29,15.93,2.83,18.23,1.28,5.45,4.11,7.32,8.54,7.07Z"/>
    </g>
  </g>
  <g>
    <g>
      <path class="st2" d="M252.68,290.3c.17-.5.08-.88-.26-1.15-.35-.27-.8-.45-1.35-.54-.56-.09-1.28-.11-2.18-.05l-12.84,2.2c-1.25.21-2.22.5-2.93.85-.71.36-1.25.66-1.63.91-.6.48-.96.87-1.06,1.16l-.36,1.04c-.28.8.17,1.42,1.33,1.88.48.29,1.16.46,2.02.5,3.32.55,6.58,1.07,9.78,1.55,2.61.49,5.31.94,8.1,1.35,2.78.41,4.93.77,6.44,1.07,1.38.23,2.37.65,2.97,1.25.6.6,1.01,1.21,1.24,1.82.34.69.37,1.48.05,2.38l-2.82,7.5c-.9,2.59-2.32,4.7-4.28,6.35-1.96,1.65-3.92,2.97-5.87,3.95-2.3,1.14-4.81,2.04-7.52,2.69l-26.38,4.52c-3.42.59-5.89.52-7.39-.21-1.51-.72-2.41-1.71-2.7-2.98-.54-1.4-.54-3.09,0-5.05l2.27-6.57,15.87-2.72-1.29,3.73c-.38,1.1.06,1.72,1.33,1.88.55.09,1.3.06,2.23-.1l13.54-2.32c1.24-.21,2.18-.49,2.81-.83.63-.34,1.15-.69,1.57-1.04.45-.45.84-.94,1.17-1.46l.41-1.19c.17-.5.12-.88-.14-1.17-.27-.28-.53-.49-.77-.64-.52-.19-.98-.35-1.38-.47-4.47-.64-8.57-1.25-12.33-1.82-3.2-.48-6.36-.97-9.49-1.46-3.12-.49-5.22-.88-6.29-1.17-1.08-.28-1.75-.78-2.01-1.48-.27-.7-.35-1.44-.22-2.21,0-.84.32-1.79.98-2.84l1.76-5.07c.9-2.59,2.29-4.72,4.19-6.4,1.9-1.68,3.82-3.02,5.78-4.01,2.29-1.14,4.8-2.04,7.52-2.69l26.15-4.48c3.67-.44,6.29-.31,7.87.41,1.58.71,2.54,1.65,2.87,2.81.42,1.33.39,2.88-.07,4.64l-1.45,4.18-15.64,2.68.41-1.19Z"/>
      <path class="st2" d="M267.64,252.16c.56.51.85,1.14.88,1.88.12.92-.08,1.93-.62,3.05l20.78-3.56-2.89,8.35-36.88,6.31,1.86-5.37-8.17,1.4,3.2-9.25,18.44-3.16c1.71-.29,2.85-.18,3.4.33Z"/>
      <path class="st2" d="M332.55,300.63c-.92,2.22-2.36,4.29-4.35,6.22-1.73,1.61-4.12,3.23-7.18,4.88-3.06,1.65-7,2.88-11.83,3.71l-25.21,4.32c-3.01.23-5.59.07-7.73-.5-1.91-.42-3.4-1.29-4.48-2.6-1.08-1.31-1.13-3.41-.13-6.29l2.69-7.76c.57-2.06,1.7-4.08,3.41-6.06,1.45-1.65,3.44-3.28,5.97-4.88,2.53-1.6,5.9-2.76,10.1-3.48l17.97-3.08-3.77,10.89-12.61,2.16c-1.13.29-2.03.58-2.72.89-.85.33-1.56.71-2.15,1.14-.59.43-1,.99-1.24,1.69l-1.34,3.88c-.33.53-.33.95,0,1.26.31.79,1.71.97,4.2.54l20.08-3.44c.93-.16,1.82-.4,2.67-.74.69-.3,1.37-.68,2.03-1.12.66-.44,1.13-1.06,1.41-1.86l8.01-23.13c.1-.3.07-.62-.11-.96-.24-.14-.67-.28-1.28-.41-.62-.13-1.55-.09-2.79.13l-20.31,3.48c-1.06.09-1.93.28-2.62.59-1.85.69-2.96,1.58-3.34,2.68l-.57,1.64-15.87,2.72,1.65-4.77c.65-1.89,1.78-3.67,3.39-5.35,1.22-1.43,3.03-2.84,5.42-4.23,2.38-1.39,5.44-2.41,9.18-3.04l32.91-5.63c2.61-.35,4.79-.31,6.54.14,1.47.4,2.7,1.18,3.7,2.31.99,1.14,1.05,3,.15,5.59l-9.87,28.5Z"/>
      <path class="st2" d="M365.23,292.51c-.33.53-.33.95,0,1.26.17.35.57.58,1.18.71.61.13,1.62.07,3.02-.17l3.04-.52c3.5-2.1,7.05-4.2,10.64-6.31,3.59-2.11,7.13-4.21,10.64-6.31l.23-.04,9.92-28.65,15.87-2.72-17.2,49.68-15.87,2.72,2.79-8.06-1.63.28c-2.97,1.82-5.93,3.59-8.86,5.31-2.94,1.72-5.9,3.49-8.86,5.31l-9.8,1.68c-2.89.31-5.33.16-7.32-.43-1.75-.45-3.16-1.33-4.25-2.64-1.08-1.31-1.16-3.31-.23-6l13.12-37.9,15.87-2.72-12.29,35.51Z"/>
      <path class="st2" d="M434.48,245.62l14.44-2.47-15.65,45.2-14.44,2.47,15.65-45.2Z"/>
      <path class="st2" d="M459.11,241.4l14.44-2.47-15.65,45.2-14.44,2.47,15.65-45.2Z"/>
      <path class="st2" d="M519.03,241.99c.16-.45.08-.8-.24-1.04-.31-.24-.73-.41-1.23-.49-.5-.08-1.16-.1-1.98-.04l-11.68,2c-1.13.19-2.02.45-2.67.77-.65.32-1.14.6-1.49.83-.55.44-.87.79-.97,1.06l-.33.95c-.25.73.15,1.29,1.21,1.71.44.27,1.06.42,1.84.45,3.02.5,5.99.98,8.9,1.41,2.37.45,4.83.86,7.37,1.23,2.53.38,4.48.7,5.85.98,1.26.21,2.16.59,2.7,1.13.54.54.92,1.1,1.12,1.66.31.63.33,1.35.05,2.16l-2.56,6.82c-.81,2.35-2.11,4.28-3.9,5.77-1.79,1.5-3.57,2.7-5.34,3.6-2.09,1.04-4.37,1.86-6.84,2.45l-24,4.11c-3.12.53-5.36.47-6.73-.19-1.37-.66-2.19-1.56-2.46-2.71-.49-1.28-.5-2.81,0-4.59l2.07-5.97,14.44-2.47-1.17,3.39c-.34,1,.06,1.57,1.21,1.71.5.09,1.18.05,2.03-.09l12.32-2.11c1.13-.19,1.98-.45,2.56-.76.57-.31,1.05-.63,1.43-.95.41-.41.76-.85,1.06-1.33l.38-1.09c.16-.45.11-.8-.13-1.06-.25-.26-.48-.45-.7-.58-.47-.17-.89-.32-1.25-.42-4.06-.58-7.8-1.13-11.21-1.66-2.91-.44-5.79-.88-8.63-1.33-2.84-.45-4.75-.8-5.73-1.06-.98-.26-1.59-.71-1.83-1.35-.25-.64-.32-1.31-.2-2.01,0-.77.29-1.62.89-2.58l1.6-4.61c.81-2.35,2.09-4.29,3.81-5.82,1.73-1.53,3.48-2.74,5.26-3.65,2.09-1.04,4.37-1.85,6.84-2.45l23.78-4.07c3.33-.4,5.72-.28,7.16.37,1.44.65,2.31,1.5,2.61,2.55.38,1.21.36,2.62-.06,4.22l-1.32,3.8-14.23,2.44.38-1.09Z"/>
      <path class="st2" d="M545.39,269.15l-3.77-27.19,15.99-4.65,2.01,19.57,7.22-1.24c.56-.1,1.18-.33,1.84-.7.49-.25,1-.57,1.53-.96.53-.39.91-.9,1.13-1.53l7.71-22.26-10.41,1.78,3.48-10.04,24.85-4.25-11.51,33.25c-.81,2.35-2.02,4.48-3.6,6.36-1.38,1.68-3.24,3.3-5.57,4.85-2.33,1.55-5.34,2.64-9.02,3.27l-21.87,3.74Z"/>
    </g>
    <g>
      <g>
        <path class="st0" d="M359.65,365.64l-13.96,2.39,3.42-9.89,13.96-2.39-3.42,9.89Z"/>
        <path class="st0" d="M381.68,361.86l-13.96,2.39,3.42-9.89,13.96-2.39-3.42,9.89Z"/>
        <path class="st0" d="M403.71,358.09l-13.96,2.39,3.42-9.89,13.96-2.39-3.42,9.89Z"/>
        <path class="st0" d="M427.54,320.34l11.44-1.96-12.39,35.8-11.44,1.96,12.39-35.8Z"/>
        <path class="st0" d="M471.17,338.5c.57-.26,1.01-.56,1.34-.89.32-.32.56-.7.71-1.13l13.66-39.45,11.44-1.96-14.29,41.28c-.69,2.01-1.82,3.67-3.38,4.98-1.56,1.31-3.17,2.38-4.83,3.2-1.93,1.01-3.93,1.75-6,2.24l-20.35,3.48c-2.87.36-4.9.22-6.1-.42-1.2-.64-1.97-1.4-2.29-2.29-.36-1.08-.34-2.37.07-3.86l9.49-27.41,11.44-1.96-8.86,25.59c-.32.93.03,1.45,1.05,1.54.4.07.99.03,1.78-.1l12.78-2.19c1.01-.17,1.8-.39,2.36-.66Z"/>
        <path class="st0" d="M461.02,306.82l-13.29,2.27,3.74-10.35c.45-1.29,1.1-2.33,1.95-3.12.85-.79,1.79-1.43,2.81-1.95,1.02-.51,2.17-.94,3.46-1.3l27.92-4.78-1.79,5.16-22.54,3.86c-.78.13-1.4.32-1.86.57-.45.25-.82.46-1.09.64-.44.34-.69.62-.77.84l-1.27,3.65,4.21-.72c.71-.53,1.46-1.09,2.25-1.7.79-.61,1.54-1.17,2.25-1.7l2.52-.43,2.64,1.98,3.2-.55,1.01-2.9,8.07-1.38-1.79,5.16c-.3.86-.83,1.58-1.61,2.15-.78.57-1.53.99-2.25,1.24-1,.44-1.99.71-2.97.81l-6.05,1.04-3.11-2-1.01.17-4.63,3.32Z"/>
        <path class="st0" d="M507.49,330.72c-.24.38-.24.68,0,.91.12.25.41.42.85.51.44.09,1.17.05,2.18-.12l2.19-.37c2.53-1.51,5.08-3.03,7.67-4.55,2.58-1.52,5.14-3.04,7.67-4.55l.17-.03,7.15-20.64,11.44-1.96-12.39,35.8-11.44,1.96,2.01-5.81-1.18.2c-2.14,1.31-4.27,2.59-6.39,3.82-2.12,1.24-4.25,2.51-6.39,3.82l-7.06,1.21c-2.08.22-3.84.12-5.27-.31-1.26-.32-2.28-.96-3.06-1.9-.78-.94-.84-2.39-.17-4.32l9.45-27.31,11.44-1.96-8.86,25.59Z"/>
        <path class="st0" d="M563.83,289.9l13.85-2.37-15.01,43.35-13.85,2.37,15.01-43.35Z"/>
        <path class="st0" d="M621.31,290.47c.15-.43.07-.77-.23-1-.3-.23-.7-.39-1.18-.47-.48-.08-1.12-.09-1.9-.04l-11.2,1.92c-1.09.19-1.94.44-2.56.74-.62.31-1.09.58-1.42.79-.53.42-.84.76-.93,1.02l-.32.91c-.24.7.14,1.24,1.16,1.64.42.26,1.01.4,1.77.43,2.9.48,5.74.94,8.54,1.36,2.28.43,4.63.82,7.07,1.18,2.43.36,4.3.67,5.62.94,1.21.2,2.07.56,2.59,1.09.52.52.88,1.05,1.08,1.59.3.6.32,1.29.05,2.07l-2.46,6.54c-.78,2.26-2.03,4.1-3.74,5.54-1.71,1.44-3.42,2.59-5.12,3.45-2.01,1-4.19,1.78-6.56,2.35l-23.02,3.94c-2.99.51-5.14.45-6.45-.18-1.31-.63-2.1-1.5-2.36-2.6-.47-1.22-.47-2.69,0-4.41l1.98-5.73,13.85-2.37-1.13,3.25c-.33.96.05,1.5,1.16,1.64.48.08,1.13.05,1.95-.09l11.81-2.02c1.09-.19,1.9-.43,2.46-.73.55-.3,1-.6,1.37-.91.39-.39.73-.82,1.02-1.28l.36-1.04c.15-.43.11-.77-.13-1.02-.24-.24-.46-.43-.67-.56-.45-.17-.85-.3-1.2-.41-3.9-.56-7.48-1.09-10.76-1.59-2.8-.42-5.55-.84-8.28-1.28-2.73-.43-4.56-.77-5.49-1.02-.94-.25-1.52-.68-1.76-1.29-.24-.61-.3-1.25-.2-1.93,0-.73.28-1.56.86-2.47l1.53-4.43c.78-2.26,2-4.12,3.66-5.59,1.66-1.47,3.34-2.63,5.04-3.5,2-1,4.19-1.78,6.56-2.35l22.81-3.91c3.2-.38,5.49-.27,6.87.35,1.38.62,2.22,1.44,2.51,2.45.36,1.16.34,2.51-.06,4.05l-1.26,3.65-13.65,2.34.36-1.04Z"/>
        <path class="st0" d="M596.42,274.88l2.88-8.33,13.04-2.23,1.67-4.82,12.83-2.2-1.67,4.82,6.31-1.08,1.67-4.82,13.85-2.37-4.55,13.15-46.04,7.88Z"/>
        <path class="st0" d="M634.74,251.67l4.46-12.89,13.85-2.37-4.46,12.89-13.85,2.37Z"/>
        <path class="st0" d="M691.01,299.48c-.8,1.93-2.06,3.74-3.79,5.43-1.51,1.4-3.6,2.82-6.27,4.26-2.67,1.44-6.11,2.52-10.32,3.24l-22,3.77c-2.63.21-4.88.06-6.75-.44-1.66-.37-2.96-1.13-3.91-2.27-.95-1.14-.98-2.97-.11-5.49l2.34-6.77c.5-1.8,1.49-3.56,2.98-5.29,1.27-1.44,3-2.86,5.21-4.26,2.21-1.4,5.15-2.41,8.81-3.04l15.68-2.68-3.29,9.5-11,1.88c-.98.25-1.77.51-2.38.77-.74.29-1.37.62-1.88.99-.51.38-.87.87-1.08,1.47l-1.17,3.39c-.29.46-.29.83,0,1.1.27.69,1.49.85,3.67.48l17.52-3c.81-.14,1.59-.35,2.33-.64.6-.27,1.19-.59,1.78-.98.58-.38.99-.92,1.23-1.62l6.99-20.18c.09-.26.06-.54-.09-.84-.21-.13-.59-.25-1.12-.36-.54-.11-1.35-.08-2.43.11l-17.72,3.03c-.92.08-1.68.25-2.29.51-1.62.6-2.59,1.38-2.92,2.34l-.5,1.43-13.85,2.37,1.44-4.17c.57-1.65,1.56-3.21,2.96-4.67,1.07-1.24,2.64-2.47,4.73-3.69,2.08-1.21,4.75-2.1,8.01-2.66l28.72-4.92c2.28-.31,4.18-.26,5.71.13,1.28.35,2.36,1.03,3.23,2.02.87,1,.91,2.62.13,4.88l-8.61,24.87Z"/>
        <path class="st0" d="M710.14,305.63l-3.62-26.08,15.34-4.46,1.93,18.78,6.92-1.19c.54-.09,1.13-.32,1.77-.67.47-.24.96-.55,1.47-.93.51-.37.87-.86,1.08-1.47l7.39-21.35-9.98,1.71,3.34-9.63,23.83-4.08-11.04,31.9c-.78,2.26-1.94,4.29-3.45,6.1-1.33,1.62-3.11,3.17-5.35,4.65-2.24,1.49-5.13,2.53-8.65,3.13l-20.98,3.59Z"/>
      </g>
      <g>
        <path class="st0" d="M350.55,359.93l-119.02,19.27,119.86-21.44-.84,2.17Z"/>
        <path class="st0" d="M348.01,363.99l-119.02,19.27,119.86-21.44-.84,2.17Z"/>
        <path class="st0" d="M345.46,368.05l-119.02,19.27,119.86-21.44-.84,2.17Z"/>
      </g>
    </g>
    <g>
      <path class="st2" d="M284.55,260.4l147.54-24.18-148.25,26.01.71-1.83Z"/>
      <path class="st2" d="M286.7,256.97l147.54-24.18-148.25,26.01.71-1.83Z"/>
      <path class="st2" d="M288.84,253.55l147.54-24.18-148.25,26.01.71-1.83Z"/>
    </g>
  </g>
</svg>